G04 #@! TF.GenerationSoftware,KiCad,Pcbnew,8.0.1*
G04 #@! TF.CreationDate,2024-12-01T21:33:56-08:00*
G04 #@! TF.ProjectId,ledFlicker,6c656446-6c69-4636-9b65-722e6b696361,rev?*
G04 #@! TF.SameCoordinates,Original*
G04 #@! TF.FileFunction,Legend,Top*
G04 #@! TF.FilePolarity,Positive*
%FSLAX46Y46*%
G04 Gerber Fmt 4.6, Leading zero omitted, Abs format (unit mm)*
G04 Created by KiCad (PCBNEW 8.0.1) date 2024-12-01 21:33:56*
%MOMM*%
%LPD*%
G01*
G04 APERTURE LIST*
%ADD10C,0.100000*%
%ADD11C,0.150000*%
%ADD12C,0.200000*%
%ADD13C,0.127000*%
%ADD14C,0.120000*%
G04 APERTURE END LIST*
D10*
X150036884Y-52990180D02*
X150084503Y-53037800D01*
X150084503Y-53037800D02*
X150036884Y-53085419D01*
X150036884Y-53085419D02*
X149989265Y-53037800D01*
X149989265Y-53037800D02*
X150036884Y-52990180D01*
X150036884Y-52990180D02*
X150036884Y-53085419D01*
X149909884Y-38004180D02*
X149957503Y-38051800D01*
X149957503Y-38051800D02*
X149909884Y-38099419D01*
X149909884Y-38099419D02*
X149862265Y-38051800D01*
X149862265Y-38051800D02*
X149909884Y-38004180D01*
X149909884Y-38004180D02*
X149909884Y-38099419D01*
X158514074Y-67817419D02*
X158037884Y-67817419D01*
X158037884Y-67817419D02*
X158037884Y-66817419D01*
X158847408Y-67293609D02*
X159180741Y-67293609D01*
X159323598Y-67817419D02*
X158847408Y-67817419D01*
X158847408Y-67817419D02*
X158847408Y-66817419D01*
X158847408Y-66817419D02*
X159323598Y-66817419D01*
X159752170Y-67817419D02*
X159752170Y-66817419D01*
X159752170Y-66817419D02*
X159990265Y-66817419D01*
X159990265Y-66817419D02*
X160133122Y-66865038D01*
X160133122Y-66865038D02*
X160228360Y-66960276D01*
X160228360Y-66960276D02*
X160275979Y-67055514D01*
X160275979Y-67055514D02*
X160323598Y-67245990D01*
X160323598Y-67245990D02*
X160323598Y-67388847D01*
X160323598Y-67388847D02*
X160275979Y-67579323D01*
X160275979Y-67579323D02*
X160228360Y-67674561D01*
X160228360Y-67674561D02*
X160133122Y-67769800D01*
X160133122Y-67769800D02*
X159990265Y-67817419D01*
X159990265Y-67817419D02*
X159752170Y-67817419D01*
X160752170Y-67436466D02*
X161514075Y-67436466D01*
X155878884Y-44227180D02*
X155926503Y-44274800D01*
X155926503Y-44274800D02*
X155878884Y-44322419D01*
X155878884Y-44322419D02*
X155831265Y-44274800D01*
X155831265Y-44274800D02*
X155878884Y-44227180D01*
X155878884Y-44227180D02*
X155878884Y-44322419D01*
X155831217Y-72373609D02*
X155497884Y-72373609D01*
X155497884Y-72897419D02*
X155497884Y-71897419D01*
X155497884Y-71897419D02*
X155974074Y-71897419D01*
X156497884Y-72897419D02*
X156402646Y-72849800D01*
X156402646Y-72849800D02*
X156355027Y-72754561D01*
X156355027Y-72754561D02*
X156355027Y-71897419D01*
X156878837Y-72897419D02*
X156878837Y-72230752D01*
X156878837Y-71897419D02*
X156831218Y-71945038D01*
X156831218Y-71945038D02*
X156878837Y-71992657D01*
X156878837Y-71992657D02*
X156926456Y-71945038D01*
X156926456Y-71945038D02*
X156878837Y-71897419D01*
X156878837Y-71897419D02*
X156878837Y-71992657D01*
X157783598Y-72849800D02*
X157688360Y-72897419D01*
X157688360Y-72897419D02*
X157497884Y-72897419D01*
X157497884Y-72897419D02*
X157402646Y-72849800D01*
X157402646Y-72849800D02*
X157355027Y-72802180D01*
X157355027Y-72802180D02*
X157307408Y-72706942D01*
X157307408Y-72706942D02*
X157307408Y-72421228D01*
X157307408Y-72421228D02*
X157355027Y-72325990D01*
X157355027Y-72325990D02*
X157402646Y-72278371D01*
X157402646Y-72278371D02*
X157497884Y-72230752D01*
X157497884Y-72230752D02*
X157688360Y-72230752D01*
X157688360Y-72230752D02*
X157783598Y-72278371D01*
X158212170Y-72897419D02*
X158212170Y-71897419D01*
X158307408Y-72516466D02*
X158593122Y-72897419D01*
X158593122Y-72230752D02*
X158212170Y-72611704D01*
X159402646Y-72849800D02*
X159307408Y-72897419D01*
X159307408Y-72897419D02*
X159116932Y-72897419D01*
X159116932Y-72897419D02*
X159021694Y-72849800D01*
X159021694Y-72849800D02*
X158974075Y-72754561D01*
X158974075Y-72754561D02*
X158974075Y-72373609D01*
X158974075Y-72373609D02*
X159021694Y-72278371D01*
X159021694Y-72278371D02*
X159116932Y-72230752D01*
X159116932Y-72230752D02*
X159307408Y-72230752D01*
X159307408Y-72230752D02*
X159402646Y-72278371D01*
X159402646Y-72278371D02*
X159450265Y-72373609D01*
X159450265Y-72373609D02*
X159450265Y-72468847D01*
X159450265Y-72468847D02*
X158974075Y-72564085D01*
X159878837Y-72897419D02*
X159878837Y-72230752D01*
X159878837Y-72421228D02*
X159926456Y-72325990D01*
X159926456Y-72325990D02*
X159974075Y-72278371D01*
X159974075Y-72278371D02*
X160069313Y-72230752D01*
X160069313Y-72230752D02*
X160164551Y-72230752D01*
X163435312Y-72802180D02*
X163387693Y-72849800D01*
X163387693Y-72849800D02*
X163244836Y-72897419D01*
X163244836Y-72897419D02*
X163149598Y-72897419D01*
X163149598Y-72897419D02*
X163006741Y-72849800D01*
X163006741Y-72849800D02*
X162911503Y-72754561D01*
X162911503Y-72754561D02*
X162863884Y-72659323D01*
X162863884Y-72659323D02*
X162816265Y-72468847D01*
X162816265Y-72468847D02*
X162816265Y-72325990D01*
X162816265Y-72325990D02*
X162863884Y-72135514D01*
X162863884Y-72135514D02*
X162911503Y-72040276D01*
X162911503Y-72040276D02*
X163006741Y-71945038D01*
X163006741Y-71945038D02*
X163149598Y-71897419D01*
X163149598Y-71897419D02*
X163244836Y-71897419D01*
X163244836Y-71897419D02*
X163387693Y-71945038D01*
X163387693Y-71945038D02*
X163435312Y-71992657D01*
X164006741Y-72897419D02*
X163911503Y-72849800D01*
X163911503Y-72849800D02*
X163863884Y-72802180D01*
X163863884Y-72802180D02*
X163816265Y-72706942D01*
X163816265Y-72706942D02*
X163816265Y-72421228D01*
X163816265Y-72421228D02*
X163863884Y-72325990D01*
X163863884Y-72325990D02*
X163911503Y-72278371D01*
X163911503Y-72278371D02*
X164006741Y-72230752D01*
X164006741Y-72230752D02*
X164149598Y-72230752D01*
X164149598Y-72230752D02*
X164244836Y-72278371D01*
X164244836Y-72278371D02*
X164292455Y-72325990D01*
X164292455Y-72325990D02*
X164340074Y-72421228D01*
X164340074Y-72421228D02*
X164340074Y-72706942D01*
X164340074Y-72706942D02*
X164292455Y-72802180D01*
X164292455Y-72802180D02*
X164244836Y-72849800D01*
X164244836Y-72849800D02*
X164149598Y-72897419D01*
X164149598Y-72897419D02*
X164006741Y-72897419D01*
X164768646Y-72230752D02*
X164768646Y-72897419D01*
X164768646Y-72325990D02*
X164816265Y-72278371D01*
X164816265Y-72278371D02*
X164911503Y-72230752D01*
X164911503Y-72230752D02*
X165054360Y-72230752D01*
X165054360Y-72230752D02*
X165149598Y-72278371D01*
X165149598Y-72278371D02*
X165197217Y-72373609D01*
X165197217Y-72373609D02*
X165197217Y-72897419D01*
X165625789Y-72849800D02*
X165721027Y-72897419D01*
X165721027Y-72897419D02*
X165911503Y-72897419D01*
X165911503Y-72897419D02*
X166006741Y-72849800D01*
X166006741Y-72849800D02*
X166054360Y-72754561D01*
X166054360Y-72754561D02*
X166054360Y-72706942D01*
X166054360Y-72706942D02*
X166006741Y-72611704D01*
X166006741Y-72611704D02*
X165911503Y-72564085D01*
X165911503Y-72564085D02*
X165768646Y-72564085D01*
X165768646Y-72564085D02*
X165673408Y-72516466D01*
X165673408Y-72516466D02*
X165625789Y-72421228D01*
X165625789Y-72421228D02*
X165625789Y-72373609D01*
X165625789Y-72373609D02*
X165673408Y-72278371D01*
X165673408Y-72278371D02*
X165768646Y-72230752D01*
X165768646Y-72230752D02*
X165911503Y-72230752D01*
X165911503Y-72230752D02*
X166006741Y-72278371D01*
X166340075Y-72230752D02*
X166721027Y-72230752D01*
X166482932Y-71897419D02*
X166482932Y-72754561D01*
X166482932Y-72754561D02*
X166530551Y-72849800D01*
X166530551Y-72849800D02*
X166625789Y-72897419D01*
X166625789Y-72897419D02*
X166721027Y-72897419D01*
X166816266Y-72992657D02*
X167578170Y-72992657D01*
X167959123Y-72897419D02*
X167863885Y-72849800D01*
X167863885Y-72849800D02*
X167816266Y-72802180D01*
X167816266Y-72802180D02*
X167768647Y-72706942D01*
X167768647Y-72706942D02*
X167768647Y-72421228D01*
X167768647Y-72421228D02*
X167816266Y-72325990D01*
X167816266Y-72325990D02*
X167863885Y-72278371D01*
X167863885Y-72278371D02*
X167959123Y-72230752D01*
X167959123Y-72230752D02*
X168101980Y-72230752D01*
X168101980Y-72230752D02*
X168197218Y-72278371D01*
X168197218Y-72278371D02*
X168244837Y-72325990D01*
X168244837Y-72325990D02*
X168292456Y-72421228D01*
X168292456Y-72421228D02*
X168292456Y-72706942D01*
X168292456Y-72706942D02*
X168244837Y-72802180D01*
X168244837Y-72802180D02*
X168197218Y-72849800D01*
X168197218Y-72849800D02*
X168101980Y-72897419D01*
X168101980Y-72897419D02*
X167959123Y-72897419D01*
X168721028Y-72230752D02*
X168721028Y-72897419D01*
X168721028Y-72325990D02*
X168768647Y-72278371D01*
X168768647Y-72278371D02*
X168863885Y-72230752D01*
X168863885Y-72230752D02*
X169006742Y-72230752D01*
X169006742Y-72230752D02*
X169101980Y-72278371D01*
X169101980Y-72278371D02*
X169149599Y-72373609D01*
X169149599Y-72373609D02*
X169149599Y-72897419D01*
X165784884Y-55657180D02*
X165832503Y-55704800D01*
X165832503Y-55704800D02*
X165784884Y-55752419D01*
X165784884Y-55752419D02*
X165737265Y-55704800D01*
X165737265Y-55704800D02*
X165784884Y-55657180D01*
X165784884Y-55657180D02*
X165784884Y-55752419D01*
X168277217Y-53069609D02*
X168420074Y-53117228D01*
X168420074Y-53117228D02*
X168467693Y-53164847D01*
X168467693Y-53164847D02*
X168515312Y-53260085D01*
X168515312Y-53260085D02*
X168515312Y-53402942D01*
X168515312Y-53402942D02*
X168467693Y-53498180D01*
X168467693Y-53498180D02*
X168420074Y-53545800D01*
X168420074Y-53545800D02*
X168324836Y-53593419D01*
X168324836Y-53593419D02*
X167943884Y-53593419D01*
X167943884Y-53593419D02*
X167943884Y-52593419D01*
X167943884Y-52593419D02*
X168277217Y-52593419D01*
X168277217Y-52593419D02*
X168372455Y-52641038D01*
X168372455Y-52641038D02*
X168420074Y-52688657D01*
X168420074Y-52688657D02*
X168467693Y-52783895D01*
X168467693Y-52783895D02*
X168467693Y-52879133D01*
X168467693Y-52879133D02*
X168420074Y-52974371D01*
X168420074Y-52974371D02*
X168372455Y-53021990D01*
X168372455Y-53021990D02*
X168277217Y-53069609D01*
X168277217Y-53069609D02*
X167943884Y-53069609D01*
X168896265Y-53307704D02*
X169372455Y-53307704D01*
X168801027Y-53593419D02*
X169134360Y-52593419D01*
X169134360Y-52593419D02*
X169467693Y-53593419D01*
X169658170Y-52593419D02*
X170229598Y-52593419D01*
X169943884Y-53593419D02*
X169943884Y-52593419D01*
X170562932Y-53212466D02*
X171324837Y-53212466D01*
X170943884Y-53593419D02*
X170943884Y-52831514D01*
X157148884Y-37750180D02*
X157196503Y-37797800D01*
X157196503Y-37797800D02*
X157148884Y-37845419D01*
X157148884Y-37845419D02*
X157101265Y-37797800D01*
X157101265Y-37797800D02*
X157148884Y-37750180D01*
X157148884Y-37750180D02*
X157148884Y-37845419D01*
X172658693Y-52641038D02*
X172563455Y-52593419D01*
X172563455Y-52593419D02*
X172420598Y-52593419D01*
X172420598Y-52593419D02*
X172277741Y-52641038D01*
X172277741Y-52641038D02*
X172182503Y-52736276D01*
X172182503Y-52736276D02*
X172134884Y-52831514D01*
X172134884Y-52831514D02*
X172087265Y-53021990D01*
X172087265Y-53021990D02*
X172087265Y-53164847D01*
X172087265Y-53164847D02*
X172134884Y-53355323D01*
X172134884Y-53355323D02*
X172182503Y-53450561D01*
X172182503Y-53450561D02*
X172277741Y-53545800D01*
X172277741Y-53545800D02*
X172420598Y-53593419D01*
X172420598Y-53593419D02*
X172515836Y-53593419D01*
X172515836Y-53593419D02*
X172658693Y-53545800D01*
X172658693Y-53545800D02*
X172706312Y-53498180D01*
X172706312Y-53498180D02*
X172706312Y-53164847D01*
X172706312Y-53164847D02*
X172515836Y-53164847D01*
X173134884Y-53593419D02*
X173134884Y-52593419D01*
X173134884Y-52593419D02*
X173706312Y-53593419D01*
X173706312Y-53593419D02*
X173706312Y-52593419D01*
X174182503Y-53593419D02*
X174182503Y-52593419D01*
X174182503Y-52593419D02*
X174420598Y-52593419D01*
X174420598Y-52593419D02*
X174563455Y-52641038D01*
X174563455Y-52641038D02*
X174658693Y-52736276D01*
X174658693Y-52736276D02*
X174706312Y-52831514D01*
X174706312Y-52831514D02*
X174753931Y-53021990D01*
X174753931Y-53021990D02*
X174753931Y-53164847D01*
X174753931Y-53164847D02*
X174706312Y-53355323D01*
X174706312Y-53355323D02*
X174658693Y-53450561D01*
X174658693Y-53450561D02*
X174563455Y-53545800D01*
X174563455Y-53545800D02*
X174420598Y-53593419D01*
X174420598Y-53593419D02*
X174182503Y-53593419D01*
X152068884Y-65436180D02*
X152116503Y-65483800D01*
X152116503Y-65483800D02*
X152068884Y-65531419D01*
X152068884Y-65531419D02*
X152021265Y-65483800D01*
X152021265Y-65483800D02*
X152068884Y-65436180D01*
X152068884Y-65436180D02*
X152068884Y-65531419D01*
X162959074Y-67817419D02*
X162482884Y-67817419D01*
X162482884Y-67817419D02*
X162482884Y-66817419D01*
X163292408Y-67293609D02*
X163625741Y-67293609D01*
X163768598Y-67817419D02*
X163292408Y-67817419D01*
X163292408Y-67817419D02*
X163292408Y-66817419D01*
X163292408Y-66817419D02*
X163768598Y-66817419D01*
X164197170Y-67817419D02*
X164197170Y-66817419D01*
X164197170Y-66817419D02*
X164435265Y-66817419D01*
X164435265Y-66817419D02*
X164578122Y-66865038D01*
X164578122Y-66865038D02*
X164673360Y-66960276D01*
X164673360Y-66960276D02*
X164720979Y-67055514D01*
X164720979Y-67055514D02*
X164768598Y-67245990D01*
X164768598Y-67245990D02*
X164768598Y-67388847D01*
X164768598Y-67388847D02*
X164720979Y-67579323D01*
X164720979Y-67579323D02*
X164673360Y-67674561D01*
X164673360Y-67674561D02*
X164578122Y-67769800D01*
X164578122Y-67769800D02*
X164435265Y-67817419D01*
X164435265Y-67817419D02*
X164197170Y-67817419D01*
X165197170Y-67436466D02*
X165959075Y-67436466D01*
X165578122Y-67817419D02*
X165578122Y-67055514D01*
D11*
X171370666Y-34887819D02*
X171370666Y-35602104D01*
X171370666Y-35602104D02*
X171323047Y-35744961D01*
X171323047Y-35744961D02*
X171227809Y-35840200D01*
X171227809Y-35840200D02*
X171084952Y-35887819D01*
X171084952Y-35887819D02*
X170989714Y-35887819D01*
X172275428Y-35221152D02*
X172275428Y-35887819D01*
X172037333Y-34840200D02*
X171799238Y-35554485D01*
X171799238Y-35554485D02*
X172418285Y-35554485D01*
X147901819Y-58078666D02*
X147425628Y-58411999D01*
X147901819Y-58650094D02*
X146901819Y-58650094D01*
X146901819Y-58650094D02*
X146901819Y-58269142D01*
X146901819Y-58269142D02*
X146949438Y-58173904D01*
X146949438Y-58173904D02*
X146997057Y-58126285D01*
X146997057Y-58126285D02*
X147092295Y-58078666D01*
X147092295Y-58078666D02*
X147235152Y-58078666D01*
X147235152Y-58078666D02*
X147330390Y-58126285D01*
X147330390Y-58126285D02*
X147378009Y-58173904D01*
X147378009Y-58173904D02*
X147425628Y-58269142D01*
X147425628Y-58269142D02*
X147425628Y-58650094D01*
X147901819Y-57602475D02*
X147901819Y-57411999D01*
X147901819Y-57411999D02*
X147854200Y-57316761D01*
X147854200Y-57316761D02*
X147806580Y-57269142D01*
X147806580Y-57269142D02*
X147663723Y-57173904D01*
X147663723Y-57173904D02*
X147473247Y-57126285D01*
X147473247Y-57126285D02*
X147092295Y-57126285D01*
X147092295Y-57126285D02*
X146997057Y-57173904D01*
X146997057Y-57173904D02*
X146949438Y-57221523D01*
X146949438Y-57221523D02*
X146901819Y-57316761D01*
X146901819Y-57316761D02*
X146901819Y-57507237D01*
X146901819Y-57507237D02*
X146949438Y-57602475D01*
X146949438Y-57602475D02*
X146997057Y-57650094D01*
X146997057Y-57650094D02*
X147092295Y-57697713D01*
X147092295Y-57697713D02*
X147330390Y-57697713D01*
X147330390Y-57697713D02*
X147425628Y-57650094D01*
X147425628Y-57650094D02*
X147473247Y-57602475D01*
X147473247Y-57602475D02*
X147520866Y-57507237D01*
X147520866Y-57507237D02*
X147520866Y-57316761D01*
X147520866Y-57316761D02*
X147473247Y-57221523D01*
X147473247Y-57221523D02*
X147425628Y-57173904D01*
X147425628Y-57173904D02*
X147330390Y-57126285D01*
X162425142Y-42940319D02*
X162091809Y-42464128D01*
X161853714Y-42940319D02*
X161853714Y-41940319D01*
X161853714Y-41940319D02*
X162234666Y-41940319D01*
X162234666Y-41940319D02*
X162329904Y-41987938D01*
X162329904Y-41987938D02*
X162377523Y-42035557D01*
X162377523Y-42035557D02*
X162425142Y-42130795D01*
X162425142Y-42130795D02*
X162425142Y-42273652D01*
X162425142Y-42273652D02*
X162377523Y-42368890D01*
X162377523Y-42368890D02*
X162329904Y-42416509D01*
X162329904Y-42416509D02*
X162234666Y-42464128D01*
X162234666Y-42464128D02*
X161853714Y-42464128D01*
X163377523Y-42940319D02*
X162806095Y-42940319D01*
X163091809Y-42940319D02*
X163091809Y-41940319D01*
X163091809Y-41940319D02*
X162996571Y-42083176D01*
X162996571Y-42083176D02*
X162901333Y-42178414D01*
X162901333Y-42178414D02*
X162806095Y-42226033D01*
X163710857Y-41940319D02*
X164329904Y-41940319D01*
X164329904Y-41940319D02*
X163996571Y-42321271D01*
X163996571Y-42321271D02*
X164139428Y-42321271D01*
X164139428Y-42321271D02*
X164234666Y-42368890D01*
X164234666Y-42368890D02*
X164282285Y-42416509D01*
X164282285Y-42416509D02*
X164329904Y-42511747D01*
X164329904Y-42511747D02*
X164329904Y-42749842D01*
X164329904Y-42749842D02*
X164282285Y-42845080D01*
X164282285Y-42845080D02*
X164234666Y-42892700D01*
X164234666Y-42892700D02*
X164139428Y-42940319D01*
X164139428Y-42940319D02*
X163853714Y-42940319D01*
X163853714Y-42940319D02*
X163758476Y-42892700D01*
X163758476Y-42892700D02*
X163710857Y-42845080D01*
X147901819Y-37695094D02*
X146901819Y-37695094D01*
X146901819Y-37695094D02*
X146901819Y-37456999D01*
X146901819Y-37456999D02*
X146949438Y-37314142D01*
X146949438Y-37314142D02*
X147044676Y-37218904D01*
X147044676Y-37218904D02*
X147139914Y-37171285D01*
X147139914Y-37171285D02*
X147330390Y-37123666D01*
X147330390Y-37123666D02*
X147473247Y-37123666D01*
X147473247Y-37123666D02*
X147663723Y-37171285D01*
X147663723Y-37171285D02*
X147758961Y-37218904D01*
X147758961Y-37218904D02*
X147854200Y-37314142D01*
X147854200Y-37314142D02*
X147901819Y-37456999D01*
X147901819Y-37456999D02*
X147901819Y-37695094D01*
X146997057Y-36742713D02*
X146949438Y-36695094D01*
X146949438Y-36695094D02*
X146901819Y-36599856D01*
X146901819Y-36599856D02*
X146901819Y-36361761D01*
X146901819Y-36361761D02*
X146949438Y-36266523D01*
X146949438Y-36266523D02*
X146997057Y-36218904D01*
X146997057Y-36218904D02*
X147092295Y-36171285D01*
X147092295Y-36171285D02*
X147187533Y-36171285D01*
X147187533Y-36171285D02*
X147330390Y-36218904D01*
X147330390Y-36218904D02*
X147901819Y-36790332D01*
X147901819Y-36790332D02*
X147901819Y-36171285D01*
X148463095Y-36014819D02*
X148463095Y-35014819D01*
X148463095Y-35491009D02*
X149034523Y-35491009D01*
X149034523Y-36014819D02*
X149034523Y-35014819D01*
X150034523Y-36014819D02*
X149463095Y-36014819D01*
X149748809Y-36014819D02*
X149748809Y-35014819D01*
X149748809Y-35014819D02*
X149653571Y-35157676D01*
X149653571Y-35157676D02*
X149558333Y-35252914D01*
X149558333Y-35252914D02*
X149463095Y-35300533D01*
X158488142Y-42904580D02*
X158440523Y-42952200D01*
X158440523Y-42952200D02*
X158297666Y-42999819D01*
X158297666Y-42999819D02*
X158202428Y-42999819D01*
X158202428Y-42999819D02*
X158059571Y-42952200D01*
X158059571Y-42952200D02*
X157964333Y-42856961D01*
X157964333Y-42856961D02*
X157916714Y-42761723D01*
X157916714Y-42761723D02*
X157869095Y-42571247D01*
X157869095Y-42571247D02*
X157869095Y-42428390D01*
X157869095Y-42428390D02*
X157916714Y-42237914D01*
X157916714Y-42237914D02*
X157964333Y-42142676D01*
X157964333Y-42142676D02*
X158059571Y-42047438D01*
X158059571Y-42047438D02*
X158202428Y-41999819D01*
X158202428Y-41999819D02*
X158297666Y-41999819D01*
X158297666Y-41999819D02*
X158440523Y-42047438D01*
X158440523Y-42047438D02*
X158488142Y-42095057D01*
X159440523Y-42999819D02*
X158869095Y-42999819D01*
X159154809Y-42999819D02*
X159154809Y-41999819D01*
X159154809Y-41999819D02*
X159059571Y-42142676D01*
X159059571Y-42142676D02*
X158964333Y-42237914D01*
X158964333Y-42237914D02*
X158869095Y-42285533D01*
X160392904Y-42999819D02*
X159821476Y-42999819D01*
X160107190Y-42999819D02*
X160107190Y-41999819D01*
X160107190Y-41999819D02*
X160011952Y-42142676D01*
X160011952Y-42142676D02*
X159916714Y-42237914D01*
X159916714Y-42237914D02*
X159821476Y-42285533D01*
X152019095Y-72844819D02*
X152019095Y-71844819D01*
X152019095Y-72321009D02*
X152590523Y-72321009D01*
X152590523Y-72844819D02*
X152590523Y-71844819D01*
X152971476Y-71844819D02*
X153590523Y-71844819D01*
X153590523Y-71844819D02*
X153257190Y-72225771D01*
X153257190Y-72225771D02*
X153400047Y-72225771D01*
X153400047Y-72225771D02*
X153495285Y-72273390D01*
X153495285Y-72273390D02*
X153542904Y-72321009D01*
X153542904Y-72321009D02*
X153590523Y-72416247D01*
X153590523Y-72416247D02*
X153590523Y-72654342D01*
X153590523Y-72654342D02*
X153542904Y-72749580D01*
X153542904Y-72749580D02*
X153495285Y-72797200D01*
X153495285Y-72797200D02*
X153400047Y-72844819D01*
X153400047Y-72844819D02*
X153114333Y-72844819D01*
X153114333Y-72844819D02*
X153019095Y-72797200D01*
X153019095Y-72797200D02*
X152971476Y-72749580D01*
X151638095Y-41872819D02*
X151638095Y-42682342D01*
X151638095Y-42682342D02*
X151685714Y-42777580D01*
X151685714Y-42777580D02*
X151733333Y-42825200D01*
X151733333Y-42825200D02*
X151828571Y-42872819D01*
X151828571Y-42872819D02*
X152019047Y-42872819D01*
X152019047Y-42872819D02*
X152114285Y-42825200D01*
X152114285Y-42825200D02*
X152161904Y-42777580D01*
X152161904Y-42777580D02*
X152209523Y-42682342D01*
X152209523Y-42682342D02*
X152209523Y-41872819D01*
X152638095Y-41968057D02*
X152685714Y-41920438D01*
X152685714Y-41920438D02*
X152780952Y-41872819D01*
X152780952Y-41872819D02*
X153019047Y-41872819D01*
X153019047Y-41872819D02*
X153114285Y-41920438D01*
X153114285Y-41920438D02*
X153161904Y-41968057D01*
X153161904Y-41968057D02*
X153209523Y-42063295D01*
X153209523Y-42063295D02*
X153209523Y-42158533D01*
X153209523Y-42158533D02*
X153161904Y-42301390D01*
X153161904Y-42301390D02*
X152590476Y-42872819D01*
X152590476Y-42872819D02*
X153209523Y-42872819D01*
X150963333Y-53064580D02*
X150915714Y-53112200D01*
X150915714Y-53112200D02*
X150772857Y-53159819D01*
X150772857Y-53159819D02*
X150677619Y-53159819D01*
X150677619Y-53159819D02*
X150534762Y-53112200D01*
X150534762Y-53112200D02*
X150439524Y-53016961D01*
X150439524Y-53016961D02*
X150391905Y-52921723D01*
X150391905Y-52921723D02*
X150344286Y-52731247D01*
X150344286Y-52731247D02*
X150344286Y-52588390D01*
X150344286Y-52588390D02*
X150391905Y-52397914D01*
X150391905Y-52397914D02*
X150439524Y-52302676D01*
X150439524Y-52302676D02*
X150534762Y-52207438D01*
X150534762Y-52207438D02*
X150677619Y-52159819D01*
X150677619Y-52159819D02*
X150772857Y-52159819D01*
X150772857Y-52159819D02*
X150915714Y-52207438D01*
X150915714Y-52207438D02*
X150963333Y-52255057D01*
X151439524Y-53159819D02*
X151630000Y-53159819D01*
X151630000Y-53159819D02*
X151725238Y-53112200D01*
X151725238Y-53112200D02*
X151772857Y-53064580D01*
X151772857Y-53064580D02*
X151868095Y-52921723D01*
X151868095Y-52921723D02*
X151915714Y-52731247D01*
X151915714Y-52731247D02*
X151915714Y-52350295D01*
X151915714Y-52350295D02*
X151868095Y-52255057D01*
X151868095Y-52255057D02*
X151820476Y-52207438D01*
X151820476Y-52207438D02*
X151725238Y-52159819D01*
X151725238Y-52159819D02*
X151534762Y-52159819D01*
X151534762Y-52159819D02*
X151439524Y-52207438D01*
X151439524Y-52207438D02*
X151391905Y-52255057D01*
X151391905Y-52255057D02*
X151344286Y-52350295D01*
X151344286Y-52350295D02*
X151344286Y-52588390D01*
X151344286Y-52588390D02*
X151391905Y-52683628D01*
X151391905Y-52683628D02*
X151439524Y-52731247D01*
X151439524Y-52731247D02*
X151534762Y-52778866D01*
X151534762Y-52778866D02*
X151725238Y-52778866D01*
X151725238Y-52778866D02*
X151820476Y-52731247D01*
X151820476Y-52731247D02*
X151868095Y-52683628D01*
X151868095Y-52683628D02*
X151915714Y-52588390D01*
X165608095Y-61811819D02*
X165608095Y-62621342D01*
X165608095Y-62621342D02*
X165655714Y-62716580D01*
X165655714Y-62716580D02*
X165703333Y-62764200D01*
X165703333Y-62764200D02*
X165798571Y-62811819D01*
X165798571Y-62811819D02*
X165989047Y-62811819D01*
X165989047Y-62811819D02*
X166084285Y-62764200D01*
X166084285Y-62764200D02*
X166131904Y-62716580D01*
X166131904Y-62716580D02*
X166179523Y-62621342D01*
X166179523Y-62621342D02*
X166179523Y-61811819D01*
X167084285Y-62145152D02*
X167084285Y-62811819D01*
X166846190Y-61764200D02*
X166608095Y-62478485D01*
X166608095Y-62478485D02*
X167227142Y-62478485D01*
X155059142Y-66654819D02*
X154725809Y-66178628D01*
X154487714Y-66654819D02*
X154487714Y-65654819D01*
X154487714Y-65654819D02*
X154868666Y-65654819D01*
X154868666Y-65654819D02*
X154963904Y-65702438D01*
X154963904Y-65702438D02*
X155011523Y-65750057D01*
X155011523Y-65750057D02*
X155059142Y-65845295D01*
X155059142Y-65845295D02*
X155059142Y-65988152D01*
X155059142Y-65988152D02*
X155011523Y-66083390D01*
X155011523Y-66083390D02*
X154963904Y-66131009D01*
X154963904Y-66131009D02*
X154868666Y-66178628D01*
X154868666Y-66178628D02*
X154487714Y-66178628D01*
X156011523Y-66654819D02*
X155440095Y-66654819D01*
X155725809Y-66654819D02*
X155725809Y-65654819D01*
X155725809Y-65654819D02*
X155630571Y-65797676D01*
X155630571Y-65797676D02*
X155535333Y-65892914D01*
X155535333Y-65892914D02*
X155440095Y-65940533D01*
X156868666Y-65654819D02*
X156678190Y-65654819D01*
X156678190Y-65654819D02*
X156582952Y-65702438D01*
X156582952Y-65702438D02*
X156535333Y-65750057D01*
X156535333Y-65750057D02*
X156440095Y-65892914D01*
X156440095Y-65892914D02*
X156392476Y-66083390D01*
X156392476Y-66083390D02*
X156392476Y-66464342D01*
X156392476Y-66464342D02*
X156440095Y-66559580D01*
X156440095Y-66559580D02*
X156487714Y-66607200D01*
X156487714Y-66607200D02*
X156582952Y-66654819D01*
X156582952Y-66654819D02*
X156773428Y-66654819D01*
X156773428Y-66654819D02*
X156868666Y-66607200D01*
X156868666Y-66607200D02*
X156916285Y-66559580D01*
X156916285Y-66559580D02*
X156963904Y-66464342D01*
X156963904Y-66464342D02*
X156963904Y-66226247D01*
X156963904Y-66226247D02*
X156916285Y-66131009D01*
X156916285Y-66131009D02*
X156868666Y-66083390D01*
X156868666Y-66083390D02*
X156773428Y-66035771D01*
X156773428Y-66035771D02*
X156582952Y-66035771D01*
X156582952Y-66035771D02*
X156487714Y-66083390D01*
X156487714Y-66083390D02*
X156440095Y-66131009D01*
X156440095Y-66131009D02*
X156392476Y-66226247D01*
X165189819Y-40592333D02*
X165904104Y-40592333D01*
X165904104Y-40592333D02*
X166046961Y-40639952D01*
X166046961Y-40639952D02*
X166142200Y-40735190D01*
X166142200Y-40735190D02*
X166189819Y-40878047D01*
X166189819Y-40878047D02*
X166189819Y-40973285D01*
X165285057Y-40163761D02*
X165237438Y-40116142D01*
X165237438Y-40116142D02*
X165189819Y-40020904D01*
X165189819Y-40020904D02*
X165189819Y-39782809D01*
X165189819Y-39782809D02*
X165237438Y-39687571D01*
X165237438Y-39687571D02*
X165285057Y-39639952D01*
X165285057Y-39639952D02*
X165380295Y-39592333D01*
X165380295Y-39592333D02*
X165475533Y-39592333D01*
X165475533Y-39592333D02*
X165618390Y-39639952D01*
X165618390Y-39639952D02*
X166189819Y-40211380D01*
X166189819Y-40211380D02*
X166189819Y-39592333D01*
X163395819Y-61634666D02*
X162919628Y-61967999D01*
X163395819Y-62206094D02*
X162395819Y-62206094D01*
X162395819Y-62206094D02*
X162395819Y-61825142D01*
X162395819Y-61825142D02*
X162443438Y-61729904D01*
X162443438Y-61729904D02*
X162491057Y-61682285D01*
X162491057Y-61682285D02*
X162586295Y-61634666D01*
X162586295Y-61634666D02*
X162729152Y-61634666D01*
X162729152Y-61634666D02*
X162824390Y-61682285D01*
X162824390Y-61682285D02*
X162872009Y-61729904D01*
X162872009Y-61729904D02*
X162919628Y-61825142D01*
X162919628Y-61825142D02*
X162919628Y-62206094D01*
X162395819Y-60777523D02*
X162395819Y-60967999D01*
X162395819Y-60967999D02*
X162443438Y-61063237D01*
X162443438Y-61063237D02*
X162491057Y-61110856D01*
X162491057Y-61110856D02*
X162633914Y-61206094D01*
X162633914Y-61206094D02*
X162824390Y-61253713D01*
X162824390Y-61253713D02*
X163205342Y-61253713D01*
X163205342Y-61253713D02*
X163300580Y-61206094D01*
X163300580Y-61206094D02*
X163348200Y-61158475D01*
X163348200Y-61158475D02*
X163395819Y-61063237D01*
X163395819Y-61063237D02*
X163395819Y-60872761D01*
X163395819Y-60872761D02*
X163348200Y-60777523D01*
X163348200Y-60777523D02*
X163300580Y-60729904D01*
X163300580Y-60729904D02*
X163205342Y-60682285D01*
X163205342Y-60682285D02*
X162967247Y-60682285D01*
X162967247Y-60682285D02*
X162872009Y-60729904D01*
X162872009Y-60729904D02*
X162824390Y-60777523D01*
X162824390Y-60777523D02*
X162776771Y-60872761D01*
X162776771Y-60872761D02*
X162776771Y-61063237D01*
X162776771Y-61063237D02*
X162824390Y-61158475D01*
X162824390Y-61158475D02*
X162872009Y-61206094D01*
X162872009Y-61206094D02*
X162967247Y-61253713D01*
X175601333Y-54302819D02*
X175268000Y-53826628D01*
X175029905Y-54302819D02*
X175029905Y-53302819D01*
X175029905Y-53302819D02*
X175410857Y-53302819D01*
X175410857Y-53302819D02*
X175506095Y-53350438D01*
X175506095Y-53350438D02*
X175553714Y-53398057D01*
X175553714Y-53398057D02*
X175601333Y-53493295D01*
X175601333Y-53493295D02*
X175601333Y-53636152D01*
X175601333Y-53636152D02*
X175553714Y-53731390D01*
X175553714Y-53731390D02*
X175506095Y-53779009D01*
X175506095Y-53779009D02*
X175410857Y-53826628D01*
X175410857Y-53826628D02*
X175029905Y-53826628D01*
X175934667Y-53302819D02*
X176601333Y-53302819D01*
X176601333Y-53302819D02*
X176172762Y-54302819D01*
X174968819Y-51006333D02*
X175683104Y-51006333D01*
X175683104Y-51006333D02*
X175825961Y-51053952D01*
X175825961Y-51053952D02*
X175921200Y-51149190D01*
X175921200Y-51149190D02*
X175968819Y-51292047D01*
X175968819Y-51292047D02*
X175968819Y-51387285D01*
X174968819Y-50053952D02*
X174968819Y-50530142D01*
X174968819Y-50530142D02*
X175445009Y-50577761D01*
X175445009Y-50577761D02*
X175397390Y-50530142D01*
X175397390Y-50530142D02*
X175349771Y-50434904D01*
X175349771Y-50434904D02*
X175349771Y-50196809D01*
X175349771Y-50196809D02*
X175397390Y-50101571D01*
X175397390Y-50101571D02*
X175445009Y-50053952D01*
X175445009Y-50053952D02*
X175540247Y-50006333D01*
X175540247Y-50006333D02*
X175778342Y-50006333D01*
X175778342Y-50006333D02*
X175873580Y-50053952D01*
X175873580Y-50053952D02*
X175921200Y-50101571D01*
X175921200Y-50101571D02*
X175968819Y-50196809D01*
X175968819Y-50196809D02*
X175968819Y-50434904D01*
X175968819Y-50434904D02*
X175921200Y-50530142D01*
X175921200Y-50530142D02*
X175873580Y-50577761D01*
X147709761Y-61510057D02*
X147614523Y-61462438D01*
X147614523Y-61462438D02*
X147519285Y-61367200D01*
X147519285Y-61367200D02*
X147376428Y-61224342D01*
X147376428Y-61224342D02*
X147281190Y-61176723D01*
X147281190Y-61176723D02*
X147185952Y-61176723D01*
X147233571Y-61414819D02*
X147138333Y-61367200D01*
X147138333Y-61367200D02*
X147043095Y-61271961D01*
X147043095Y-61271961D02*
X146995476Y-61081485D01*
X146995476Y-61081485D02*
X146995476Y-60748152D01*
X146995476Y-60748152D02*
X147043095Y-60557676D01*
X147043095Y-60557676D02*
X147138333Y-60462438D01*
X147138333Y-60462438D02*
X147233571Y-60414819D01*
X147233571Y-60414819D02*
X147424047Y-60414819D01*
X147424047Y-60414819D02*
X147519285Y-60462438D01*
X147519285Y-60462438D02*
X147614523Y-60557676D01*
X147614523Y-60557676D02*
X147662142Y-60748152D01*
X147662142Y-60748152D02*
X147662142Y-61081485D01*
X147662142Y-61081485D02*
X147614523Y-61271961D01*
X147614523Y-61271961D02*
X147519285Y-61367200D01*
X147519285Y-61367200D02*
X147424047Y-61414819D01*
X147424047Y-61414819D02*
X147233571Y-61414819D01*
X148614523Y-61414819D02*
X148043095Y-61414819D01*
X148328809Y-61414819D02*
X148328809Y-60414819D01*
X148328809Y-60414819D02*
X148233571Y-60557676D01*
X148233571Y-60557676D02*
X148138333Y-60652914D01*
X148138333Y-60652914D02*
X148043095Y-60700533D01*
X149987095Y-59525819D02*
X149987095Y-60335342D01*
X149987095Y-60335342D02*
X150034714Y-60430580D01*
X150034714Y-60430580D02*
X150082333Y-60478200D01*
X150082333Y-60478200D02*
X150177571Y-60525819D01*
X150177571Y-60525819D02*
X150368047Y-60525819D01*
X150368047Y-60525819D02*
X150463285Y-60478200D01*
X150463285Y-60478200D02*
X150510904Y-60430580D01*
X150510904Y-60430580D02*
X150558523Y-60335342D01*
X150558523Y-60335342D02*
X150558523Y-59525819D01*
X151510904Y-59525819D02*
X151034714Y-59525819D01*
X151034714Y-59525819D02*
X150987095Y-60002009D01*
X150987095Y-60002009D02*
X151034714Y-59954390D01*
X151034714Y-59954390D02*
X151129952Y-59906771D01*
X151129952Y-59906771D02*
X151368047Y-59906771D01*
X151368047Y-59906771D02*
X151463285Y-59954390D01*
X151463285Y-59954390D02*
X151510904Y-60002009D01*
X151510904Y-60002009D02*
X151558523Y-60097247D01*
X151558523Y-60097247D02*
X151558523Y-60335342D01*
X151558523Y-60335342D02*
X151510904Y-60430580D01*
X151510904Y-60430580D02*
X151463285Y-60478200D01*
X151463285Y-60478200D02*
X151368047Y-60525819D01*
X151368047Y-60525819D02*
X151129952Y-60525819D01*
X151129952Y-60525819D02*
X151034714Y-60478200D01*
X151034714Y-60478200D02*
X150987095Y-60430580D01*
X163394580Y-57290166D02*
X163442200Y-57337785D01*
X163442200Y-57337785D02*
X163489819Y-57480642D01*
X163489819Y-57480642D02*
X163489819Y-57575880D01*
X163489819Y-57575880D02*
X163442200Y-57718737D01*
X163442200Y-57718737D02*
X163346961Y-57813975D01*
X163346961Y-57813975D02*
X163251723Y-57861594D01*
X163251723Y-57861594D02*
X163061247Y-57909213D01*
X163061247Y-57909213D02*
X162918390Y-57909213D01*
X162918390Y-57909213D02*
X162727914Y-57861594D01*
X162727914Y-57861594D02*
X162632676Y-57813975D01*
X162632676Y-57813975D02*
X162537438Y-57718737D01*
X162537438Y-57718737D02*
X162489819Y-57575880D01*
X162489819Y-57575880D02*
X162489819Y-57480642D01*
X162489819Y-57480642D02*
X162537438Y-57337785D01*
X162537438Y-57337785D02*
X162585057Y-57290166D01*
X162918390Y-56718737D02*
X162870771Y-56813975D01*
X162870771Y-56813975D02*
X162823152Y-56861594D01*
X162823152Y-56861594D02*
X162727914Y-56909213D01*
X162727914Y-56909213D02*
X162680295Y-56909213D01*
X162680295Y-56909213D02*
X162585057Y-56861594D01*
X162585057Y-56861594D02*
X162537438Y-56813975D01*
X162537438Y-56813975D02*
X162489819Y-56718737D01*
X162489819Y-56718737D02*
X162489819Y-56528261D01*
X162489819Y-56528261D02*
X162537438Y-56433023D01*
X162537438Y-56433023D02*
X162585057Y-56385404D01*
X162585057Y-56385404D02*
X162680295Y-56337785D01*
X162680295Y-56337785D02*
X162727914Y-56337785D01*
X162727914Y-56337785D02*
X162823152Y-56385404D01*
X162823152Y-56385404D02*
X162870771Y-56433023D01*
X162870771Y-56433023D02*
X162918390Y-56528261D01*
X162918390Y-56528261D02*
X162918390Y-56718737D01*
X162918390Y-56718737D02*
X162966009Y-56813975D01*
X162966009Y-56813975D02*
X163013628Y-56861594D01*
X163013628Y-56861594D02*
X163108866Y-56909213D01*
X163108866Y-56909213D02*
X163299342Y-56909213D01*
X163299342Y-56909213D02*
X163394580Y-56861594D01*
X163394580Y-56861594D02*
X163442200Y-56813975D01*
X163442200Y-56813975D02*
X163489819Y-56718737D01*
X163489819Y-56718737D02*
X163489819Y-56528261D01*
X163489819Y-56528261D02*
X163442200Y-56433023D01*
X163442200Y-56433023D02*
X163394580Y-56385404D01*
X163394580Y-56385404D02*
X163299342Y-56337785D01*
X163299342Y-56337785D02*
X163108866Y-56337785D01*
X163108866Y-56337785D02*
X163013628Y-56385404D01*
X163013628Y-56385404D02*
X162966009Y-56433023D01*
X162966009Y-56433023D02*
X162918390Y-56528261D01*
X158361142Y-54429819D02*
X158027809Y-53953628D01*
X157789714Y-54429819D02*
X157789714Y-53429819D01*
X157789714Y-53429819D02*
X158170666Y-53429819D01*
X158170666Y-53429819D02*
X158265904Y-53477438D01*
X158265904Y-53477438D02*
X158313523Y-53525057D01*
X158313523Y-53525057D02*
X158361142Y-53620295D01*
X158361142Y-53620295D02*
X158361142Y-53763152D01*
X158361142Y-53763152D02*
X158313523Y-53858390D01*
X158313523Y-53858390D02*
X158265904Y-53906009D01*
X158265904Y-53906009D02*
X158170666Y-53953628D01*
X158170666Y-53953628D02*
X157789714Y-53953628D01*
X159313523Y-54429819D02*
X158742095Y-54429819D01*
X159027809Y-54429819D02*
X159027809Y-53429819D01*
X159027809Y-53429819D02*
X158932571Y-53572676D01*
X158932571Y-53572676D02*
X158837333Y-53667914D01*
X158837333Y-53667914D02*
X158742095Y-53715533D01*
X159932571Y-53429819D02*
X160027809Y-53429819D01*
X160027809Y-53429819D02*
X160123047Y-53477438D01*
X160123047Y-53477438D02*
X160170666Y-53525057D01*
X160170666Y-53525057D02*
X160218285Y-53620295D01*
X160218285Y-53620295D02*
X160265904Y-53810771D01*
X160265904Y-53810771D02*
X160265904Y-54048866D01*
X160265904Y-54048866D02*
X160218285Y-54239342D01*
X160218285Y-54239342D02*
X160170666Y-54334580D01*
X160170666Y-54334580D02*
X160123047Y-54382200D01*
X160123047Y-54382200D02*
X160027809Y-54429819D01*
X160027809Y-54429819D02*
X159932571Y-54429819D01*
X159932571Y-54429819D02*
X159837333Y-54382200D01*
X159837333Y-54382200D02*
X159789714Y-54334580D01*
X159789714Y-54334580D02*
X159742095Y-54239342D01*
X159742095Y-54239342D02*
X159694476Y-54048866D01*
X159694476Y-54048866D02*
X159694476Y-53810771D01*
X159694476Y-53810771D02*
X159742095Y-53620295D01*
X159742095Y-53620295D02*
X159789714Y-53525057D01*
X159789714Y-53525057D02*
X159837333Y-53477438D01*
X159837333Y-53477438D02*
X159932571Y-53429819D01*
X174879095Y-36141819D02*
X174879095Y-35141819D01*
X174879095Y-35618009D02*
X175450523Y-35618009D01*
X175450523Y-36141819D02*
X175450523Y-35141819D01*
X175879095Y-35237057D02*
X175926714Y-35189438D01*
X175926714Y-35189438D02*
X176021952Y-35141819D01*
X176021952Y-35141819D02*
X176260047Y-35141819D01*
X176260047Y-35141819D02*
X176355285Y-35189438D01*
X176355285Y-35189438D02*
X176402904Y-35237057D01*
X176402904Y-35237057D02*
X176450523Y-35332295D01*
X176450523Y-35332295D02*
X176450523Y-35427533D01*
X176450523Y-35427533D02*
X176402904Y-35570390D01*
X176402904Y-35570390D02*
X175831476Y-36141819D01*
X175831476Y-36141819D02*
X176450523Y-36141819D01*
X155702095Y-38316819D02*
X155702095Y-39126342D01*
X155702095Y-39126342D02*
X155749714Y-39221580D01*
X155749714Y-39221580D02*
X155797333Y-39269200D01*
X155797333Y-39269200D02*
X155892571Y-39316819D01*
X155892571Y-39316819D02*
X156083047Y-39316819D01*
X156083047Y-39316819D02*
X156178285Y-39269200D01*
X156178285Y-39269200D02*
X156225904Y-39221580D01*
X156225904Y-39221580D02*
X156273523Y-39126342D01*
X156273523Y-39126342D02*
X156273523Y-38316819D01*
X157273523Y-39316819D02*
X156702095Y-39316819D01*
X156987809Y-39316819D02*
X156987809Y-38316819D01*
X156987809Y-38316819D02*
X156892571Y-38459676D01*
X156892571Y-38459676D02*
X156797333Y-38554914D01*
X156797333Y-38554914D02*
X156702095Y-38602533D01*
X169745819Y-67698857D02*
X169269628Y-68032190D01*
X169745819Y-68270285D02*
X168745819Y-68270285D01*
X168745819Y-68270285D02*
X168745819Y-67889333D01*
X168745819Y-67889333D02*
X168793438Y-67794095D01*
X168793438Y-67794095D02*
X168841057Y-67746476D01*
X168841057Y-67746476D02*
X168936295Y-67698857D01*
X168936295Y-67698857D02*
X169079152Y-67698857D01*
X169079152Y-67698857D02*
X169174390Y-67746476D01*
X169174390Y-67746476D02*
X169222009Y-67794095D01*
X169222009Y-67794095D02*
X169269628Y-67889333D01*
X169269628Y-67889333D02*
X169269628Y-68270285D01*
X169745819Y-66746476D02*
X169745819Y-67317904D01*
X169745819Y-67032190D02*
X168745819Y-67032190D01*
X168745819Y-67032190D02*
X168888676Y-67127428D01*
X168888676Y-67127428D02*
X168983914Y-67222666D01*
X168983914Y-67222666D02*
X169031533Y-67317904D01*
X168745819Y-66413142D02*
X168745819Y-65746476D01*
X168745819Y-65746476D02*
X169745819Y-66175047D01*
X156718095Y-50508819D02*
X156718095Y-51318342D01*
X156718095Y-51318342D02*
X156765714Y-51413580D01*
X156765714Y-51413580D02*
X156813333Y-51461200D01*
X156813333Y-51461200D02*
X156908571Y-51508819D01*
X156908571Y-51508819D02*
X157099047Y-51508819D01*
X157099047Y-51508819D02*
X157194285Y-51461200D01*
X157194285Y-51461200D02*
X157241904Y-51413580D01*
X157241904Y-51413580D02*
X157289523Y-51318342D01*
X157289523Y-51318342D02*
X157289523Y-50508819D01*
X158194285Y-50508819D02*
X158003809Y-50508819D01*
X158003809Y-50508819D02*
X157908571Y-50556438D01*
X157908571Y-50556438D02*
X157860952Y-50604057D01*
X157860952Y-50604057D02*
X157765714Y-50746914D01*
X157765714Y-50746914D02*
X157718095Y-50937390D01*
X157718095Y-50937390D02*
X157718095Y-51318342D01*
X157718095Y-51318342D02*
X157765714Y-51413580D01*
X157765714Y-51413580D02*
X157813333Y-51461200D01*
X157813333Y-51461200D02*
X157908571Y-51508819D01*
X157908571Y-51508819D02*
X158099047Y-51508819D01*
X158099047Y-51508819D02*
X158194285Y-51461200D01*
X158194285Y-51461200D02*
X158241904Y-51413580D01*
X158241904Y-51413580D02*
X158289523Y-51318342D01*
X158289523Y-51318342D02*
X158289523Y-51080247D01*
X158289523Y-51080247D02*
X158241904Y-50985009D01*
X158241904Y-50985009D02*
X158194285Y-50937390D01*
X158194285Y-50937390D02*
X158099047Y-50889771D01*
X158099047Y-50889771D02*
X157908571Y-50889771D01*
X157908571Y-50889771D02*
X157813333Y-50937390D01*
X157813333Y-50937390D02*
X157765714Y-50985009D01*
X157765714Y-50985009D02*
X157718095Y-51080247D01*
X156791819Y-41568666D02*
X156315628Y-41901999D01*
X156791819Y-42140094D02*
X155791819Y-42140094D01*
X155791819Y-42140094D02*
X155791819Y-41759142D01*
X155791819Y-41759142D02*
X155839438Y-41663904D01*
X155839438Y-41663904D02*
X155887057Y-41616285D01*
X155887057Y-41616285D02*
X155982295Y-41568666D01*
X155982295Y-41568666D02*
X156125152Y-41568666D01*
X156125152Y-41568666D02*
X156220390Y-41616285D01*
X156220390Y-41616285D02*
X156268009Y-41663904D01*
X156268009Y-41663904D02*
X156315628Y-41759142D01*
X156315628Y-41759142D02*
X156315628Y-42140094D01*
X156791819Y-40616285D02*
X156791819Y-41187713D01*
X156791819Y-40901999D02*
X155791819Y-40901999D01*
X155791819Y-40901999D02*
X155934676Y-40997237D01*
X155934676Y-40997237D02*
X156029914Y-41092475D01*
X156029914Y-41092475D02*
X156077533Y-41187713D01*
X165841819Y-48368357D02*
X165365628Y-48701690D01*
X165841819Y-48939785D02*
X164841819Y-48939785D01*
X164841819Y-48939785D02*
X164841819Y-48558833D01*
X164841819Y-48558833D02*
X164889438Y-48463595D01*
X164889438Y-48463595D02*
X164937057Y-48415976D01*
X164937057Y-48415976D02*
X165032295Y-48368357D01*
X165032295Y-48368357D02*
X165175152Y-48368357D01*
X165175152Y-48368357D02*
X165270390Y-48415976D01*
X165270390Y-48415976D02*
X165318009Y-48463595D01*
X165318009Y-48463595D02*
X165365628Y-48558833D01*
X165365628Y-48558833D02*
X165365628Y-48939785D01*
X165841819Y-47415976D02*
X165841819Y-47987404D01*
X165841819Y-47701690D02*
X164841819Y-47701690D01*
X164841819Y-47701690D02*
X164984676Y-47796928D01*
X164984676Y-47796928D02*
X165079914Y-47892166D01*
X165079914Y-47892166D02*
X165127533Y-47987404D01*
X165175152Y-46558833D02*
X165841819Y-46558833D01*
X164794200Y-46796928D02*
X165508485Y-47035023D01*
X165508485Y-47035023D02*
X165508485Y-46415976D01*
X161536142Y-53159819D02*
X161202809Y-52683628D01*
X160964714Y-53159819D02*
X160964714Y-52159819D01*
X160964714Y-52159819D02*
X161345666Y-52159819D01*
X161345666Y-52159819D02*
X161440904Y-52207438D01*
X161440904Y-52207438D02*
X161488523Y-52255057D01*
X161488523Y-52255057D02*
X161536142Y-52350295D01*
X161536142Y-52350295D02*
X161536142Y-52493152D01*
X161536142Y-52493152D02*
X161488523Y-52588390D01*
X161488523Y-52588390D02*
X161440904Y-52636009D01*
X161440904Y-52636009D02*
X161345666Y-52683628D01*
X161345666Y-52683628D02*
X160964714Y-52683628D01*
X162488523Y-53159819D02*
X161917095Y-53159819D01*
X162202809Y-53159819D02*
X162202809Y-52159819D01*
X162202809Y-52159819D02*
X162107571Y-52302676D01*
X162107571Y-52302676D02*
X162012333Y-52397914D01*
X162012333Y-52397914D02*
X161917095Y-52445533D01*
X163393285Y-52159819D02*
X162917095Y-52159819D01*
X162917095Y-52159819D02*
X162869476Y-52636009D01*
X162869476Y-52636009D02*
X162917095Y-52588390D01*
X162917095Y-52588390D02*
X163012333Y-52540771D01*
X163012333Y-52540771D02*
X163250428Y-52540771D01*
X163250428Y-52540771D02*
X163345666Y-52588390D01*
X163345666Y-52588390D02*
X163393285Y-52636009D01*
X163393285Y-52636009D02*
X163440904Y-52731247D01*
X163440904Y-52731247D02*
X163440904Y-52969342D01*
X163440904Y-52969342D02*
X163393285Y-53064580D01*
X163393285Y-53064580D02*
X163345666Y-53112200D01*
X163345666Y-53112200D02*
X163250428Y-53159819D01*
X163250428Y-53159819D02*
X163012333Y-53159819D01*
X163012333Y-53159819D02*
X162917095Y-53112200D01*
X162917095Y-53112200D02*
X162869476Y-53064580D01*
X152727819Y-49511357D02*
X152251628Y-49844690D01*
X152727819Y-50082785D02*
X151727819Y-50082785D01*
X151727819Y-50082785D02*
X151727819Y-49701833D01*
X151727819Y-49701833D02*
X151775438Y-49606595D01*
X151775438Y-49606595D02*
X151823057Y-49558976D01*
X151823057Y-49558976D02*
X151918295Y-49511357D01*
X151918295Y-49511357D02*
X152061152Y-49511357D01*
X152061152Y-49511357D02*
X152156390Y-49558976D01*
X152156390Y-49558976D02*
X152204009Y-49606595D01*
X152204009Y-49606595D02*
X152251628Y-49701833D01*
X152251628Y-49701833D02*
X152251628Y-50082785D01*
X152727819Y-48558976D02*
X152727819Y-49130404D01*
X152727819Y-48844690D02*
X151727819Y-48844690D01*
X151727819Y-48844690D02*
X151870676Y-48939928D01*
X151870676Y-48939928D02*
X151965914Y-49035166D01*
X151965914Y-49035166D02*
X152013533Y-49130404D01*
X151823057Y-48178023D02*
X151775438Y-48130404D01*
X151775438Y-48130404D02*
X151727819Y-48035166D01*
X151727819Y-48035166D02*
X151727819Y-47797071D01*
X151727819Y-47797071D02*
X151775438Y-47701833D01*
X151775438Y-47701833D02*
X151823057Y-47654214D01*
X151823057Y-47654214D02*
X151918295Y-47606595D01*
X151918295Y-47606595D02*
X152013533Y-47606595D01*
X152013533Y-47606595D02*
X152156390Y-47654214D01*
X152156390Y-47654214D02*
X152727819Y-48225642D01*
X152727819Y-48225642D02*
X152727819Y-47606595D01*
X171346905Y-37792819D02*
X171346905Y-36792819D01*
X171346905Y-36792819D02*
X171585000Y-36792819D01*
X171585000Y-36792819D02*
X171727857Y-36840438D01*
X171727857Y-36840438D02*
X171823095Y-36935676D01*
X171823095Y-36935676D02*
X171870714Y-37030914D01*
X171870714Y-37030914D02*
X171918333Y-37221390D01*
X171918333Y-37221390D02*
X171918333Y-37364247D01*
X171918333Y-37364247D02*
X171870714Y-37554723D01*
X171870714Y-37554723D02*
X171823095Y-37649961D01*
X171823095Y-37649961D02*
X171727857Y-37745200D01*
X171727857Y-37745200D02*
X171585000Y-37792819D01*
X171585000Y-37792819D02*
X171346905Y-37792819D01*
X172870714Y-37792819D02*
X172299286Y-37792819D01*
X172585000Y-37792819D02*
X172585000Y-36792819D01*
X172585000Y-36792819D02*
X172489762Y-36935676D01*
X172489762Y-36935676D02*
X172394524Y-37030914D01*
X172394524Y-37030914D02*
X172299286Y-37078533D01*
X173569333Y-64468080D02*
X173521714Y-64515700D01*
X173521714Y-64515700D02*
X173378857Y-64563319D01*
X173378857Y-64563319D02*
X173283619Y-64563319D01*
X173283619Y-64563319D02*
X173140762Y-64515700D01*
X173140762Y-64515700D02*
X173045524Y-64420461D01*
X173045524Y-64420461D02*
X172997905Y-64325223D01*
X172997905Y-64325223D02*
X172950286Y-64134747D01*
X172950286Y-64134747D02*
X172950286Y-63991890D01*
X172950286Y-63991890D02*
X172997905Y-63801414D01*
X172997905Y-63801414D02*
X173045524Y-63706176D01*
X173045524Y-63706176D02*
X173140762Y-63610938D01*
X173140762Y-63610938D02*
X173283619Y-63563319D01*
X173283619Y-63563319D02*
X173378857Y-63563319D01*
X173378857Y-63563319D02*
X173521714Y-63610938D01*
X173521714Y-63610938D02*
X173569333Y-63658557D01*
X174474095Y-63563319D02*
X173997905Y-63563319D01*
X173997905Y-63563319D02*
X173950286Y-64039509D01*
X173950286Y-64039509D02*
X173997905Y-63991890D01*
X173997905Y-63991890D02*
X174093143Y-63944271D01*
X174093143Y-63944271D02*
X174331238Y-63944271D01*
X174331238Y-63944271D02*
X174426476Y-63991890D01*
X174426476Y-63991890D02*
X174474095Y-64039509D01*
X174474095Y-64039509D02*
X174521714Y-64134747D01*
X174521714Y-64134747D02*
X174521714Y-64372842D01*
X174521714Y-64372842D02*
X174474095Y-64468080D01*
X174474095Y-64468080D02*
X174426476Y-64515700D01*
X174426476Y-64515700D02*
X174331238Y-64563319D01*
X174331238Y-64563319D02*
X174093143Y-64563319D01*
X174093143Y-64563319D02*
X173997905Y-64515700D01*
X173997905Y-64515700D02*
X173950286Y-64468080D01*
X154394819Y-69802333D02*
X155109104Y-69802333D01*
X155109104Y-69802333D02*
X155251961Y-69849952D01*
X155251961Y-69849952D02*
X155347200Y-69945190D01*
X155347200Y-69945190D02*
X155394819Y-70088047D01*
X155394819Y-70088047D02*
X155394819Y-70183285D01*
X155394819Y-68802333D02*
X155394819Y-69373761D01*
X155394819Y-69088047D02*
X154394819Y-69088047D01*
X154394819Y-69088047D02*
X154537676Y-69183285D01*
X154537676Y-69183285D02*
X154632914Y-69278523D01*
X154632914Y-69278523D02*
X154680533Y-69373761D01*
X151598333Y-35792580D02*
X151550714Y-35840200D01*
X151550714Y-35840200D02*
X151407857Y-35887819D01*
X151407857Y-35887819D02*
X151312619Y-35887819D01*
X151312619Y-35887819D02*
X151169762Y-35840200D01*
X151169762Y-35840200D02*
X151074524Y-35744961D01*
X151074524Y-35744961D02*
X151026905Y-35649723D01*
X151026905Y-35649723D02*
X150979286Y-35459247D01*
X150979286Y-35459247D02*
X150979286Y-35316390D01*
X150979286Y-35316390D02*
X151026905Y-35125914D01*
X151026905Y-35125914D02*
X151074524Y-35030676D01*
X151074524Y-35030676D02*
X151169762Y-34935438D01*
X151169762Y-34935438D02*
X151312619Y-34887819D01*
X151312619Y-34887819D02*
X151407857Y-34887819D01*
X151407857Y-34887819D02*
X151550714Y-34935438D01*
X151550714Y-34935438D02*
X151598333Y-34983057D01*
X152455476Y-35221152D02*
X152455476Y-35887819D01*
X152217381Y-34840200D02*
X151979286Y-35554485D01*
X151979286Y-35554485D02*
X152598333Y-35554485D01*
X157821333Y-61954580D02*
X157773714Y-62002200D01*
X157773714Y-62002200D02*
X157630857Y-62049819D01*
X157630857Y-62049819D02*
X157535619Y-62049819D01*
X157535619Y-62049819D02*
X157392762Y-62002200D01*
X157392762Y-62002200D02*
X157297524Y-61906961D01*
X157297524Y-61906961D02*
X157249905Y-61811723D01*
X157249905Y-61811723D02*
X157202286Y-61621247D01*
X157202286Y-61621247D02*
X157202286Y-61478390D01*
X157202286Y-61478390D02*
X157249905Y-61287914D01*
X157249905Y-61287914D02*
X157297524Y-61192676D01*
X157297524Y-61192676D02*
X157392762Y-61097438D01*
X157392762Y-61097438D02*
X157535619Y-61049819D01*
X157535619Y-61049819D02*
X157630857Y-61049819D01*
X157630857Y-61049819D02*
X157773714Y-61097438D01*
X157773714Y-61097438D02*
X157821333Y-61145057D01*
X158678476Y-61049819D02*
X158488000Y-61049819D01*
X158488000Y-61049819D02*
X158392762Y-61097438D01*
X158392762Y-61097438D02*
X158345143Y-61145057D01*
X158345143Y-61145057D02*
X158249905Y-61287914D01*
X158249905Y-61287914D02*
X158202286Y-61478390D01*
X158202286Y-61478390D02*
X158202286Y-61859342D01*
X158202286Y-61859342D02*
X158249905Y-61954580D01*
X158249905Y-61954580D02*
X158297524Y-62002200D01*
X158297524Y-62002200D02*
X158392762Y-62049819D01*
X158392762Y-62049819D02*
X158583238Y-62049819D01*
X158583238Y-62049819D02*
X158678476Y-62002200D01*
X158678476Y-62002200D02*
X158726095Y-61954580D01*
X158726095Y-61954580D02*
X158773714Y-61859342D01*
X158773714Y-61859342D02*
X158773714Y-61621247D01*
X158773714Y-61621247D02*
X158726095Y-61526009D01*
X158726095Y-61526009D02*
X158678476Y-61478390D01*
X158678476Y-61478390D02*
X158583238Y-61430771D01*
X158583238Y-61430771D02*
X158392762Y-61430771D01*
X158392762Y-61430771D02*
X158297524Y-61478390D01*
X158297524Y-61478390D02*
X158249905Y-61526009D01*
X158249905Y-61526009D02*
X158202286Y-61621247D01*
X166838333Y-55477580D02*
X166790714Y-55525200D01*
X166790714Y-55525200D02*
X166647857Y-55572819D01*
X166647857Y-55572819D02*
X166552619Y-55572819D01*
X166552619Y-55572819D02*
X166409762Y-55525200D01*
X166409762Y-55525200D02*
X166314524Y-55429961D01*
X166314524Y-55429961D02*
X166266905Y-55334723D01*
X166266905Y-55334723D02*
X166219286Y-55144247D01*
X166219286Y-55144247D02*
X166219286Y-55001390D01*
X166219286Y-55001390D02*
X166266905Y-54810914D01*
X166266905Y-54810914D02*
X166314524Y-54715676D01*
X166314524Y-54715676D02*
X166409762Y-54620438D01*
X166409762Y-54620438D02*
X166552619Y-54572819D01*
X166552619Y-54572819D02*
X166647857Y-54572819D01*
X166647857Y-54572819D02*
X166790714Y-54620438D01*
X166790714Y-54620438D02*
X166838333Y-54668057D01*
X167171667Y-54572819D02*
X167838333Y-54572819D01*
X167838333Y-54572819D02*
X167409762Y-55572819D01*
X161056819Y-57792857D02*
X160580628Y-58126190D01*
X161056819Y-58364285D02*
X160056819Y-58364285D01*
X160056819Y-58364285D02*
X160056819Y-57983333D01*
X160056819Y-57983333D02*
X160104438Y-57888095D01*
X160104438Y-57888095D02*
X160152057Y-57840476D01*
X160152057Y-57840476D02*
X160247295Y-57792857D01*
X160247295Y-57792857D02*
X160390152Y-57792857D01*
X160390152Y-57792857D02*
X160485390Y-57840476D01*
X160485390Y-57840476D02*
X160533009Y-57888095D01*
X160533009Y-57888095D02*
X160580628Y-57983333D01*
X160580628Y-57983333D02*
X160580628Y-58364285D01*
X161056819Y-56840476D02*
X161056819Y-57411904D01*
X161056819Y-57126190D02*
X160056819Y-57126190D01*
X160056819Y-57126190D02*
X160199676Y-57221428D01*
X160199676Y-57221428D02*
X160294914Y-57316666D01*
X160294914Y-57316666D02*
X160342533Y-57411904D01*
X161056819Y-55888095D02*
X161056819Y-56459523D01*
X161056819Y-56173809D02*
X160056819Y-56173809D01*
X160056819Y-56173809D02*
X160199676Y-56269047D01*
X160199676Y-56269047D02*
X160294914Y-56364285D01*
X160294914Y-56364285D02*
X160342533Y-56459523D01*
X149203580Y-51696857D02*
X149251200Y-51744476D01*
X149251200Y-51744476D02*
X149298819Y-51887333D01*
X149298819Y-51887333D02*
X149298819Y-51982571D01*
X149298819Y-51982571D02*
X149251200Y-52125428D01*
X149251200Y-52125428D02*
X149155961Y-52220666D01*
X149155961Y-52220666D02*
X149060723Y-52268285D01*
X149060723Y-52268285D02*
X148870247Y-52315904D01*
X148870247Y-52315904D02*
X148727390Y-52315904D01*
X148727390Y-52315904D02*
X148536914Y-52268285D01*
X148536914Y-52268285D02*
X148441676Y-52220666D01*
X148441676Y-52220666D02*
X148346438Y-52125428D01*
X148346438Y-52125428D02*
X148298819Y-51982571D01*
X148298819Y-51982571D02*
X148298819Y-51887333D01*
X148298819Y-51887333D02*
X148346438Y-51744476D01*
X148346438Y-51744476D02*
X148394057Y-51696857D01*
X149298819Y-50744476D02*
X149298819Y-51315904D01*
X149298819Y-51030190D02*
X148298819Y-51030190D01*
X148298819Y-51030190D02*
X148441676Y-51125428D01*
X148441676Y-51125428D02*
X148536914Y-51220666D01*
X148536914Y-51220666D02*
X148584533Y-51315904D01*
X148298819Y-50125428D02*
X148298819Y-50030190D01*
X148298819Y-50030190D02*
X148346438Y-49934952D01*
X148346438Y-49934952D02*
X148394057Y-49887333D01*
X148394057Y-49887333D02*
X148489295Y-49839714D01*
X148489295Y-49839714D02*
X148679771Y-49792095D01*
X148679771Y-49792095D02*
X148917866Y-49792095D01*
X148917866Y-49792095D02*
X149108342Y-49839714D01*
X149108342Y-49839714D02*
X149203580Y-49887333D01*
X149203580Y-49887333D02*
X149251200Y-49934952D01*
X149251200Y-49934952D02*
X149298819Y-50030190D01*
X149298819Y-50030190D02*
X149298819Y-50125428D01*
X149298819Y-50125428D02*
X149251200Y-50220666D01*
X149251200Y-50220666D02*
X149203580Y-50268285D01*
X149203580Y-50268285D02*
X149108342Y-50315904D01*
X149108342Y-50315904D02*
X148917866Y-50363523D01*
X148917866Y-50363523D02*
X148679771Y-50363523D01*
X148679771Y-50363523D02*
X148489295Y-50315904D01*
X148489295Y-50315904D02*
X148394057Y-50268285D01*
X148394057Y-50268285D02*
X148346438Y-50220666D01*
X148346438Y-50220666D02*
X148298819Y-50125428D01*
X154138333Y-62049819D02*
X153805000Y-61573628D01*
X153566905Y-62049819D02*
X153566905Y-61049819D01*
X153566905Y-61049819D02*
X153947857Y-61049819D01*
X153947857Y-61049819D02*
X154043095Y-61097438D01*
X154043095Y-61097438D02*
X154090714Y-61145057D01*
X154090714Y-61145057D02*
X154138333Y-61240295D01*
X154138333Y-61240295D02*
X154138333Y-61383152D01*
X154138333Y-61383152D02*
X154090714Y-61478390D01*
X154090714Y-61478390D02*
X154043095Y-61526009D01*
X154043095Y-61526009D02*
X153947857Y-61573628D01*
X153947857Y-61573628D02*
X153566905Y-61573628D01*
X155043095Y-61049819D02*
X154566905Y-61049819D01*
X154566905Y-61049819D02*
X154519286Y-61526009D01*
X154519286Y-61526009D02*
X154566905Y-61478390D01*
X154566905Y-61478390D02*
X154662143Y-61430771D01*
X154662143Y-61430771D02*
X154900238Y-61430771D01*
X154900238Y-61430771D02*
X154995476Y-61478390D01*
X154995476Y-61478390D02*
X155043095Y-61526009D01*
X155043095Y-61526009D02*
X155090714Y-61621247D01*
X155090714Y-61621247D02*
X155090714Y-61859342D01*
X155090714Y-61859342D02*
X155043095Y-61954580D01*
X155043095Y-61954580D02*
X154995476Y-62002200D01*
X154995476Y-62002200D02*
X154900238Y-62049819D01*
X154900238Y-62049819D02*
X154662143Y-62049819D01*
X154662143Y-62049819D02*
X154566905Y-62002200D01*
X154566905Y-62002200D02*
X154519286Y-61954580D01*
X158743333Y-38580080D02*
X158695714Y-38627700D01*
X158695714Y-38627700D02*
X158552857Y-38675319D01*
X158552857Y-38675319D02*
X158457619Y-38675319D01*
X158457619Y-38675319D02*
X158314762Y-38627700D01*
X158314762Y-38627700D02*
X158219524Y-38532461D01*
X158219524Y-38532461D02*
X158171905Y-38437223D01*
X158171905Y-38437223D02*
X158124286Y-38246747D01*
X158124286Y-38246747D02*
X158124286Y-38103890D01*
X158124286Y-38103890D02*
X158171905Y-37913414D01*
X158171905Y-37913414D02*
X158219524Y-37818176D01*
X158219524Y-37818176D02*
X158314762Y-37722938D01*
X158314762Y-37722938D02*
X158457619Y-37675319D01*
X158457619Y-37675319D02*
X158552857Y-37675319D01*
X158552857Y-37675319D02*
X158695714Y-37722938D01*
X158695714Y-37722938D02*
X158743333Y-37770557D01*
X159695714Y-38675319D02*
X159124286Y-38675319D01*
X159410000Y-38675319D02*
X159410000Y-37675319D01*
X159410000Y-37675319D02*
X159314762Y-37818176D01*
X159314762Y-37818176D02*
X159219524Y-37913414D01*
X159219524Y-37913414D02*
X159124286Y-37961033D01*
X157774819Y-65230333D02*
X158489104Y-65230333D01*
X158489104Y-65230333D02*
X158631961Y-65277952D01*
X158631961Y-65277952D02*
X158727200Y-65373190D01*
X158727200Y-65373190D02*
X158774819Y-65516047D01*
X158774819Y-65516047D02*
X158774819Y-65611285D01*
X157774819Y-64849380D02*
X157774819Y-64230333D01*
X157774819Y-64230333D02*
X158155771Y-64563666D01*
X158155771Y-64563666D02*
X158155771Y-64420809D01*
X158155771Y-64420809D02*
X158203390Y-64325571D01*
X158203390Y-64325571D02*
X158251009Y-64277952D01*
X158251009Y-64277952D02*
X158346247Y-64230333D01*
X158346247Y-64230333D02*
X158584342Y-64230333D01*
X158584342Y-64230333D02*
X158679580Y-64277952D01*
X158679580Y-64277952D02*
X158727200Y-64325571D01*
X158727200Y-64325571D02*
X158774819Y-64420809D01*
X158774819Y-64420809D02*
X158774819Y-64706523D01*
X158774819Y-64706523D02*
X158727200Y-64801761D01*
X158727200Y-64801761D02*
X158679580Y-64849380D01*
X164965142Y-53064580D02*
X164917523Y-53112200D01*
X164917523Y-53112200D02*
X164774666Y-53159819D01*
X164774666Y-53159819D02*
X164679428Y-53159819D01*
X164679428Y-53159819D02*
X164536571Y-53112200D01*
X164536571Y-53112200D02*
X164441333Y-53016961D01*
X164441333Y-53016961D02*
X164393714Y-52921723D01*
X164393714Y-52921723D02*
X164346095Y-52731247D01*
X164346095Y-52731247D02*
X164346095Y-52588390D01*
X164346095Y-52588390D02*
X164393714Y-52397914D01*
X164393714Y-52397914D02*
X164441333Y-52302676D01*
X164441333Y-52302676D02*
X164536571Y-52207438D01*
X164536571Y-52207438D02*
X164679428Y-52159819D01*
X164679428Y-52159819D02*
X164774666Y-52159819D01*
X164774666Y-52159819D02*
X164917523Y-52207438D01*
X164917523Y-52207438D02*
X164965142Y-52255057D01*
X165917523Y-53159819D02*
X165346095Y-53159819D01*
X165631809Y-53159819D02*
X165631809Y-52159819D01*
X165631809Y-52159819D02*
X165536571Y-52302676D01*
X165536571Y-52302676D02*
X165441333Y-52397914D01*
X165441333Y-52397914D02*
X165346095Y-52445533D01*
X166250857Y-52159819D02*
X166869904Y-52159819D01*
X166869904Y-52159819D02*
X166536571Y-52540771D01*
X166536571Y-52540771D02*
X166679428Y-52540771D01*
X166679428Y-52540771D02*
X166774666Y-52588390D01*
X166774666Y-52588390D02*
X166822285Y-52636009D01*
X166822285Y-52636009D02*
X166869904Y-52731247D01*
X166869904Y-52731247D02*
X166869904Y-52969342D01*
X166869904Y-52969342D02*
X166822285Y-53064580D01*
X166822285Y-53064580D02*
X166774666Y-53112200D01*
X166774666Y-53112200D02*
X166679428Y-53159819D01*
X166679428Y-53159819D02*
X166393714Y-53159819D01*
X166393714Y-53159819D02*
X166298476Y-53112200D01*
X166298476Y-53112200D02*
X166250857Y-53064580D01*
X147772333Y-44920819D02*
X147439000Y-44444628D01*
X147200905Y-44920819D02*
X147200905Y-43920819D01*
X147200905Y-43920819D02*
X147581857Y-43920819D01*
X147581857Y-43920819D02*
X147677095Y-43968438D01*
X147677095Y-43968438D02*
X147724714Y-44016057D01*
X147724714Y-44016057D02*
X147772333Y-44111295D01*
X147772333Y-44111295D02*
X147772333Y-44254152D01*
X147772333Y-44254152D02*
X147724714Y-44349390D01*
X147724714Y-44349390D02*
X147677095Y-44397009D01*
X147677095Y-44397009D02*
X147581857Y-44444628D01*
X147581857Y-44444628D02*
X147200905Y-44444628D01*
X148153286Y-44016057D02*
X148200905Y-43968438D01*
X148200905Y-43968438D02*
X148296143Y-43920819D01*
X148296143Y-43920819D02*
X148534238Y-43920819D01*
X148534238Y-43920819D02*
X148629476Y-43968438D01*
X148629476Y-43968438D02*
X148677095Y-44016057D01*
X148677095Y-44016057D02*
X148724714Y-44111295D01*
X148724714Y-44111295D02*
X148724714Y-44206533D01*
X148724714Y-44206533D02*
X148677095Y-44349390D01*
X148677095Y-44349390D02*
X148105667Y-44920819D01*
X148105667Y-44920819D02*
X148724714Y-44920819D01*
X156805333Y-30839580D02*
X156757714Y-30887200D01*
X156757714Y-30887200D02*
X156614857Y-30934819D01*
X156614857Y-30934819D02*
X156519619Y-30934819D01*
X156519619Y-30934819D02*
X156376762Y-30887200D01*
X156376762Y-30887200D02*
X156281524Y-30791961D01*
X156281524Y-30791961D02*
X156233905Y-30696723D01*
X156233905Y-30696723D02*
X156186286Y-30506247D01*
X156186286Y-30506247D02*
X156186286Y-30363390D01*
X156186286Y-30363390D02*
X156233905Y-30172914D01*
X156233905Y-30172914D02*
X156281524Y-30077676D01*
X156281524Y-30077676D02*
X156376762Y-29982438D01*
X156376762Y-29982438D02*
X156519619Y-29934819D01*
X156519619Y-29934819D02*
X156614857Y-29934819D01*
X156614857Y-29934819D02*
X156757714Y-29982438D01*
X156757714Y-29982438D02*
X156805333Y-30030057D01*
X157138667Y-29934819D02*
X157757714Y-29934819D01*
X157757714Y-29934819D02*
X157424381Y-30315771D01*
X157424381Y-30315771D02*
X157567238Y-30315771D01*
X157567238Y-30315771D02*
X157662476Y-30363390D01*
X157662476Y-30363390D02*
X157710095Y-30411009D01*
X157710095Y-30411009D02*
X157757714Y-30506247D01*
X157757714Y-30506247D02*
X157757714Y-30744342D01*
X157757714Y-30744342D02*
X157710095Y-30839580D01*
X157710095Y-30839580D02*
X157662476Y-30887200D01*
X157662476Y-30887200D02*
X157567238Y-30934819D01*
X157567238Y-30934819D02*
X157281524Y-30934819D01*
X157281524Y-30934819D02*
X157186286Y-30887200D01*
X157186286Y-30887200D02*
X157138667Y-30839580D01*
X152505580Y-45854857D02*
X152553200Y-45902476D01*
X152553200Y-45902476D02*
X152600819Y-46045333D01*
X152600819Y-46045333D02*
X152600819Y-46140571D01*
X152600819Y-46140571D02*
X152553200Y-46283428D01*
X152553200Y-46283428D02*
X152457961Y-46378666D01*
X152457961Y-46378666D02*
X152362723Y-46426285D01*
X152362723Y-46426285D02*
X152172247Y-46473904D01*
X152172247Y-46473904D02*
X152029390Y-46473904D01*
X152029390Y-46473904D02*
X151838914Y-46426285D01*
X151838914Y-46426285D02*
X151743676Y-46378666D01*
X151743676Y-46378666D02*
X151648438Y-46283428D01*
X151648438Y-46283428D02*
X151600819Y-46140571D01*
X151600819Y-46140571D02*
X151600819Y-46045333D01*
X151600819Y-46045333D02*
X151648438Y-45902476D01*
X151648438Y-45902476D02*
X151696057Y-45854857D01*
X152600819Y-44902476D02*
X152600819Y-45473904D01*
X152600819Y-45188190D02*
X151600819Y-45188190D01*
X151600819Y-45188190D02*
X151743676Y-45283428D01*
X151743676Y-45283428D02*
X151838914Y-45378666D01*
X151838914Y-45378666D02*
X151886533Y-45473904D01*
X151696057Y-44521523D02*
X151648438Y-44473904D01*
X151648438Y-44473904D02*
X151600819Y-44378666D01*
X151600819Y-44378666D02*
X151600819Y-44140571D01*
X151600819Y-44140571D02*
X151648438Y-44045333D01*
X151648438Y-44045333D02*
X151696057Y-43997714D01*
X151696057Y-43997714D02*
X151791295Y-43950095D01*
X151791295Y-43950095D02*
X151886533Y-43950095D01*
X151886533Y-43950095D02*
X152029390Y-43997714D01*
X152029390Y-43997714D02*
X152600819Y-44569142D01*
X152600819Y-44569142D02*
X152600819Y-43950095D01*
X159505333Y-33722319D02*
X159172000Y-33246128D01*
X158933905Y-33722319D02*
X158933905Y-32722319D01*
X158933905Y-32722319D02*
X159314857Y-32722319D01*
X159314857Y-32722319D02*
X159410095Y-32769938D01*
X159410095Y-32769938D02*
X159457714Y-32817557D01*
X159457714Y-32817557D02*
X159505333Y-32912795D01*
X159505333Y-32912795D02*
X159505333Y-33055652D01*
X159505333Y-33055652D02*
X159457714Y-33150890D01*
X159457714Y-33150890D02*
X159410095Y-33198509D01*
X159410095Y-33198509D02*
X159314857Y-33246128D01*
X159314857Y-33246128D02*
X158933905Y-33246128D01*
X159838667Y-32722319D02*
X160457714Y-32722319D01*
X160457714Y-32722319D02*
X160124381Y-33103271D01*
X160124381Y-33103271D02*
X160267238Y-33103271D01*
X160267238Y-33103271D02*
X160362476Y-33150890D01*
X160362476Y-33150890D02*
X160410095Y-33198509D01*
X160410095Y-33198509D02*
X160457714Y-33293747D01*
X160457714Y-33293747D02*
X160457714Y-33531842D01*
X160457714Y-33531842D02*
X160410095Y-33627080D01*
X160410095Y-33627080D02*
X160362476Y-33674700D01*
X160362476Y-33674700D02*
X160267238Y-33722319D01*
X160267238Y-33722319D02*
X159981524Y-33722319D01*
X159981524Y-33722319D02*
X159886286Y-33674700D01*
X159886286Y-33674700D02*
X159838667Y-33627080D01*
X156805333Y-32871580D02*
X156757714Y-32919200D01*
X156757714Y-32919200D02*
X156614857Y-32966819D01*
X156614857Y-32966819D02*
X156519619Y-32966819D01*
X156519619Y-32966819D02*
X156376762Y-32919200D01*
X156376762Y-32919200D02*
X156281524Y-32823961D01*
X156281524Y-32823961D02*
X156233905Y-32728723D01*
X156233905Y-32728723D02*
X156186286Y-32538247D01*
X156186286Y-32538247D02*
X156186286Y-32395390D01*
X156186286Y-32395390D02*
X156233905Y-32204914D01*
X156233905Y-32204914D02*
X156281524Y-32109676D01*
X156281524Y-32109676D02*
X156376762Y-32014438D01*
X156376762Y-32014438D02*
X156519619Y-31966819D01*
X156519619Y-31966819D02*
X156614857Y-31966819D01*
X156614857Y-31966819D02*
X156757714Y-32014438D01*
X156757714Y-32014438D02*
X156805333Y-32062057D01*
X157186286Y-32062057D02*
X157233905Y-32014438D01*
X157233905Y-32014438D02*
X157329143Y-31966819D01*
X157329143Y-31966819D02*
X157567238Y-31966819D01*
X157567238Y-31966819D02*
X157662476Y-32014438D01*
X157662476Y-32014438D02*
X157710095Y-32062057D01*
X157710095Y-32062057D02*
X157757714Y-32157295D01*
X157757714Y-32157295D02*
X157757714Y-32252533D01*
X157757714Y-32252533D02*
X157710095Y-32395390D01*
X157710095Y-32395390D02*
X157138667Y-32966819D01*
X157138667Y-32966819D02*
X157757714Y-32966819D01*
X173609095Y-67891819D02*
X173609095Y-66891819D01*
X173609095Y-67368009D02*
X174180523Y-67368009D01*
X174180523Y-67891819D02*
X174180523Y-66891819D01*
X175085285Y-67225152D02*
X175085285Y-67891819D01*
X174847190Y-66844200D02*
X174609095Y-67558485D01*
X174609095Y-67558485D02*
X175228142Y-67558485D01*
X169632333Y-64563319D02*
X169299000Y-64087128D01*
X169060905Y-64563319D02*
X169060905Y-63563319D01*
X169060905Y-63563319D02*
X169441857Y-63563319D01*
X169441857Y-63563319D02*
X169537095Y-63610938D01*
X169537095Y-63610938D02*
X169584714Y-63658557D01*
X169584714Y-63658557D02*
X169632333Y-63753795D01*
X169632333Y-63753795D02*
X169632333Y-63896652D01*
X169632333Y-63896652D02*
X169584714Y-63991890D01*
X169584714Y-63991890D02*
X169537095Y-64039509D01*
X169537095Y-64039509D02*
X169441857Y-64087128D01*
X169441857Y-64087128D02*
X169060905Y-64087128D01*
X170489476Y-63896652D02*
X170489476Y-64563319D01*
X170251381Y-63515700D02*
X170013286Y-64229985D01*
X170013286Y-64229985D02*
X170632333Y-64229985D01*
X175206819Y-60745666D02*
X174730628Y-61078999D01*
X175206819Y-61317094D02*
X174206819Y-61317094D01*
X174206819Y-61317094D02*
X174206819Y-60936142D01*
X174206819Y-60936142D02*
X174254438Y-60840904D01*
X174254438Y-60840904D02*
X174302057Y-60793285D01*
X174302057Y-60793285D02*
X174397295Y-60745666D01*
X174397295Y-60745666D02*
X174540152Y-60745666D01*
X174540152Y-60745666D02*
X174635390Y-60793285D01*
X174635390Y-60793285D02*
X174683009Y-60840904D01*
X174683009Y-60840904D02*
X174730628Y-60936142D01*
X174730628Y-60936142D02*
X174730628Y-61317094D01*
X174635390Y-60174237D02*
X174587771Y-60269475D01*
X174587771Y-60269475D02*
X174540152Y-60317094D01*
X174540152Y-60317094D02*
X174444914Y-60364713D01*
X174444914Y-60364713D02*
X174397295Y-60364713D01*
X174397295Y-60364713D02*
X174302057Y-60317094D01*
X174302057Y-60317094D02*
X174254438Y-60269475D01*
X174254438Y-60269475D02*
X174206819Y-60174237D01*
X174206819Y-60174237D02*
X174206819Y-59983761D01*
X174206819Y-59983761D02*
X174254438Y-59888523D01*
X174254438Y-59888523D02*
X174302057Y-59840904D01*
X174302057Y-59840904D02*
X174397295Y-59793285D01*
X174397295Y-59793285D02*
X174444914Y-59793285D01*
X174444914Y-59793285D02*
X174540152Y-59840904D01*
X174540152Y-59840904D02*
X174587771Y-59888523D01*
X174587771Y-59888523D02*
X174635390Y-59983761D01*
X174635390Y-59983761D02*
X174635390Y-60174237D01*
X174635390Y-60174237D02*
X174683009Y-60269475D01*
X174683009Y-60269475D02*
X174730628Y-60317094D01*
X174730628Y-60317094D02*
X174825866Y-60364713D01*
X174825866Y-60364713D02*
X175016342Y-60364713D01*
X175016342Y-60364713D02*
X175111580Y-60317094D01*
X175111580Y-60317094D02*
X175159200Y-60269475D01*
X175159200Y-60269475D02*
X175206819Y-60174237D01*
X175206819Y-60174237D02*
X175206819Y-59983761D01*
X175206819Y-59983761D02*
X175159200Y-59888523D01*
X175159200Y-59888523D02*
X175111580Y-59840904D01*
X175111580Y-59840904D02*
X175016342Y-59793285D01*
X175016342Y-59793285D02*
X174825866Y-59793285D01*
X174825866Y-59793285D02*
X174730628Y-59840904D01*
X174730628Y-59840904D02*
X174683009Y-59888523D01*
X174683009Y-59888523D02*
X174635390Y-59983761D01*
D12*
X167470000Y-36331000D02*
G75*
G02*
X167270000Y-36331000I-100000J0D01*
G01*
X167270000Y-36331000D02*
G75*
G02*
X167470000Y-36331000I100000J0D01*
G01*
D13*
X169800000Y-33549000D02*
X169800000Y-35629000D01*
X169800000Y-35629000D02*
X169250000Y-35629000D01*
X162300000Y-33549000D02*
X162300000Y-35629000D01*
X162300000Y-35629000D02*
X162850000Y-35629000D01*
X169800000Y-30729000D02*
X162300000Y-30729000D01*
D14*
X148194500Y-58166724D02*
X148194500Y-57657276D01*
X149239500Y-58166724D02*
X149239500Y-57657276D01*
X162813276Y-43393000D02*
X163322724Y-43393000D01*
X162813276Y-44438000D02*
X163322724Y-44438000D01*
X147376000Y-38018000D02*
X147376000Y-40878000D01*
X149296000Y-38018000D02*
X147376000Y-38018000D01*
X149296000Y-40878000D02*
X149296000Y-38018000D01*
X159658267Y-43405500D02*
X159365733Y-43405500D01*
X159658267Y-44425500D02*
X159365733Y-44425500D01*
X151778000Y-38400000D02*
X150978000Y-38400000D01*
X151778000Y-38400000D02*
X152578000Y-38400000D01*
X151778000Y-41520000D02*
X150978000Y-41520000D01*
X151778000Y-41520000D02*
X152578000Y-41520000D01*
X150478000Y-38450000D02*
X150238000Y-38120000D01*
X150718000Y-38120000D01*
X150478000Y-38450000D01*
G36*
X150478000Y-38450000D02*
G01*
X150238000Y-38120000D01*
X150718000Y-38120000D01*
X150478000Y-38450000D01*
G37*
X153943267Y-52068000D02*
X153650733Y-52068000D01*
X153943267Y-53088000D02*
X153650733Y-53088000D01*
X169317500Y-56341500D02*
X167367500Y-56341500D01*
X169317500Y-56341500D02*
X171267500Y-56341500D01*
X169317500Y-61461500D02*
X167367500Y-61461500D01*
X169317500Y-61461500D02*
X171267500Y-61461500D01*
X166617500Y-56436500D02*
X166377500Y-56106500D01*
X166857500Y-56106500D01*
X166617500Y-56436500D01*
G36*
X166617500Y-56436500D02*
G01*
X166377500Y-56106500D01*
X166857500Y-56106500D01*
X166617500Y-56436500D01*
G37*
X155956724Y-64247500D02*
X155447276Y-64247500D01*
X155956724Y-65292500D02*
X155447276Y-65292500D01*
X168161000Y-39628000D02*
X168161000Y-40648000D01*
X168161000Y-40648000D02*
X169761000Y-40648000D01*
X168161000Y-46728000D02*
X169761000Y-46728000D01*
X168161000Y-47748000D02*
X168161000Y-46728000D01*
X169761000Y-40648000D02*
X169761000Y-41928000D01*
X169761000Y-45448000D02*
X166871000Y-45448000D01*
X169761000Y-46728000D02*
X169761000Y-45448000D01*
X172411000Y-39628000D02*
X168161000Y-39628000D01*
X172411000Y-47748000D02*
X168161000Y-47748000D01*
X175981000Y-46028000D02*
X175981000Y-41348000D01*
X163942500Y-60934224D02*
X163942500Y-60424776D01*
X164987500Y-60934224D02*
X164987500Y-60424776D01*
X173354276Y-54696000D02*
X173863724Y-54696000D01*
X173354276Y-55741000D02*
X173863724Y-55741000D01*
X168855000Y-49343000D02*
X168855000Y-52003000D01*
X171455000Y-49343000D02*
X168855000Y-49343000D01*
X171455000Y-49343000D02*
X171455000Y-52003000D01*
X171455000Y-52003000D02*
X168855000Y-52003000D01*
X172725000Y-49343000D02*
X174055000Y-49343000D01*
X174055000Y-49343000D02*
X174055000Y-50673000D01*
X150446500Y-61747000D02*
X149796500Y-61747000D01*
X150446500Y-61747000D02*
X151096500Y-61747000D01*
X150446500Y-64867000D02*
X149796500Y-64867000D01*
X150446500Y-64867000D02*
X151096500Y-64867000D01*
X151849000Y-65147000D02*
X151369000Y-65147000D01*
X151609000Y-64817000D01*
X151849000Y-65147000D01*
G36*
X151849000Y-65147000D02*
G01*
X151369000Y-65147000D01*
X151609000Y-64817000D01*
X151849000Y-65147000D01*
G37*
X153735000Y-53801500D02*
X151785000Y-53801500D01*
X153735000Y-53801500D02*
X155685000Y-53801500D01*
X153735000Y-58921500D02*
X151785000Y-58921500D01*
X153735000Y-58921500D02*
X155685000Y-58921500D01*
X151035000Y-53896500D02*
X150795000Y-53566500D01*
X151275000Y-53566500D01*
X151035000Y-53896500D01*
G36*
X151035000Y-53896500D02*
G01*
X150795000Y-53566500D01*
X151275000Y-53566500D01*
X151035000Y-53896500D01*
G37*
X163955000Y-57269767D02*
X163955000Y-56977233D01*
X164975000Y-57269767D02*
X164975000Y-56977233D01*
X156971276Y-52055500D02*
X157480724Y-52055500D01*
X156971276Y-53100500D02*
X157480724Y-53100500D01*
X154713500Y-34567500D02*
X153913500Y-34567500D01*
X154713500Y-34567500D02*
X155513500Y-34567500D01*
X154713500Y-37687500D02*
X153913500Y-37687500D01*
X154713500Y-37687500D02*
X155513500Y-37687500D01*
X156253500Y-37967500D02*
X155773500Y-37967500D01*
X156013500Y-37637500D01*
X156253500Y-37967500D01*
G36*
X156253500Y-37967500D02*
G01*
X155773500Y-37967500D01*
X156013500Y-37637500D01*
X156253500Y-37967500D01*
G37*
X166990500Y-65785276D02*
X166990500Y-66294724D01*
X168035500Y-65785276D02*
X168035500Y-66294724D01*
X159030500Y-45012000D02*
X157080500Y-45012000D01*
X159030500Y-45012000D02*
X160980500Y-45012000D01*
X159030500Y-50132000D02*
X157080500Y-50132000D01*
X159030500Y-50132000D02*
X160980500Y-50132000D01*
X156330500Y-45107000D02*
X156090500Y-44777000D01*
X156570500Y-44777000D01*
X156330500Y-45107000D01*
G36*
X156330500Y-45107000D02*
G01*
X156090500Y-44777000D01*
X156570500Y-44777000D01*
X156330500Y-45107000D01*
G37*
X154274500Y-41926724D02*
X154274500Y-41417276D01*
X155319500Y-41926724D02*
X155319500Y-41417276D01*
X163434500Y-47470776D02*
X163434500Y-47980224D01*
X164479500Y-47470776D02*
X164479500Y-47980224D01*
X161620276Y-50785500D02*
X162129724Y-50785500D01*
X161620276Y-51830500D02*
X162129724Y-51830500D01*
X153528500Y-49123224D02*
X153528500Y-48613776D01*
X154573500Y-49123224D02*
X154573500Y-48613776D01*
X166296000Y-36846000D02*
X166296000Y-38846000D01*
X166296000Y-36846000D02*
X170306000Y-36846000D01*
X166296000Y-38846000D02*
X170306000Y-38846000D01*
X173335733Y-62074500D02*
X173628267Y-62074500D01*
X173335733Y-63094500D02*
X173628267Y-63094500D01*
X156414000Y-71307000D02*
X156414000Y-69977000D01*
X157744000Y-71307000D02*
X156414000Y-71307000D01*
X159014000Y-68647000D02*
X166694000Y-68647000D01*
X159014000Y-71307000D02*
X159014000Y-68647000D01*
X159014000Y-71307000D02*
X166694000Y-71307000D01*
X166694000Y-71307000D02*
X166694000Y-68647000D01*
X150794767Y-36447000D02*
X150502233Y-36447000D01*
X150794767Y-37467000D02*
X150502233Y-37467000D01*
X158196233Y-59561000D02*
X158488767Y-59561000D01*
X158196233Y-60581000D02*
X158488767Y-60581000D01*
X170072267Y-54708500D02*
X169779733Y-54708500D01*
X170072267Y-55728500D02*
X169779733Y-55728500D01*
X158481500Y-56133276D02*
X158481500Y-56642724D01*
X159526500Y-56133276D02*
X159526500Y-56642724D01*
X148207000Y-54475767D02*
X148207000Y-54183233D01*
X149227000Y-54475767D02*
X149227000Y-54183233D01*
X154534776Y-59548500D02*
X155044224Y-59548500D01*
X154534776Y-60593500D02*
X155044224Y-60593500D01*
X159056267Y-36186500D02*
X158763733Y-36186500D01*
X159056267Y-37206500D02*
X158763733Y-37206500D01*
X159320000Y-66227000D02*
X159320000Y-64897000D01*
X160650000Y-66227000D02*
X159320000Y-66227000D01*
X161920000Y-63567000D02*
X164520000Y-63567000D01*
X161920000Y-66227000D02*
X161920000Y-63567000D01*
X161920000Y-66227000D02*
X164520000Y-66227000D01*
X164520000Y-66227000D02*
X164520000Y-63567000D01*
X165308233Y-50798000D02*
X165600767Y-50798000D01*
X165308233Y-51818000D02*
X165600767Y-51818000D01*
X148573276Y-42419500D02*
X149082724Y-42419500D01*
X148573276Y-43464500D02*
X149082724Y-43464500D01*
X154191733Y-30852500D02*
X154484267Y-30852500D01*
X154191733Y-31872500D02*
X154484267Y-31872500D01*
X153541000Y-45458767D02*
X153541000Y-45166233D01*
X154561000Y-45458767D02*
X154561000Y-45166233D01*
X159164724Y-34142000D02*
X158655276Y-34142000D01*
X159164724Y-35187000D02*
X158655276Y-35187000D01*
X154191733Y-32630500D02*
X154484267Y-32630500D01*
X154191733Y-33650500D02*
X154484267Y-33650500D01*
X169671276Y-62062000D02*
X170180724Y-62062000D01*
X169671276Y-63107000D02*
X170180724Y-63107000D01*
X174102500Y-57757776D02*
X174102500Y-58267224D01*
X175147500Y-57757776D02*
X175147500Y-58267224D01*
M02*
