G04 #@! TF.GenerationSoftware,KiCad,Pcbnew,8.0.1*
G04 #@! TF.CreationDate,2024-12-01T21:33:56-08:00*
G04 #@! TF.ProjectId,ledFlicker,6c656446-6c69-4636-9b65-722e6b696361,rev?*
G04 #@! TF.SameCoordinates,Original*
G04 #@! TF.FileFunction,Copper,L2,Bot*
G04 #@! TF.FilePolarity,Positive*
%FSLAX46Y46*%
G04 Gerber Fmt 4.6, Leading zero omitted, Abs format (unit mm)*
G04 Created by KiCad (PCBNEW 8.0.1) date 2024-12-01 21:33:56*
%MOMM*%
%LPD*%
G01*
G04 APERTURE LIST*
G04 #@! TA.AperFunction,EtchedComponent*
%ADD10C,0.010000*%
G04 #@! TD*
G04 #@! TA.AperFunction,ComponentPad*
%ADD11O,1.010000X1.900000*%
G04 #@! TD*
G04 #@! TA.AperFunction,ComponentPad*
%ADD12C,1.100000*%
G04 #@! TD*
G04 #@! TA.AperFunction,ComponentPad*
%ADD13R,1.700000X1.700000*%
G04 #@! TD*
G04 #@! TA.AperFunction,ComponentPad*
%ADD14O,1.700000X1.700000*%
G04 #@! TD*
G04 #@! TA.AperFunction,ViaPad*
%ADD15C,0.600000*%
G04 #@! TD*
G04 #@! TA.AperFunction,Conductor*
%ADD16C,0.200000*%
G04 #@! TD*
G04 APERTURE END LIST*
D10*
X170249000Y-31229500D02*
X170275000Y-31231500D01*
X170301000Y-31235500D01*
X170327000Y-31239500D01*
X170353000Y-31246500D01*
X170378000Y-31253500D01*
X170403000Y-31262500D01*
X170427000Y-31272500D01*
X170451000Y-31283500D01*
X170474000Y-31296500D01*
X170496000Y-31310500D01*
X170518000Y-31324500D01*
X170539000Y-31340500D01*
X170559000Y-31358500D01*
X170578000Y-31376500D01*
X170596000Y-31395500D01*
X170613000Y-31415500D01*
X170629000Y-31436500D01*
X170644000Y-31457500D01*
X170658000Y-31480500D01*
X170670000Y-31503500D01*
X170682000Y-31527500D01*
X170692000Y-31551500D01*
X170700000Y-31576500D01*
X170708000Y-31601500D01*
X170714000Y-31627500D01*
X170719000Y-31652500D01*
X170722000Y-31678500D01*
X170724000Y-31705500D01*
X170725000Y-31733500D01*
X170725000Y-31734000D01*
X170725000Y-32624500D01*
X170724000Y-32652500D01*
X170722000Y-32679500D01*
X170719000Y-32705500D01*
X170714000Y-32730500D01*
X170708000Y-32756500D01*
X170700000Y-32781500D01*
X170692000Y-32806500D01*
X170682000Y-32830500D01*
X170670000Y-32854500D01*
X170658000Y-32877500D01*
X170644000Y-32900500D01*
X170629000Y-32921500D01*
X170613000Y-32942500D01*
X170596000Y-32962500D01*
X170578000Y-32981500D01*
X170559000Y-32999500D01*
X170539000Y-33017500D01*
X170518000Y-33033500D01*
X170496000Y-33047500D01*
X170474000Y-33061500D01*
X170451000Y-33074500D01*
X170427000Y-33085500D01*
X170403000Y-33095500D01*
X170378000Y-33104500D01*
X170353000Y-33111500D01*
X170327000Y-33118500D01*
X170301000Y-33122500D01*
X170275000Y-33126500D01*
X170249000Y-33128500D01*
X170225000Y-33128500D01*
X170196000Y-33128500D01*
X170169000Y-33126500D01*
X170143000Y-33122500D01*
X170117000Y-33117500D01*
X170091000Y-33111500D01*
X170066000Y-33104500D01*
X170041000Y-33095500D01*
X170016000Y-33085500D01*
X169992000Y-33073500D01*
X169969000Y-33061500D01*
X169946000Y-33047500D01*
X169924000Y-33032500D01*
X169903000Y-33015500D01*
X169883000Y-32998500D01*
X169864000Y-32980500D01*
X169845000Y-32961500D01*
X169828000Y-32940500D01*
X169812000Y-32919500D01*
X169797000Y-32897500D01*
X169783000Y-32875500D01*
X169770000Y-32851500D01*
X169759000Y-32827500D01*
X169749000Y-32803500D01*
X169740000Y-32778500D01*
X169732000Y-32752500D01*
X169726000Y-32727500D01*
X169721000Y-32700500D01*
X169718000Y-32674500D01*
X169716000Y-32648500D01*
X169715000Y-32624500D01*
X169715000Y-31733500D01*
X169716000Y-31709500D01*
X169718000Y-31683500D01*
X169721000Y-31657500D01*
X169726000Y-31630500D01*
X169732000Y-31605500D01*
X169740000Y-31579500D01*
X169749000Y-31554500D01*
X169759000Y-31530500D01*
X169770000Y-31506500D01*
X169783000Y-31482500D01*
X169797000Y-31460500D01*
X169812000Y-31438500D01*
X169828000Y-31417500D01*
X169845000Y-31396500D01*
X169864000Y-31377500D01*
X169883000Y-31359500D01*
X169903000Y-31342500D01*
X169924000Y-31325500D01*
X169946000Y-31310500D01*
X169969000Y-31296500D01*
X169992000Y-31284500D01*
X170016000Y-31272500D01*
X170041000Y-31262500D01*
X170066000Y-31253500D01*
X170091000Y-31246500D01*
X170117000Y-31240500D01*
X170143000Y-31235500D01*
X170169000Y-31231500D01*
X170196000Y-31229500D01*
X170225000Y-31228500D01*
X170249000Y-31229500D01*
G04 #@! TA.AperFunction,EtchedComponent*
G36*
X170249000Y-31229500D02*
G01*
X170275000Y-31231500D01*
X170301000Y-31235500D01*
X170327000Y-31239500D01*
X170353000Y-31246500D01*
X170378000Y-31253500D01*
X170403000Y-31262500D01*
X170427000Y-31272500D01*
X170451000Y-31283500D01*
X170474000Y-31296500D01*
X170496000Y-31310500D01*
X170518000Y-31324500D01*
X170539000Y-31340500D01*
X170559000Y-31358500D01*
X170578000Y-31376500D01*
X170596000Y-31395500D01*
X170613000Y-31415500D01*
X170629000Y-31436500D01*
X170644000Y-31457500D01*
X170658000Y-31480500D01*
X170670000Y-31503500D01*
X170682000Y-31527500D01*
X170692000Y-31551500D01*
X170700000Y-31576500D01*
X170708000Y-31601500D01*
X170714000Y-31627500D01*
X170719000Y-31652500D01*
X170722000Y-31678500D01*
X170724000Y-31705500D01*
X170725000Y-31733500D01*
X170725000Y-31734000D01*
X170725000Y-32624500D01*
X170724000Y-32652500D01*
X170722000Y-32679500D01*
X170719000Y-32705500D01*
X170714000Y-32730500D01*
X170708000Y-32756500D01*
X170700000Y-32781500D01*
X170692000Y-32806500D01*
X170682000Y-32830500D01*
X170670000Y-32854500D01*
X170658000Y-32877500D01*
X170644000Y-32900500D01*
X170629000Y-32921500D01*
X170613000Y-32942500D01*
X170596000Y-32962500D01*
X170578000Y-32981500D01*
X170559000Y-32999500D01*
X170539000Y-33017500D01*
X170518000Y-33033500D01*
X170496000Y-33047500D01*
X170474000Y-33061500D01*
X170451000Y-33074500D01*
X170427000Y-33085500D01*
X170403000Y-33095500D01*
X170378000Y-33104500D01*
X170353000Y-33111500D01*
X170327000Y-33118500D01*
X170301000Y-33122500D01*
X170275000Y-33126500D01*
X170249000Y-33128500D01*
X170225000Y-33128500D01*
X170196000Y-33128500D01*
X170169000Y-33126500D01*
X170143000Y-33122500D01*
X170117000Y-33117500D01*
X170091000Y-33111500D01*
X170066000Y-33104500D01*
X170041000Y-33095500D01*
X170016000Y-33085500D01*
X169992000Y-33073500D01*
X169969000Y-33061500D01*
X169946000Y-33047500D01*
X169924000Y-33032500D01*
X169903000Y-33015500D01*
X169883000Y-32998500D01*
X169864000Y-32980500D01*
X169845000Y-32961500D01*
X169828000Y-32940500D01*
X169812000Y-32919500D01*
X169797000Y-32897500D01*
X169783000Y-32875500D01*
X169770000Y-32851500D01*
X169759000Y-32827500D01*
X169749000Y-32803500D01*
X169740000Y-32778500D01*
X169732000Y-32752500D01*
X169726000Y-32727500D01*
X169721000Y-32700500D01*
X169718000Y-32674500D01*
X169716000Y-32648500D01*
X169715000Y-32624500D01*
X169715000Y-31733500D01*
X169716000Y-31709500D01*
X169718000Y-31683500D01*
X169721000Y-31657500D01*
X169726000Y-31630500D01*
X169732000Y-31605500D01*
X169740000Y-31579500D01*
X169749000Y-31554500D01*
X169759000Y-31530500D01*
X169770000Y-31506500D01*
X169783000Y-31482500D01*
X169797000Y-31460500D01*
X169812000Y-31438500D01*
X169828000Y-31417500D01*
X169845000Y-31396500D01*
X169864000Y-31377500D01*
X169883000Y-31359500D01*
X169903000Y-31342500D01*
X169924000Y-31325500D01*
X169946000Y-31310500D01*
X169969000Y-31296500D01*
X169992000Y-31284500D01*
X170016000Y-31272500D01*
X170041000Y-31262500D01*
X170066000Y-31253500D01*
X170091000Y-31246500D01*
X170117000Y-31240500D01*
X170143000Y-31235500D01*
X170169000Y-31231500D01*
X170196000Y-31229500D01*
X170225000Y-31228500D01*
X170249000Y-31229500D01*
G37*
G04 #@! TD.AperFunction*
X161904000Y-31229500D02*
X161931000Y-31231500D01*
X161957000Y-31235500D01*
X161983000Y-31240500D01*
X162009000Y-31246500D01*
X162034000Y-31253500D01*
X162059000Y-31262500D01*
X162084000Y-31272500D01*
X162108000Y-31284500D01*
X162131000Y-31296500D01*
X162154000Y-31310500D01*
X162176000Y-31325500D01*
X162197000Y-31342500D01*
X162217000Y-31359500D01*
X162236000Y-31377500D01*
X162255000Y-31396500D01*
X162272000Y-31417500D01*
X162288000Y-31438500D01*
X162303000Y-31460500D01*
X162317000Y-31482500D01*
X162330000Y-31506500D01*
X162341000Y-31530500D01*
X162351000Y-31554500D01*
X162360000Y-31579500D01*
X162368000Y-31605500D01*
X162374000Y-31630500D01*
X162379000Y-31657500D01*
X162382000Y-31683500D01*
X162384000Y-31709500D01*
X162385000Y-31733500D01*
X162385000Y-31734000D01*
X162385000Y-32624500D01*
X162384000Y-32648500D01*
X162382000Y-32674500D01*
X162379000Y-32700500D01*
X162374000Y-32727500D01*
X162368000Y-32752500D01*
X162360000Y-32778500D01*
X162351000Y-32803500D01*
X162341000Y-32827500D01*
X162330000Y-32851500D01*
X162317000Y-32875500D01*
X162303000Y-32897500D01*
X162288000Y-32919500D01*
X162272000Y-32940500D01*
X162255000Y-32961500D01*
X162236000Y-32980500D01*
X162217000Y-32998500D01*
X162197000Y-33015500D01*
X162176000Y-33032500D01*
X162154000Y-33047500D01*
X162131000Y-33061500D01*
X162108000Y-33073500D01*
X162084000Y-33085500D01*
X162059000Y-33095500D01*
X162034000Y-33104500D01*
X162009000Y-33111500D01*
X161983000Y-33117500D01*
X161957000Y-33122500D01*
X161931000Y-33126500D01*
X161904000Y-33128500D01*
X161875000Y-33128500D01*
X161851000Y-33128500D01*
X161825000Y-33126500D01*
X161799000Y-33122500D01*
X161773000Y-33118500D01*
X161747000Y-33111500D01*
X161722000Y-33104500D01*
X161697000Y-33095500D01*
X161673000Y-33085500D01*
X161649000Y-33074500D01*
X161626000Y-33061500D01*
X161604000Y-33047500D01*
X161582000Y-33033500D01*
X161561000Y-33017500D01*
X161541000Y-32999500D01*
X161522000Y-32981500D01*
X161504000Y-32962500D01*
X161487000Y-32942500D01*
X161471000Y-32921500D01*
X161456000Y-32900500D01*
X161442000Y-32877500D01*
X161430000Y-32854500D01*
X161418000Y-32830500D01*
X161408000Y-32806500D01*
X161400000Y-32781500D01*
X161392000Y-32756500D01*
X161386000Y-32730500D01*
X161381000Y-32705500D01*
X161378000Y-32679500D01*
X161376000Y-32652500D01*
X161375000Y-32624500D01*
X161375000Y-31733500D01*
X161376000Y-31705500D01*
X161378000Y-31678500D01*
X161381000Y-31652500D01*
X161386000Y-31627500D01*
X161392000Y-31601500D01*
X161400000Y-31576500D01*
X161408000Y-31551500D01*
X161418000Y-31527500D01*
X161430000Y-31503500D01*
X161442000Y-31480500D01*
X161456000Y-31457500D01*
X161471000Y-31436500D01*
X161487000Y-31415500D01*
X161504000Y-31395500D01*
X161522000Y-31376500D01*
X161541000Y-31358500D01*
X161561000Y-31340500D01*
X161582000Y-31324500D01*
X161604000Y-31310500D01*
X161626000Y-31296500D01*
X161649000Y-31283500D01*
X161673000Y-31272500D01*
X161697000Y-31262500D01*
X161722000Y-31253500D01*
X161747000Y-31246500D01*
X161773000Y-31239500D01*
X161799000Y-31235500D01*
X161825000Y-31231500D01*
X161851000Y-31229500D01*
X161875000Y-31228500D01*
X161904000Y-31229500D01*
G04 #@! TA.AperFunction,EtchedComponent*
G36*
X161904000Y-31229500D02*
G01*
X161931000Y-31231500D01*
X161957000Y-31235500D01*
X161983000Y-31240500D01*
X162009000Y-31246500D01*
X162034000Y-31253500D01*
X162059000Y-31262500D01*
X162084000Y-31272500D01*
X162108000Y-31284500D01*
X162131000Y-31296500D01*
X162154000Y-31310500D01*
X162176000Y-31325500D01*
X162197000Y-31342500D01*
X162217000Y-31359500D01*
X162236000Y-31377500D01*
X162255000Y-31396500D01*
X162272000Y-31417500D01*
X162288000Y-31438500D01*
X162303000Y-31460500D01*
X162317000Y-31482500D01*
X162330000Y-31506500D01*
X162341000Y-31530500D01*
X162351000Y-31554500D01*
X162360000Y-31579500D01*
X162368000Y-31605500D01*
X162374000Y-31630500D01*
X162379000Y-31657500D01*
X162382000Y-31683500D01*
X162384000Y-31709500D01*
X162385000Y-31733500D01*
X162385000Y-31734000D01*
X162385000Y-32624500D01*
X162384000Y-32648500D01*
X162382000Y-32674500D01*
X162379000Y-32700500D01*
X162374000Y-32727500D01*
X162368000Y-32752500D01*
X162360000Y-32778500D01*
X162351000Y-32803500D01*
X162341000Y-32827500D01*
X162330000Y-32851500D01*
X162317000Y-32875500D01*
X162303000Y-32897500D01*
X162288000Y-32919500D01*
X162272000Y-32940500D01*
X162255000Y-32961500D01*
X162236000Y-32980500D01*
X162217000Y-32998500D01*
X162197000Y-33015500D01*
X162176000Y-33032500D01*
X162154000Y-33047500D01*
X162131000Y-33061500D01*
X162108000Y-33073500D01*
X162084000Y-33085500D01*
X162059000Y-33095500D01*
X162034000Y-33104500D01*
X162009000Y-33111500D01*
X161983000Y-33117500D01*
X161957000Y-33122500D01*
X161931000Y-33126500D01*
X161904000Y-33128500D01*
X161875000Y-33128500D01*
X161851000Y-33128500D01*
X161825000Y-33126500D01*
X161799000Y-33122500D01*
X161773000Y-33118500D01*
X161747000Y-33111500D01*
X161722000Y-33104500D01*
X161697000Y-33095500D01*
X161673000Y-33085500D01*
X161649000Y-33074500D01*
X161626000Y-33061500D01*
X161604000Y-33047500D01*
X161582000Y-33033500D01*
X161561000Y-33017500D01*
X161541000Y-32999500D01*
X161522000Y-32981500D01*
X161504000Y-32962500D01*
X161487000Y-32942500D01*
X161471000Y-32921500D01*
X161456000Y-32900500D01*
X161442000Y-32877500D01*
X161430000Y-32854500D01*
X161418000Y-32830500D01*
X161408000Y-32806500D01*
X161400000Y-32781500D01*
X161392000Y-32756500D01*
X161386000Y-32730500D01*
X161381000Y-32705500D01*
X161378000Y-32679500D01*
X161376000Y-32652500D01*
X161375000Y-32624500D01*
X161375000Y-31733500D01*
X161376000Y-31705500D01*
X161378000Y-31678500D01*
X161381000Y-31652500D01*
X161386000Y-31627500D01*
X161392000Y-31601500D01*
X161400000Y-31576500D01*
X161408000Y-31551500D01*
X161418000Y-31527500D01*
X161430000Y-31503500D01*
X161442000Y-31480500D01*
X161456000Y-31457500D01*
X161471000Y-31436500D01*
X161487000Y-31415500D01*
X161504000Y-31395500D01*
X161522000Y-31376500D01*
X161541000Y-31358500D01*
X161561000Y-31340500D01*
X161582000Y-31324500D01*
X161604000Y-31310500D01*
X161626000Y-31296500D01*
X161649000Y-31283500D01*
X161673000Y-31272500D01*
X161697000Y-31262500D01*
X161722000Y-31253500D01*
X161747000Y-31246500D01*
X161773000Y-31239500D01*
X161799000Y-31235500D01*
X161825000Y-31231500D01*
X161851000Y-31229500D01*
X161875000Y-31228500D01*
X161904000Y-31229500D01*
G37*
G04 #@! TD.AperFunction*
D11*
X170225000Y-32179000D03*
X161875000Y-32179000D03*
D12*
X168275000Y-35179000D03*
X163825000Y-35179000D03*
D13*
X172725000Y-50673000D03*
D14*
X170185000Y-50673000D03*
D13*
X157744000Y-69977000D03*
D14*
X160284000Y-69977000D03*
X162824000Y-69977000D03*
X165364000Y-69977000D03*
D13*
X160650000Y-64897000D03*
D14*
X163190000Y-64897000D03*
D15*
X161163000Y-38354000D03*
X152400000Y-43307000D03*
X155067000Y-51054000D03*
X158623000Y-31369000D03*
X171831000Y-64897000D03*
X161544000Y-60071000D03*
D16*
X156210000Y-43307000D02*
X161163000Y-38354000D01*
X152400000Y-43307000D02*
X156210000Y-43307000D01*
X151800000Y-47787000D02*
X151800000Y-38192000D01*
X151800000Y-38192000D02*
X158623000Y-31369000D01*
X155067000Y-51054000D02*
X151800000Y-47787000D01*
X166370000Y-64897000D02*
X161544000Y-60071000D01*
X171831000Y-64897000D02*
X166370000Y-64897000D01*
G04 #@! TA.AperFunction,Conductor*
G36*
X176127539Y-30238185D02*
G01*
X176173294Y-30290989D01*
X176184500Y-30342500D01*
X176184500Y-73093500D01*
X176164815Y-73160539D01*
X176112011Y-73206294D01*
X176060500Y-73217500D01*
X147309500Y-73217500D01*
X147242461Y-73197815D01*
X147196706Y-73145011D01*
X147185500Y-73093500D01*
X147185500Y-71091286D01*
X148039500Y-71091286D01*
X148067931Y-71270796D01*
X148072754Y-71301243D01*
X148081285Y-71327500D01*
X148138444Y-71503414D01*
X148234951Y-71692820D01*
X148359890Y-71864786D01*
X148510213Y-72015109D01*
X148682179Y-72140048D01*
X148682181Y-72140049D01*
X148682184Y-72140051D01*
X148871588Y-72236557D01*
X149073757Y-72302246D01*
X149283713Y-72335500D01*
X149283714Y-72335500D01*
X149496286Y-72335500D01*
X149496287Y-72335500D01*
X149706243Y-72302246D01*
X149908412Y-72236557D01*
X150097816Y-72140051D01*
X150119789Y-72124086D01*
X150269786Y-72015109D01*
X150269788Y-72015106D01*
X150269792Y-72015104D01*
X150420104Y-71864792D01*
X150420106Y-71864788D01*
X150420109Y-71864786D01*
X150545048Y-71692820D01*
X150545047Y-71692820D01*
X150545051Y-71692816D01*
X150641557Y-71503412D01*
X150707246Y-71301243D01*
X150740500Y-71091287D01*
X150740500Y-70878713D01*
X150739891Y-70874870D01*
X156393500Y-70874870D01*
X156393501Y-70874876D01*
X156399908Y-70934483D01*
X156450202Y-71069328D01*
X156450206Y-71069335D01*
X156536452Y-71184544D01*
X156536455Y-71184547D01*
X156651664Y-71270793D01*
X156651671Y-71270797D01*
X156786517Y-71321091D01*
X156786516Y-71321091D01*
X156793444Y-71321835D01*
X156846127Y-71327500D01*
X158641872Y-71327499D01*
X158701483Y-71321091D01*
X158836331Y-71270796D01*
X158951546Y-71184546D01*
X159037796Y-71069331D01*
X159086810Y-70937916D01*
X159128681Y-70881984D01*
X159194145Y-70857566D01*
X159262418Y-70872417D01*
X159290673Y-70893569D01*
X159412599Y-71015495D01*
X159509384Y-71083265D01*
X159606165Y-71151032D01*
X159606167Y-71151033D01*
X159606170Y-71151035D01*
X159820337Y-71250903D01*
X160048592Y-71312063D01*
X160225034Y-71327500D01*
X160283999Y-71332659D01*
X160284000Y-71332659D01*
X160284001Y-71332659D01*
X160342966Y-71327500D01*
X160519408Y-71312063D01*
X160747663Y-71250903D01*
X160961830Y-71151035D01*
X161155401Y-71015495D01*
X161322495Y-70848401D01*
X161452425Y-70662842D01*
X161507002Y-70619217D01*
X161576500Y-70612023D01*
X161638855Y-70643546D01*
X161655575Y-70662842D01*
X161785500Y-70848395D01*
X161785505Y-70848401D01*
X161952599Y-71015495D01*
X162049384Y-71083265D01*
X162146165Y-71151032D01*
X162146167Y-71151033D01*
X162146170Y-71151035D01*
X162360337Y-71250903D01*
X162588592Y-71312063D01*
X162765034Y-71327500D01*
X162823999Y-71332659D01*
X162824000Y-71332659D01*
X162824001Y-71332659D01*
X162882966Y-71327500D01*
X163059408Y-71312063D01*
X163287663Y-71250903D01*
X163501830Y-71151035D01*
X163695401Y-71015495D01*
X163862495Y-70848401D01*
X163992425Y-70662842D01*
X164047002Y-70619217D01*
X164116500Y-70612023D01*
X164178855Y-70643546D01*
X164195575Y-70662842D01*
X164325500Y-70848395D01*
X164325505Y-70848401D01*
X164492599Y-71015495D01*
X164589384Y-71083265D01*
X164686165Y-71151032D01*
X164686167Y-71151033D01*
X164686170Y-71151035D01*
X164900337Y-71250903D01*
X165128592Y-71312063D01*
X165305034Y-71327500D01*
X165363999Y-71332659D01*
X165364000Y-71332659D01*
X165364001Y-71332659D01*
X165422966Y-71327500D01*
X165599408Y-71312063D01*
X165827663Y-71250903D01*
X166041830Y-71151035D01*
X166127160Y-71091286D01*
X172639500Y-71091286D01*
X172667931Y-71270796D01*
X172672754Y-71301243D01*
X172681285Y-71327500D01*
X172738444Y-71503414D01*
X172834951Y-71692820D01*
X172959890Y-71864786D01*
X173110213Y-72015109D01*
X173282179Y-72140048D01*
X173282181Y-72140049D01*
X173282184Y-72140051D01*
X173471588Y-72236557D01*
X173673757Y-72302246D01*
X173883713Y-72335500D01*
X173883714Y-72335500D01*
X174096286Y-72335500D01*
X174096287Y-72335500D01*
X174306243Y-72302246D01*
X174508412Y-72236557D01*
X174697816Y-72140051D01*
X174719789Y-72124086D01*
X174869786Y-72015109D01*
X174869788Y-72015106D01*
X174869792Y-72015104D01*
X175020104Y-71864792D01*
X175020106Y-71864788D01*
X175020109Y-71864786D01*
X175145048Y-71692820D01*
X175145047Y-71692820D01*
X175145051Y-71692816D01*
X175241557Y-71503412D01*
X175307246Y-71301243D01*
X175340500Y-71091287D01*
X175340500Y-70878713D01*
X175307246Y-70668757D01*
X175241557Y-70466588D01*
X175145051Y-70277184D01*
X175145049Y-70277181D01*
X175145048Y-70277179D01*
X175020109Y-70105213D01*
X174869786Y-69954890D01*
X174697820Y-69829951D01*
X174508414Y-69733444D01*
X174508413Y-69733443D01*
X174508412Y-69733443D01*
X174306243Y-69667754D01*
X174306241Y-69667753D01*
X174306240Y-69667753D01*
X174144957Y-69642208D01*
X174096287Y-69634500D01*
X173883713Y-69634500D01*
X173835042Y-69642208D01*
X173673760Y-69667753D01*
X173471585Y-69733444D01*
X173282179Y-69829951D01*
X173110213Y-69954890D01*
X172959890Y-70105213D01*
X172834951Y-70277179D01*
X172738444Y-70466585D01*
X172672753Y-70668760D01*
X172639500Y-70878713D01*
X172639500Y-71091286D01*
X166127160Y-71091286D01*
X166235401Y-71015495D01*
X166402495Y-70848401D01*
X166538035Y-70654830D01*
X166637903Y-70440663D01*
X166699063Y-70212408D01*
X166719659Y-69977000D01*
X166699063Y-69741592D01*
X166637903Y-69513337D01*
X166538035Y-69299171D01*
X166532425Y-69291158D01*
X166402494Y-69105597D01*
X166235402Y-68938506D01*
X166235395Y-68938501D01*
X166041834Y-68802967D01*
X166041830Y-68802965D01*
X166041828Y-68802964D01*
X165827663Y-68703097D01*
X165827659Y-68703096D01*
X165827655Y-68703094D01*
X165599413Y-68641938D01*
X165599403Y-68641936D01*
X165364001Y-68621341D01*
X165363999Y-68621341D01*
X165128596Y-68641936D01*
X165128586Y-68641938D01*
X164900344Y-68703094D01*
X164900335Y-68703098D01*
X164686171Y-68802964D01*
X164686169Y-68802965D01*
X164492597Y-68938505D01*
X164325505Y-69105597D01*
X164195575Y-69291158D01*
X164140998Y-69334783D01*
X164071500Y-69341977D01*
X164009145Y-69310454D01*
X163992425Y-69291158D01*
X163862494Y-69105597D01*
X163695402Y-68938506D01*
X163695395Y-68938501D01*
X163501834Y-68802967D01*
X163501830Y-68802965D01*
X163501828Y-68802964D01*
X163287663Y-68703097D01*
X163287659Y-68703096D01*
X163287655Y-68703094D01*
X163059413Y-68641938D01*
X163059403Y-68641936D01*
X162824001Y-68621341D01*
X162823999Y-68621341D01*
X162588596Y-68641936D01*
X162588586Y-68641938D01*
X162360344Y-68703094D01*
X162360335Y-68703098D01*
X162146171Y-68802964D01*
X162146169Y-68802965D01*
X161952597Y-68938505D01*
X161785505Y-69105597D01*
X161655575Y-69291158D01*
X161600998Y-69334783D01*
X161531500Y-69341977D01*
X161469145Y-69310454D01*
X161452425Y-69291158D01*
X161322494Y-69105597D01*
X161155402Y-68938506D01*
X161155395Y-68938501D01*
X160961834Y-68802967D01*
X160961830Y-68802965D01*
X160961828Y-68802964D01*
X160747663Y-68703097D01*
X160747659Y-68703096D01*
X160747655Y-68703094D01*
X160519413Y-68641938D01*
X160519403Y-68641936D01*
X160284001Y-68621341D01*
X160283999Y-68621341D01*
X160048596Y-68641936D01*
X160048586Y-68641938D01*
X159820344Y-68703094D01*
X159820335Y-68703098D01*
X159606171Y-68802964D01*
X159606169Y-68802965D01*
X159412600Y-68938503D01*
X159290673Y-69060430D01*
X159229350Y-69093914D01*
X159159658Y-69088930D01*
X159103725Y-69047058D01*
X159086810Y-69016081D01*
X159037797Y-68884671D01*
X159037793Y-68884664D01*
X158951547Y-68769455D01*
X158951544Y-68769452D01*
X158836335Y-68683206D01*
X158836328Y-68683202D01*
X158701482Y-68632908D01*
X158701483Y-68632908D01*
X158641883Y-68626501D01*
X158641881Y-68626500D01*
X158641873Y-68626500D01*
X158641864Y-68626500D01*
X156846129Y-68626500D01*
X156846123Y-68626501D01*
X156786516Y-68632908D01*
X156651671Y-68683202D01*
X156651664Y-68683206D01*
X156536455Y-68769452D01*
X156536452Y-68769455D01*
X156450206Y-68884664D01*
X156450202Y-68884671D01*
X156399908Y-69019517D01*
X156393501Y-69079116D01*
X156393500Y-69079135D01*
X156393500Y-70874870D01*
X150739891Y-70874870D01*
X150707246Y-70668757D01*
X150641557Y-70466588D01*
X150545051Y-70277184D01*
X150545049Y-70277181D01*
X150545048Y-70277179D01*
X150420109Y-70105213D01*
X150269786Y-69954890D01*
X150097820Y-69829951D01*
X149908414Y-69733444D01*
X149908413Y-69733443D01*
X149908412Y-69733443D01*
X149706243Y-69667754D01*
X149706241Y-69667753D01*
X149706240Y-69667753D01*
X149544957Y-69642208D01*
X149496287Y-69634500D01*
X149283713Y-69634500D01*
X149235042Y-69642208D01*
X149073760Y-69667753D01*
X148871585Y-69733444D01*
X148682179Y-69829951D01*
X148510213Y-69954890D01*
X148359890Y-70105213D01*
X148234951Y-70277179D01*
X148138444Y-70466585D01*
X148072753Y-70668760D01*
X148039500Y-70878713D01*
X148039500Y-71091286D01*
X147185500Y-71091286D01*
X147185500Y-65794870D01*
X159299500Y-65794870D01*
X159299501Y-65794876D01*
X159305908Y-65854483D01*
X159356202Y-65989328D01*
X159356206Y-65989335D01*
X159442452Y-66104544D01*
X159442455Y-66104547D01*
X159557664Y-66190793D01*
X159557671Y-66190797D01*
X159692517Y-66241091D01*
X159692516Y-66241091D01*
X159699444Y-66241835D01*
X159752127Y-66247500D01*
X161547872Y-66247499D01*
X161607483Y-66241091D01*
X161742331Y-66190796D01*
X161857546Y-66104546D01*
X161943796Y-65989331D01*
X161992810Y-65857916D01*
X162034681Y-65801984D01*
X162100145Y-65777566D01*
X162168418Y-65792417D01*
X162196673Y-65813569D01*
X162318599Y-65935495D01*
X162415384Y-66003265D01*
X162512165Y-66071032D01*
X162512167Y-66071033D01*
X162512170Y-66071035D01*
X162726337Y-66170903D01*
X162954592Y-66232063D01*
X163131034Y-66247500D01*
X163189999Y-66252659D01*
X163190000Y-66252659D01*
X163190001Y-66252659D01*
X163248966Y-66247500D01*
X163425408Y-66232063D01*
X163653663Y-66170903D01*
X163867830Y-66071035D01*
X164061401Y-65935495D01*
X164228495Y-65768401D01*
X164364035Y-65574830D01*
X164463903Y-65360663D01*
X164525063Y-65132408D01*
X164545659Y-64897000D01*
X164525063Y-64661592D01*
X164463903Y-64433337D01*
X164364035Y-64219171D01*
X164330454Y-64171211D01*
X164228494Y-64025597D01*
X164061402Y-63858506D01*
X164061395Y-63858501D01*
X163867834Y-63722967D01*
X163867830Y-63722965D01*
X163867828Y-63722964D01*
X163653663Y-63623097D01*
X163653659Y-63623096D01*
X163653655Y-63623094D01*
X163425413Y-63561938D01*
X163425403Y-63561936D01*
X163190001Y-63541341D01*
X163189999Y-63541341D01*
X162954596Y-63561936D01*
X162954586Y-63561938D01*
X162726344Y-63623094D01*
X162726335Y-63623098D01*
X162512171Y-63722964D01*
X162512169Y-63722965D01*
X162318600Y-63858503D01*
X162196673Y-63980430D01*
X162135350Y-64013914D01*
X162065658Y-64008930D01*
X162009725Y-63967058D01*
X161992810Y-63936081D01*
X161943797Y-63804671D01*
X161943793Y-63804664D01*
X161857547Y-63689455D01*
X161857544Y-63689452D01*
X161742335Y-63603206D01*
X161742328Y-63603202D01*
X161607482Y-63552908D01*
X161607483Y-63552908D01*
X161547883Y-63546501D01*
X161547881Y-63546500D01*
X161547873Y-63546500D01*
X161547864Y-63546500D01*
X159752129Y-63546500D01*
X159752123Y-63546501D01*
X159692516Y-63552908D01*
X159557671Y-63603202D01*
X159557664Y-63603206D01*
X159442455Y-63689452D01*
X159442452Y-63689455D01*
X159356206Y-63804664D01*
X159356202Y-63804671D01*
X159305908Y-63939517D01*
X159299501Y-63999116D01*
X159299500Y-63999135D01*
X159299500Y-65794870D01*
X147185500Y-65794870D01*
X147185500Y-60071003D01*
X160738435Y-60071003D01*
X160758630Y-60250249D01*
X160758631Y-60250254D01*
X160818211Y-60420523D01*
X160914184Y-60573262D01*
X161041738Y-60700816D01*
X161194478Y-60796789D01*
X161364745Y-60856368D01*
X161451669Y-60866161D01*
X161516080Y-60893226D01*
X161525464Y-60901699D01*
X166001284Y-65377520D01*
X166001286Y-65377521D01*
X166001290Y-65377524D01*
X166138209Y-65456573D01*
X166138216Y-65456577D01*
X166290943Y-65497501D01*
X166290945Y-65497501D01*
X166456654Y-65497501D01*
X166456670Y-65497500D01*
X171248588Y-65497500D01*
X171315627Y-65517185D01*
X171325903Y-65524555D01*
X171328736Y-65526814D01*
X171328738Y-65526816D01*
X171481478Y-65622789D01*
X171651745Y-65682368D01*
X171651750Y-65682369D01*
X171830996Y-65702565D01*
X171831000Y-65702565D01*
X171831004Y-65702565D01*
X172010249Y-65682369D01*
X172010252Y-65682368D01*
X172010255Y-65682368D01*
X172180522Y-65622789D01*
X172333262Y-65526816D01*
X172460816Y-65399262D01*
X172556789Y-65246522D01*
X172616368Y-65076255D01*
X172636565Y-64897000D01*
X172616368Y-64717745D01*
X172556789Y-64547478D01*
X172460816Y-64394738D01*
X172333262Y-64267184D01*
X172256847Y-64219169D01*
X172180523Y-64171211D01*
X172010254Y-64111631D01*
X172010249Y-64111630D01*
X171831004Y-64091435D01*
X171830996Y-64091435D01*
X171651750Y-64111630D01*
X171651745Y-64111631D01*
X171481476Y-64171211D01*
X171328736Y-64267185D01*
X171325903Y-64269445D01*
X171323724Y-64270334D01*
X171322842Y-64270889D01*
X171322744Y-64270734D01*
X171261217Y-64295855D01*
X171248588Y-64296500D01*
X166670098Y-64296500D01*
X166603059Y-64276815D01*
X166582417Y-64260181D01*
X162374700Y-60052465D01*
X162341215Y-59991142D01*
X162339163Y-59978686D01*
X162329368Y-59891745D01*
X162269789Y-59721478D01*
X162173816Y-59568738D01*
X162046262Y-59441184D01*
X161893523Y-59345211D01*
X161723254Y-59285631D01*
X161723249Y-59285630D01*
X161544004Y-59265435D01*
X161543996Y-59265435D01*
X161364750Y-59285630D01*
X161364745Y-59285631D01*
X161194476Y-59345211D01*
X161041737Y-59441184D01*
X160914184Y-59568737D01*
X160818211Y-59721476D01*
X160758631Y-59891745D01*
X160758630Y-59891750D01*
X160738435Y-60070996D01*
X160738435Y-60071003D01*
X147185500Y-60071003D01*
X147185500Y-47866054D01*
X151199498Y-47866054D01*
X151240423Y-48018785D01*
X151269358Y-48068900D01*
X151269359Y-48068904D01*
X151269360Y-48068904D01*
X151319479Y-48155714D01*
X151319481Y-48155717D01*
X151438349Y-48274585D01*
X151438355Y-48274590D01*
X154236298Y-51072534D01*
X154269783Y-51133857D01*
X154271837Y-51146331D01*
X154281630Y-51233249D01*
X154341210Y-51403521D01*
X154429727Y-51544395D01*
X154437184Y-51556262D01*
X154564738Y-51683816D01*
X154608786Y-51711493D01*
X154694081Y-51765088D01*
X154717478Y-51779789D01*
X154887745Y-51839368D01*
X154887750Y-51839369D01*
X155066996Y-51859565D01*
X155067000Y-51859565D01*
X155067004Y-51859565D01*
X155246249Y-51839369D01*
X155246252Y-51839368D01*
X155246255Y-51839368D01*
X155416522Y-51779789D01*
X155569262Y-51683816D01*
X155696816Y-51556262D01*
X155792789Y-51403522D01*
X155852368Y-51233255D01*
X155862162Y-51146331D01*
X155872565Y-51054003D01*
X155872565Y-51053996D01*
X155852369Y-50874750D01*
X155852368Y-50874745D01*
X155792788Y-50704476D01*
X155773010Y-50673000D01*
X168829341Y-50673000D01*
X168849936Y-50908403D01*
X168849938Y-50908413D01*
X168911094Y-51136655D01*
X168911096Y-51136659D01*
X168911097Y-51136663D01*
X168956139Y-51233255D01*
X169010965Y-51350830D01*
X169010967Y-51350834D01*
X169047860Y-51403522D01*
X169146505Y-51544401D01*
X169313599Y-51711495D01*
X169390135Y-51765086D01*
X169507165Y-51847032D01*
X169507167Y-51847033D01*
X169507170Y-51847035D01*
X169721337Y-51946903D01*
X169949592Y-52008063D01*
X170120319Y-52023000D01*
X170184999Y-52028659D01*
X170185000Y-52028659D01*
X170185001Y-52028659D01*
X170249681Y-52023000D01*
X170420408Y-52008063D01*
X170648663Y-51946903D01*
X170862830Y-51847035D01*
X171056401Y-51711495D01*
X171178717Y-51589178D01*
X171240036Y-51555696D01*
X171309728Y-51560680D01*
X171365662Y-51602551D01*
X171382577Y-51633528D01*
X171431646Y-51765088D01*
X171431649Y-51765093D01*
X171517809Y-51880187D01*
X171517812Y-51880190D01*
X171632906Y-51966350D01*
X171632913Y-51966354D01*
X171767620Y-52016596D01*
X171767627Y-52016598D01*
X171827155Y-52022999D01*
X171827172Y-52023000D01*
X172475000Y-52023000D01*
X172475000Y-51106012D01*
X172532007Y-51138925D01*
X172659174Y-51173000D01*
X172790826Y-51173000D01*
X172917993Y-51138925D01*
X172975000Y-51106012D01*
X172975000Y-52023000D01*
X173622828Y-52023000D01*
X173622844Y-52022999D01*
X173682372Y-52016598D01*
X173682379Y-52016596D01*
X173817086Y-51966354D01*
X173817093Y-51966350D01*
X173932187Y-51880190D01*
X173932190Y-51880187D01*
X174018350Y-51765093D01*
X174018354Y-51765086D01*
X174068596Y-51630379D01*
X174068598Y-51630372D01*
X174074999Y-51570844D01*
X174075000Y-51570827D01*
X174075000Y-50923000D01*
X173158012Y-50923000D01*
X173190925Y-50865993D01*
X173225000Y-50738826D01*
X173225000Y-50607174D01*
X173190925Y-50480007D01*
X173158012Y-50423000D01*
X174075000Y-50423000D01*
X174075000Y-49775172D01*
X174074999Y-49775155D01*
X174068598Y-49715627D01*
X174068596Y-49715620D01*
X174018354Y-49580913D01*
X174018350Y-49580906D01*
X173932190Y-49465812D01*
X173932187Y-49465809D01*
X173817093Y-49379649D01*
X173817086Y-49379645D01*
X173682379Y-49329403D01*
X173682372Y-49329401D01*
X173622844Y-49323000D01*
X172975000Y-49323000D01*
X172975000Y-50239988D01*
X172917993Y-50207075D01*
X172790826Y-50173000D01*
X172659174Y-50173000D01*
X172532007Y-50207075D01*
X172475000Y-50239988D01*
X172475000Y-49323000D01*
X171827155Y-49323000D01*
X171767627Y-49329401D01*
X171767620Y-49329403D01*
X171632913Y-49379645D01*
X171632906Y-49379649D01*
X171517812Y-49465809D01*
X171517809Y-49465812D01*
X171431649Y-49580906D01*
X171431645Y-49580913D01*
X171382578Y-49712470D01*
X171340707Y-49768404D01*
X171275242Y-49792821D01*
X171206969Y-49777969D01*
X171178715Y-49756819D01*
X171134366Y-49712470D01*
X171056401Y-49634505D01*
X171056397Y-49634502D01*
X171056396Y-49634501D01*
X170862834Y-49498967D01*
X170862830Y-49498965D01*
X170791727Y-49465809D01*
X170648663Y-49399097D01*
X170648659Y-49399096D01*
X170648655Y-49399094D01*
X170420413Y-49337938D01*
X170420403Y-49337936D01*
X170185001Y-49317341D01*
X170184999Y-49317341D01*
X169949596Y-49337936D01*
X169949586Y-49337938D01*
X169721344Y-49399094D01*
X169721335Y-49399098D01*
X169507171Y-49498964D01*
X169507169Y-49498965D01*
X169313597Y-49634505D01*
X169146505Y-49801597D01*
X169010965Y-49995169D01*
X169010964Y-49995171D01*
X168911098Y-50209335D01*
X168911094Y-50209344D01*
X168849938Y-50437586D01*
X168849936Y-50437596D01*
X168829341Y-50672999D01*
X168829341Y-50673000D01*
X155773010Y-50673000D01*
X155696815Y-50551737D01*
X155569262Y-50424184D01*
X155416521Y-50328210D01*
X155246249Y-50268630D01*
X155159331Y-50258837D01*
X155094917Y-50231770D01*
X155085534Y-50223298D01*
X152436819Y-47574583D01*
X152403334Y-47513260D01*
X152400500Y-47486902D01*
X152400500Y-44223321D01*
X152420185Y-44156282D01*
X152472989Y-44110527D01*
X152510612Y-44100101D01*
X152579255Y-44092368D01*
X152749522Y-44032789D01*
X152902262Y-43936816D01*
X152902267Y-43936810D01*
X152905097Y-43934555D01*
X152907275Y-43933665D01*
X152908158Y-43933111D01*
X152908255Y-43933265D01*
X152969783Y-43908145D01*
X152982412Y-43907500D01*
X156123331Y-43907500D01*
X156123347Y-43907501D01*
X156130943Y-43907501D01*
X156289054Y-43907501D01*
X156289057Y-43907501D01*
X156441785Y-43866577D01*
X156491904Y-43837639D01*
X156578716Y-43787520D01*
X156690520Y-43675716D01*
X156690520Y-43675714D01*
X156700728Y-43665507D01*
X156700729Y-43665504D01*
X161181536Y-39184698D01*
X161242857Y-39151215D01*
X161255310Y-39149163D01*
X161342255Y-39139368D01*
X161512522Y-39079789D01*
X161665262Y-38983816D01*
X161792816Y-38856262D01*
X161888789Y-38703522D01*
X161948368Y-38533255D01*
X161948369Y-38533249D01*
X161968565Y-38354003D01*
X161968565Y-38353996D01*
X161948369Y-38174750D01*
X161948368Y-38174745D01*
X161926743Y-38112945D01*
X161888789Y-38004478D01*
X161792816Y-37851738D01*
X161665262Y-37724184D01*
X161645041Y-37711478D01*
X161512523Y-37628211D01*
X161342254Y-37568631D01*
X161342249Y-37568630D01*
X161163004Y-37548435D01*
X161162996Y-37548435D01*
X160983750Y-37568630D01*
X160983745Y-37568631D01*
X160813476Y-37628211D01*
X160660737Y-37724184D01*
X160533184Y-37851737D01*
X160437210Y-38004478D01*
X160377630Y-38174750D01*
X160367837Y-38261667D01*
X160340770Y-38326081D01*
X160332298Y-38335464D01*
X155997584Y-42670181D01*
X155936261Y-42703666D01*
X155909903Y-42706500D01*
X152982412Y-42706500D01*
X152915373Y-42686815D01*
X152905097Y-42679445D01*
X152902263Y-42677185D01*
X152902262Y-42677184D01*
X152825892Y-42629197D01*
X152749521Y-42581210D01*
X152579249Y-42521630D01*
X152510616Y-42513897D01*
X152446202Y-42486830D01*
X152406647Y-42429235D01*
X152400500Y-42390677D01*
X152400500Y-38492096D01*
X152420185Y-38425057D01*
X152436814Y-38404420D01*
X155662233Y-35179000D01*
X162769417Y-35179000D01*
X162789699Y-35384932D01*
X162789700Y-35384934D01*
X162849768Y-35582954D01*
X162947315Y-35765450D01*
X162947317Y-35765452D01*
X163078589Y-35925410D01*
X163175209Y-36004702D01*
X163238550Y-36056685D01*
X163421046Y-36154232D01*
X163619066Y-36214300D01*
X163619065Y-36214300D01*
X163637529Y-36216118D01*
X163825000Y-36234583D01*
X164030934Y-36214300D01*
X164228954Y-36154232D01*
X164411450Y-36056685D01*
X164571410Y-35925410D01*
X164702685Y-35765450D01*
X164800232Y-35582954D01*
X164860300Y-35384934D01*
X164880583Y-35179000D01*
X167219417Y-35179000D01*
X167239699Y-35384932D01*
X167239700Y-35384934D01*
X167299768Y-35582954D01*
X167397315Y-35765450D01*
X167397317Y-35765452D01*
X167528589Y-35925410D01*
X167625209Y-36004702D01*
X167688550Y-36056685D01*
X167871046Y-36154232D01*
X168069066Y-36214300D01*
X168069065Y-36214300D01*
X168087529Y-36216118D01*
X168275000Y-36234583D01*
X168480934Y-36214300D01*
X168678954Y-36154232D01*
X168861450Y-36056685D01*
X169021410Y-35925410D01*
X169152685Y-35765450D01*
X169250232Y-35582954D01*
X169310300Y-35384934D01*
X169330583Y-35179000D01*
X169310300Y-34973066D01*
X169250232Y-34775046D01*
X169152685Y-34592550D01*
X169100702Y-34529209D01*
X169021410Y-34432589D01*
X168861452Y-34301317D01*
X168861453Y-34301317D01*
X168861450Y-34301315D01*
X168678954Y-34203768D01*
X168480934Y-34143700D01*
X168480932Y-34143699D01*
X168480934Y-34143699D01*
X168275000Y-34123417D01*
X168069067Y-34143699D01*
X167871043Y-34203769D01*
X167760898Y-34262643D01*
X167688550Y-34301315D01*
X167688548Y-34301316D01*
X167688547Y-34301317D01*
X167528589Y-34432589D01*
X167397317Y-34592547D01*
X167299769Y-34775043D01*
X167239699Y-34973067D01*
X167219417Y-35179000D01*
X164880583Y-35179000D01*
X164860300Y-34973066D01*
X164800232Y-34775046D01*
X164702685Y-34592550D01*
X164650702Y-34529209D01*
X164571410Y-34432589D01*
X164411452Y-34301317D01*
X164411453Y-34301317D01*
X164411450Y-34301315D01*
X164228954Y-34203768D01*
X164030934Y-34143700D01*
X164030932Y-34143699D01*
X164030934Y-34143699D01*
X163825000Y-34123417D01*
X163619067Y-34143699D01*
X163421043Y-34203769D01*
X163310898Y-34262643D01*
X163238550Y-34301315D01*
X163238548Y-34301316D01*
X163238547Y-34301317D01*
X163078589Y-34432589D01*
X162947317Y-34592547D01*
X162849769Y-34775043D01*
X162789699Y-34973067D01*
X162769417Y-35179000D01*
X155662233Y-35179000D01*
X158216714Y-32624519D01*
X160864500Y-32624519D01*
X160864823Y-32642703D01*
X160865823Y-32670696D01*
X160866896Y-32690233D01*
X160868895Y-32717207D01*
X160870863Y-32737996D01*
X160873866Y-32764022D01*
X160880414Y-32805619D01*
X160885418Y-32830641D01*
X160888570Y-32845279D01*
X160894572Y-32871292D01*
X160905787Y-32912091D01*
X160921787Y-32962088D01*
X160936767Y-33002843D01*
X160946766Y-33026840D01*
X160961397Y-33058809D01*
X160973391Y-33082797D01*
X160977396Y-33090637D01*
X160989394Y-33113633D01*
X161005930Y-33142929D01*
X161019939Y-33165945D01*
X161040576Y-33197204D01*
X161040589Y-33197222D01*
X161055589Y-33218222D01*
X161064932Y-33230885D01*
X161064955Y-33230916D01*
X161079403Y-33249878D01*
X161080932Y-33251885D01*
X161098030Y-33273125D01*
X161110932Y-33288304D01*
X161115039Y-33293136D01*
X161133406Y-33313600D01*
X161151401Y-33332595D01*
X161170906Y-33352100D01*
X161189848Y-33370045D01*
X161189887Y-33370081D01*
X161189906Y-33370099D01*
X161199494Y-33378952D01*
X161219494Y-33396952D01*
X161251615Y-33423568D01*
X161251625Y-33423576D01*
X161272613Y-33439567D01*
X161307931Y-33464193D01*
X161338370Y-33483563D01*
X161351925Y-33492189D01*
X161374805Y-33505922D01*
X161397805Y-33518922D01*
X161397819Y-33518929D01*
X161436285Y-33538572D01*
X161436297Y-33538577D01*
X161436298Y-33538578D01*
X161460298Y-33549578D01*
X161476654Y-33556731D01*
X161500654Y-33566731D01*
X161524084Y-33575823D01*
X161549084Y-33584823D01*
X161584354Y-33596093D01*
X161609354Y-33603093D01*
X161614284Y-33604447D01*
X161614407Y-33604480D01*
X161614443Y-33604490D01*
X161630924Y-33608927D01*
X161640284Y-33611447D01*
X161695375Y-33623064D01*
X161747375Y-33631064D01*
X161747376Y-33631064D01*
X161747382Y-33631065D01*
X161754789Y-33631918D01*
X161785846Y-33635496D01*
X161811846Y-33637496D01*
X161851000Y-33639000D01*
X161851010Y-33639000D01*
X161904008Y-33639000D01*
X161924112Y-33638256D01*
X161941711Y-33637605D01*
X161968711Y-33635605D01*
X162008625Y-33631064D01*
X162034625Y-33627064D01*
X162053407Y-33623814D01*
X162079407Y-33618814D01*
X162082275Y-33618207D01*
X162097783Y-33614929D01*
X162104284Y-33613428D01*
X162123791Y-33608927D01*
X162146646Y-33603093D01*
X162171646Y-33596093D01*
X162206916Y-33584823D01*
X162231916Y-33575823D01*
X162248595Y-33569487D01*
X162273595Y-33559487D01*
X162312303Y-33542105D01*
X162336303Y-33530105D01*
X162344140Y-33526102D01*
X162367140Y-33514102D01*
X162396433Y-33497568D01*
X162419433Y-33483568D01*
X162441583Y-33469289D01*
X162463583Y-33454289D01*
X162497206Y-33429284D01*
X162518206Y-33412284D01*
X162527625Y-33404470D01*
X162547625Y-33387470D01*
X162568094Y-33369099D01*
X162587094Y-33351099D01*
X162596978Y-33341478D01*
X162615978Y-33322478D01*
X162651784Y-33282706D01*
X162668784Y-33261706D01*
X162678068Y-33249885D01*
X162694068Y-33228885D01*
X162709789Y-33207083D01*
X162724789Y-33185083D01*
X162733689Y-33171575D01*
X162747689Y-33149575D01*
X162765879Y-33118643D01*
X162778879Y-33094643D01*
X162794078Y-33064202D01*
X162805078Y-33040202D01*
X162812231Y-33023846D01*
X162822231Y-32999846D01*
X162831323Y-32976416D01*
X162840323Y-32951416D01*
X162847925Y-32928631D01*
X162855925Y-32902631D01*
X162864404Y-32871637D01*
X162870404Y-32846637D01*
X162875965Y-32820457D01*
X162880965Y-32793457D01*
X162886135Y-32759016D01*
X162889135Y-32733016D01*
X162890996Y-32713654D01*
X162892996Y-32687654D01*
X162894057Y-32669752D01*
X162895057Y-32645752D01*
X162895500Y-32624501D01*
X169204500Y-32624501D01*
X169204879Y-32642721D01*
X169204943Y-32645752D01*
X169205943Y-32669752D01*
X169206643Y-32681563D01*
X169207004Y-32687656D01*
X169209006Y-32713677D01*
X169210861Y-32732985D01*
X169213867Y-32759031D01*
X169219034Y-32793450D01*
X169224036Y-32820463D01*
X169229599Y-32846653D01*
X169235592Y-32871623D01*
X169244077Y-32902638D01*
X169252071Y-32928620D01*
X169259671Y-32951400D01*
X169268677Y-32976415D01*
X169277768Y-32999845D01*
X169287784Y-33023882D01*
X169294904Y-33040163D01*
X169305922Y-33064202D01*
X169321121Y-33094643D01*
X169334124Y-33118648D01*
X169352316Y-33149585D01*
X169362728Y-33165945D01*
X169366311Y-33171575D01*
X169375211Y-33185083D01*
X169390211Y-33207083D01*
X169405932Y-33228885D01*
X169405943Y-33228900D01*
X169421926Y-33249878D01*
X169431216Y-33261706D01*
X169448220Y-33282711D01*
X169448232Y-33282724D01*
X169484022Y-33322478D01*
X169484028Y-33322484D01*
X169484039Y-33322496D01*
X169494138Y-33332594D01*
X169503022Y-33341478D01*
X169512906Y-33351099D01*
X169512938Y-33351130D01*
X169531899Y-33369093D01*
X169531906Y-33369099D01*
X169552375Y-33387470D01*
X169572375Y-33404470D01*
X169581794Y-33412284D01*
X169602794Y-33429284D01*
X169636417Y-33454289D01*
X169658417Y-33469289D01*
X169680567Y-33483568D01*
X169703567Y-33497568D01*
X169732860Y-33514102D01*
X169742112Y-33518929D01*
X169755862Y-33526103D01*
X169763655Y-33530084D01*
X169763696Y-33530104D01*
X169763697Y-33530105D01*
X169787697Y-33542105D01*
X169826405Y-33559487D01*
X169851405Y-33569487D01*
X169868084Y-33575823D01*
X169893084Y-33584823D01*
X169928354Y-33596093D01*
X169953354Y-33603093D01*
X169976209Y-33608927D01*
X169985962Y-33611177D01*
X170002216Y-33614929D01*
X170020597Y-33618815D01*
X170046582Y-33623812D01*
X170046587Y-33623813D01*
X170046593Y-33623814D01*
X170065375Y-33627064D01*
X170091375Y-33631064D01*
X170131289Y-33635605D01*
X170158289Y-33637605D01*
X170174450Y-33638202D01*
X170195992Y-33639000D01*
X170196000Y-33639000D01*
X170248990Y-33639000D01*
X170249000Y-33639000D01*
X170288154Y-33637496D01*
X170314154Y-33635496D01*
X170349618Y-33631410D01*
X170352617Y-33631065D01*
X170352619Y-33631064D01*
X170352625Y-33631064D01*
X170404625Y-33623064D01*
X170459716Y-33611447D01*
X170485716Y-33604447D01*
X170490646Y-33603093D01*
X170515646Y-33596093D01*
X170550916Y-33584823D01*
X170575916Y-33575823D01*
X170599346Y-33566731D01*
X170623346Y-33556731D01*
X170639702Y-33549578D01*
X170663702Y-33538578D01*
X170702195Y-33518922D01*
X170725195Y-33505922D01*
X170748075Y-33492189D01*
X170792075Y-33464189D01*
X170827385Y-33439568D01*
X170848385Y-33423568D01*
X170880506Y-33396952D01*
X170900506Y-33378952D01*
X170910094Y-33370099D01*
X170929094Y-33352099D01*
X170948599Y-33332594D01*
X170966599Y-33313594D01*
X170984970Y-33293125D01*
X171001970Y-33273125D01*
X171019068Y-33251885D01*
X171035068Y-33230885D01*
X171044411Y-33218222D01*
X171059411Y-33197222D01*
X171080068Y-33165933D01*
X171094068Y-33142933D01*
X171110602Y-33113640D01*
X171122602Y-33090640D01*
X171126605Y-33082803D01*
X171135906Y-33064202D01*
X171138602Y-33058809D01*
X171147136Y-33040163D01*
X171153231Y-33026846D01*
X171163231Y-33002846D01*
X171178213Y-32962088D01*
X171194213Y-32912088D01*
X171205427Y-32871291D01*
X171211427Y-32845291D01*
X171214586Y-32830617D01*
X171219586Y-32805617D01*
X171226135Y-32764016D01*
X171229135Y-32738016D01*
X171231105Y-32717211D01*
X171233105Y-32690211D01*
X171234175Y-32670721D01*
X171235175Y-32642721D01*
X171235176Y-32642703D01*
X171235500Y-32624519D01*
X171235500Y-32491286D01*
X172639500Y-32491286D01*
X172671006Y-32690211D01*
X172672754Y-32701243D01*
X172738189Y-32902631D01*
X172738444Y-32903414D01*
X172834951Y-33092820D01*
X172959890Y-33264786D01*
X173110213Y-33415109D01*
X173282179Y-33540048D01*
X173282181Y-33540049D01*
X173282184Y-33540051D01*
X173471588Y-33636557D01*
X173673757Y-33702246D01*
X173883713Y-33735500D01*
X173883714Y-33735500D01*
X174096286Y-33735500D01*
X174096287Y-33735500D01*
X174306243Y-33702246D01*
X174508412Y-33636557D01*
X174697816Y-33540051D01*
X174763693Y-33492189D01*
X174869786Y-33415109D01*
X174869788Y-33415106D01*
X174869792Y-33415104D01*
X175020104Y-33264792D01*
X175020106Y-33264788D01*
X175020109Y-33264786D01*
X175145048Y-33092820D01*
X175145047Y-33092820D01*
X175145051Y-33092816D01*
X175241557Y-32903412D01*
X175307246Y-32701243D01*
X175340500Y-32491287D01*
X175340500Y-32278713D01*
X175307246Y-32068757D01*
X175241557Y-31866588D01*
X175145051Y-31677184D01*
X175145049Y-31677181D01*
X175145048Y-31677179D01*
X175020109Y-31505213D01*
X174869786Y-31354890D01*
X174697820Y-31229951D01*
X174508414Y-31133444D01*
X174508413Y-31133443D01*
X174508412Y-31133443D01*
X174306243Y-31067754D01*
X174306241Y-31067753D01*
X174306240Y-31067753D01*
X174144957Y-31042208D01*
X174096287Y-31034500D01*
X173883713Y-31034500D01*
X173835042Y-31042208D01*
X173673760Y-31067753D01*
X173673757Y-31067754D01*
X173491064Y-31127115D01*
X173471585Y-31133444D01*
X173282179Y-31229951D01*
X173110213Y-31354890D01*
X172959890Y-31505213D01*
X172834951Y-31677179D01*
X172738444Y-31866585D01*
X172672753Y-32068760D01*
X172639500Y-32278713D01*
X172639500Y-32491286D01*
X171235500Y-32491286D01*
X171235500Y-31733480D01*
X171235176Y-31715296D01*
X171234176Y-31687303D01*
X171234175Y-31687279D01*
X171233105Y-31667789D01*
X171231105Y-31640789D01*
X171229135Y-31619984D01*
X171226135Y-31593984D01*
X171219586Y-31552383D01*
X171214586Y-31527383D01*
X171211427Y-31512709D01*
X171205427Y-31486709D01*
X171205427Y-31486707D01*
X171194212Y-31445908D01*
X171188919Y-31429369D01*
X171178213Y-31395912D01*
X171163231Y-31355154D01*
X171163123Y-31354896D01*
X171153233Y-31331159D01*
X171138602Y-31299190D01*
X171126608Y-31275202D01*
X171122603Y-31267362D01*
X171110605Y-31244366D01*
X171107778Y-31239357D01*
X171094068Y-31215067D01*
X171080068Y-31192067D01*
X171080066Y-31192065D01*
X171080060Y-31192054D01*
X171059423Y-31160795D01*
X171052367Y-31150917D01*
X171044411Y-31139778D01*
X171035068Y-31127115D01*
X171019068Y-31106115D01*
X171001970Y-31084875D01*
X170984970Y-31064875D01*
X170984960Y-31064863D01*
X170966593Y-31044399D01*
X170948598Y-31025404D01*
X170929093Y-31005899D01*
X170910151Y-30987954D01*
X170910094Y-30987901D01*
X170900506Y-30979048D01*
X170880506Y-30961048D01*
X170848385Y-30934432D01*
X170848383Y-30934430D01*
X170848374Y-30934423D01*
X170827386Y-30918432D01*
X170792068Y-30893806D01*
X170748085Y-30865817D01*
X170725211Y-30852087D01*
X170723291Y-30851002D01*
X170702195Y-30839078D01*
X170702186Y-30839073D01*
X170702180Y-30839070D01*
X170663714Y-30819427D01*
X170647678Y-30812077D01*
X170639702Y-30808422D01*
X170639690Y-30808416D01*
X170639660Y-30808403D01*
X170623382Y-30801284D01*
X170599345Y-30791268D01*
X170585007Y-30785704D01*
X170575916Y-30782177D01*
X170550916Y-30773177D01*
X170515646Y-30761907D01*
X170515641Y-30761905D01*
X170515636Y-30761904D01*
X170490709Y-30754924D01*
X170485556Y-30753509D01*
X170459730Y-30746556D01*
X170459718Y-30746553D01*
X170404622Y-30734935D01*
X170352617Y-30726934D01*
X170314172Y-30722506D01*
X170314170Y-30722505D01*
X170314154Y-30722504D01*
X170288154Y-30720504D01*
X170270252Y-30719443D01*
X170270230Y-30719442D01*
X170270212Y-30719441D01*
X170246257Y-30718442D01*
X170207405Y-30718302D01*
X170178442Y-30719301D01*
X170158251Y-30720397D01*
X170131295Y-30722394D01*
X170091366Y-30726937D01*
X170065395Y-30730932D01*
X170046582Y-30734187D01*
X170020597Y-30739184D01*
X170002216Y-30743070D01*
X169976210Y-30749072D01*
X169958658Y-30753553D01*
X169953354Y-30754907D01*
X169928354Y-30761907D01*
X169893084Y-30773177D01*
X169893079Y-30773178D01*
X169893072Y-30773181D01*
X169868092Y-30782173D01*
X169851389Y-30788519D01*
X169826403Y-30798513D01*
X169787709Y-30815889D01*
X169763655Y-30827915D01*
X169755862Y-30831896D01*
X169732866Y-30843894D01*
X169703567Y-30860432D01*
X169680559Y-30874436D01*
X169658427Y-30888704D01*
X169636412Y-30903714D01*
X169602793Y-30928716D01*
X169581807Y-30945705D01*
X169572372Y-30953532D01*
X169552367Y-30970536D01*
X169531899Y-30988906D01*
X169512938Y-31006869D01*
X169502991Y-31016552D01*
X169484039Y-31035503D01*
X169484028Y-31035515D01*
X169448232Y-31075275D01*
X169448220Y-31075288D01*
X169431216Y-31096293D01*
X169421926Y-31108121D01*
X169405943Y-31129099D01*
X169390201Y-31150931D01*
X169375214Y-31172911D01*
X169366294Y-31186450D01*
X169352316Y-31208414D01*
X169334124Y-31239351D01*
X169321121Y-31263356D01*
X169305922Y-31293797D01*
X169294904Y-31317836D01*
X169287784Y-31334117D01*
X169277768Y-31358154D01*
X169268677Y-31381584D01*
X169259671Y-31406599D01*
X169252071Y-31429379D01*
X169244077Y-31455361D01*
X169235592Y-31486376D01*
X169229599Y-31511346D01*
X169224036Y-31537536D01*
X169219034Y-31564549D01*
X169213867Y-31598968D01*
X169210861Y-31625014D01*
X169209006Y-31644322D01*
X169207201Y-31667789D01*
X169207004Y-31670346D01*
X169206001Y-31687279D01*
X169205944Y-31688234D01*
X169204942Y-31712274D01*
X169204500Y-31733498D01*
X169204500Y-32624501D01*
X162895500Y-32624501D01*
X162895500Y-32624500D01*
X162895500Y-31733500D01*
X162895057Y-31712248D01*
X162894057Y-31688248D01*
X162892996Y-31670346D01*
X162890996Y-31644346D01*
X162889135Y-31624984D01*
X162886135Y-31598984D01*
X162880965Y-31564543D01*
X162875965Y-31537543D01*
X162870404Y-31511363D01*
X162864404Y-31486363D01*
X162855925Y-31455369D01*
X162847925Y-31429369D01*
X162840323Y-31406584D01*
X162831323Y-31381584D01*
X162822231Y-31358154D01*
X162812231Y-31334154D01*
X162805078Y-31317798D01*
X162794078Y-31293798D01*
X162778879Y-31263357D01*
X162765879Y-31239357D01*
X162747689Y-31208425D01*
X162747683Y-31208414D01*
X162733705Y-31186450D01*
X162724785Y-31172911D01*
X162716512Y-31160778D01*
X162709789Y-31150917D01*
X162694068Y-31129115D01*
X162678068Y-31108115D01*
X162668784Y-31096294D01*
X162651784Y-31075294D01*
X162615978Y-31035522D01*
X162615971Y-31035515D01*
X162615960Y-31035503D01*
X162597008Y-31016552D01*
X162596978Y-31016522D01*
X162587094Y-31006901D01*
X162587089Y-31006896D01*
X162587061Y-31006869D01*
X162568100Y-30988906D01*
X162547632Y-30970536D01*
X162536480Y-30961057D01*
X162527625Y-30953530D01*
X162518206Y-30945716D01*
X162497206Y-30928716D01*
X162463583Y-30903711D01*
X162441583Y-30888711D01*
X162438230Y-30886549D01*
X162419440Y-30874436D01*
X162406791Y-30866737D01*
X162396433Y-30860432D01*
X162367140Y-30843898D01*
X162367141Y-30843898D01*
X162367133Y-30843894D01*
X162344137Y-30831896D01*
X162336344Y-30827915D01*
X162319357Y-30819422D01*
X162312303Y-30815895D01*
X162312290Y-30815889D01*
X162273596Y-30798513D01*
X162248610Y-30788519D01*
X162248595Y-30788513D01*
X162242900Y-30786349D01*
X162231907Y-30782173D01*
X162206927Y-30773181D01*
X162206916Y-30773177D01*
X162171646Y-30761907D01*
X162146646Y-30754907D01*
X162138395Y-30752801D01*
X162123789Y-30749072D01*
X162097783Y-30743070D01*
X162079402Y-30739184D01*
X162053417Y-30734187D01*
X162034604Y-30730932D01*
X162008633Y-30726937D01*
X162008627Y-30726936D01*
X162008625Y-30726936D01*
X161996408Y-30725546D01*
X161968704Y-30722394D01*
X161941748Y-30720397D01*
X161921557Y-30719301D01*
X161892594Y-30718302D01*
X161853742Y-30718442D01*
X161829787Y-30719441D01*
X161829765Y-30719442D01*
X161829748Y-30719443D01*
X161811846Y-30720504D01*
X161785846Y-30722504D01*
X161785831Y-30722505D01*
X161785827Y-30722506D01*
X161747382Y-30726934D01*
X161695377Y-30734935D01*
X161640281Y-30746553D01*
X161640269Y-30746556D01*
X161614443Y-30753509D01*
X161609290Y-30754924D01*
X161584363Y-30761904D01*
X161549081Y-30773178D01*
X161524084Y-30782177D01*
X161500654Y-30791268D01*
X161476617Y-30801284D01*
X161460339Y-30808403D01*
X161436285Y-30819427D01*
X161397819Y-30839070D01*
X161374788Y-30852087D01*
X161351914Y-30865817D01*
X161307931Y-30893806D01*
X161272613Y-30918432D01*
X161251625Y-30934423D01*
X161219483Y-30961057D01*
X161199535Y-30979010D01*
X161189848Y-30987954D01*
X161170906Y-31005899D01*
X161151401Y-31025404D01*
X161133406Y-31044399D01*
X161115039Y-31064863D01*
X161098026Y-31084880D01*
X161080925Y-31106123D01*
X161064955Y-31127083D01*
X161055594Y-31139771D01*
X161040576Y-31160795D01*
X161019939Y-31192054D01*
X161005930Y-31215070D01*
X160989394Y-31244366D01*
X160977396Y-31267362D01*
X160973391Y-31275202D01*
X160961397Y-31299190D01*
X160946766Y-31331159D01*
X160936767Y-31355156D01*
X160921787Y-31395911D01*
X160905787Y-31445908D01*
X160894572Y-31486707D01*
X160888570Y-31512720D01*
X160885418Y-31527358D01*
X160880414Y-31552380D01*
X160873866Y-31593977D01*
X160870863Y-31620003D01*
X160868895Y-31640792D01*
X160866896Y-31667766D01*
X160865823Y-31687303D01*
X160864823Y-31715296D01*
X160864500Y-31733480D01*
X160864500Y-32624519D01*
X158216714Y-32624519D01*
X158641535Y-32199698D01*
X158702856Y-32166215D01*
X158715311Y-32164163D01*
X158802255Y-32154368D01*
X158972522Y-32094789D01*
X159125262Y-31998816D01*
X159252816Y-31871262D01*
X159348789Y-31718522D01*
X159408368Y-31548255D01*
X159413218Y-31505213D01*
X159428565Y-31369003D01*
X159428565Y-31368996D01*
X159408369Y-31189750D01*
X159408368Y-31189745D01*
X159402480Y-31172917D01*
X159348789Y-31019478D01*
X159346950Y-31016552D01*
X159291759Y-30928716D01*
X159252816Y-30866738D01*
X159125262Y-30739184D01*
X159105771Y-30726937D01*
X158972523Y-30643211D01*
X158802254Y-30583631D01*
X158802249Y-30583630D01*
X158623004Y-30563435D01*
X158622996Y-30563435D01*
X158443750Y-30583630D01*
X158443745Y-30583631D01*
X158273476Y-30643211D01*
X158120737Y-30739184D01*
X157993184Y-30866737D01*
X157897210Y-31019478D01*
X157837630Y-31189750D01*
X157827837Y-31276668D01*
X157800770Y-31341082D01*
X157792298Y-31350465D01*
X151431286Y-37711478D01*
X151319481Y-37823282D01*
X151319479Y-37823284D01*
X151303053Y-37851737D01*
X151290500Y-37873480D01*
X151265461Y-37916847D01*
X151240423Y-37960214D01*
X151240423Y-37960215D01*
X151199499Y-38112943D01*
X151199499Y-38112945D01*
X151199499Y-38281046D01*
X151199500Y-38281059D01*
X151199500Y-47700330D01*
X151199499Y-47700348D01*
X151199499Y-47866054D01*
X151199498Y-47866054D01*
X147185500Y-47866054D01*
X147185500Y-32491286D01*
X148039500Y-32491286D01*
X148071006Y-32690211D01*
X148072754Y-32701243D01*
X148138189Y-32902631D01*
X148138444Y-32903414D01*
X148234951Y-33092820D01*
X148359890Y-33264786D01*
X148510213Y-33415109D01*
X148682179Y-33540048D01*
X148682181Y-33540049D01*
X148682184Y-33540051D01*
X148871588Y-33636557D01*
X149073757Y-33702246D01*
X149283713Y-33735500D01*
X149283714Y-33735500D01*
X149496286Y-33735500D01*
X149496287Y-33735500D01*
X149706243Y-33702246D01*
X149908412Y-33636557D01*
X150097816Y-33540051D01*
X150163693Y-33492189D01*
X150269786Y-33415109D01*
X150269788Y-33415106D01*
X150269792Y-33415104D01*
X150420104Y-33264792D01*
X150420106Y-33264788D01*
X150420109Y-33264786D01*
X150545048Y-33092820D01*
X150545047Y-33092820D01*
X150545051Y-33092816D01*
X150641557Y-32903412D01*
X150707246Y-32701243D01*
X150740500Y-32491287D01*
X150740500Y-32278713D01*
X150707246Y-32068757D01*
X150641557Y-31866588D01*
X150545051Y-31677184D01*
X150545049Y-31677181D01*
X150545048Y-31677179D01*
X150420109Y-31505213D01*
X150269786Y-31354890D01*
X150097820Y-31229951D01*
X149908414Y-31133444D01*
X149908413Y-31133443D01*
X149908412Y-31133443D01*
X149706243Y-31067754D01*
X149706241Y-31067753D01*
X149706240Y-31067753D01*
X149544957Y-31042208D01*
X149496287Y-31034500D01*
X149283713Y-31034500D01*
X149235042Y-31042208D01*
X149073760Y-31067753D01*
X149073757Y-31067754D01*
X148891064Y-31127115D01*
X148871585Y-31133444D01*
X148682179Y-31229951D01*
X148510213Y-31354890D01*
X148359890Y-31505213D01*
X148234951Y-31677179D01*
X148138444Y-31866585D01*
X148072753Y-32068760D01*
X148039500Y-32278713D01*
X148039500Y-32491286D01*
X147185500Y-32491286D01*
X147185500Y-30342500D01*
X147205185Y-30275461D01*
X147257989Y-30229706D01*
X147309500Y-30218500D01*
X176060500Y-30218500D01*
X176127539Y-30238185D01*
G37*
G04 #@! TD.AperFunction*
M02*
