G04 #@! TF.GenerationSoftware,KiCad,Pcbnew,8.0.1*
G04 #@! TF.CreationDate,2024-12-01T21:33:56-08:00*
G04 #@! TF.ProjectId,ledFlicker,6c656446-6c69-4636-9b65-722e6b696361,rev?*
G04 #@! TF.SameCoordinates,Original*
G04 #@! TF.FileFunction,Legend,Bot*
G04 #@! TF.FilePolarity,Positive*
%FSLAX46Y46*%
G04 Gerber Fmt 4.6, Leading zero omitted, Abs format (unit mm)*
G04 Created by KiCad (PCBNEW 8.0.1) date 2024-12-01 21:33:56*
%MOMM*%
%LPD*%
G01*
G04 APERTURE LIST*
%ADD10C,0.000000*%
G04 APERTURE END LIST*
D10*
G36*
X147075646Y-57235203D02*
G01*
X146995266Y-57315582D01*
X146914887Y-57235203D01*
X146995266Y-57154823D01*
X147075646Y-57235203D01*
G37*
G36*
X148040203Y-72185836D02*
G01*
X147959823Y-72266215D01*
X147879443Y-72185836D01*
X147959823Y-72105456D01*
X148040203Y-72185836D01*
G37*
G36*
X148361722Y-32960519D02*
G01*
X148281342Y-33040899D01*
X148200962Y-32960519D01*
X148281342Y-32880139D01*
X148361722Y-32960519D01*
G37*
G36*
X151737671Y-37140266D02*
G01*
X151657292Y-37220646D01*
X151576912Y-37140266D01*
X151657292Y-37059886D01*
X151737671Y-37140266D01*
G37*
G36*
X151737671Y-68970646D02*
G01*
X151657292Y-69051025D01*
X151576912Y-68970646D01*
X151657292Y-68890266D01*
X151737671Y-68970646D01*
G37*
G36*
X152541469Y-56431405D02*
G01*
X152461089Y-56511785D01*
X152380709Y-56431405D01*
X152461089Y-56351025D01*
X152541469Y-56431405D01*
G37*
G36*
X152541469Y-58682038D02*
G01*
X152461089Y-58762418D01*
X152380709Y-58682038D01*
X152461089Y-58601658D01*
X152541469Y-58682038D01*
G37*
G36*
X152702228Y-48554190D02*
G01*
X152621849Y-48634570D01*
X152541469Y-48554190D01*
X152621849Y-48473810D01*
X152702228Y-48554190D01*
G37*
G36*
X153827545Y-58842798D02*
G01*
X153747165Y-58923177D01*
X153666785Y-58842798D01*
X153747165Y-58762418D01*
X153827545Y-58842798D01*
G37*
G36*
X154309823Y-52090899D02*
G01*
X154229443Y-52171279D01*
X154149064Y-52090899D01*
X154229443Y-52010519D01*
X154309823Y-52090899D01*
G37*
G36*
X154792102Y-38265582D02*
G01*
X154711722Y-38345962D01*
X154631342Y-38265582D01*
X154711722Y-38185203D01*
X154792102Y-38265582D01*
G37*
G36*
X154792102Y-57878241D02*
G01*
X154711722Y-57958620D01*
X154631342Y-57878241D01*
X154711722Y-57797861D01*
X154792102Y-57878241D01*
G37*
G36*
X155113621Y-36818747D02*
G01*
X155033241Y-36899127D01*
X154952861Y-36818747D01*
X155033241Y-36738367D01*
X155113621Y-36818747D01*
G37*
G36*
X155917418Y-42284570D02*
G01*
X155837038Y-42364949D01*
X155756659Y-42284570D01*
X155837038Y-42204190D01*
X155917418Y-42284570D01*
G37*
G36*
X156399697Y-53859253D02*
G01*
X156319317Y-53939633D01*
X156238937Y-53859253D01*
X156319317Y-53778874D01*
X156399697Y-53859253D01*
G37*
G36*
X157846532Y-35371912D02*
G01*
X157766152Y-35452291D01*
X157685773Y-35371912D01*
X157766152Y-35291532D01*
X157846532Y-35371912D01*
G37*
G36*
X158489570Y-47589633D02*
G01*
X158409190Y-47670013D01*
X158328811Y-47589633D01*
X158409190Y-47509253D01*
X158489570Y-47589633D01*
G37*
G36*
X158971849Y-41480772D02*
G01*
X158891469Y-41561152D01*
X158811089Y-41480772D01*
X158891469Y-41400393D01*
X158971849Y-41480772D01*
G37*
G36*
X160579443Y-31192165D02*
G01*
X160499064Y-31272544D01*
X160418684Y-31192165D01*
X160499064Y-31111785D01*
X160579443Y-31192165D01*
G37*
G36*
X160740203Y-67684570D02*
G01*
X160659823Y-67764950D01*
X160579443Y-67684570D01*
X160659823Y-67604190D01*
X160740203Y-67684570D01*
G37*
G36*
X162990836Y-31031405D02*
G01*
X162910456Y-31111785D01*
X162830076Y-31031405D01*
X162910456Y-30951025D01*
X162990836Y-31031405D01*
G37*
G36*
X165241469Y-40676975D02*
G01*
X165161089Y-40757355D01*
X165080709Y-40676975D01*
X165161089Y-40596595D01*
X165241469Y-40676975D01*
G37*
G36*
X166527545Y-63344063D02*
G01*
X166447165Y-63424443D01*
X166366785Y-63344063D01*
X166447165Y-63263684D01*
X166527545Y-63344063D01*
G37*
G36*
X166849064Y-60450393D02*
G01*
X166768684Y-60530772D01*
X166688304Y-60450393D01*
X166768684Y-60370013D01*
X166849064Y-60450393D01*
G37*
G36*
X167009823Y-60932671D02*
G01*
X166929443Y-61013051D01*
X166849064Y-60932671D01*
X166929443Y-60852291D01*
X167009823Y-60932671D01*
G37*
G36*
X167009823Y-64308620D02*
G01*
X166929443Y-64389000D01*
X166849064Y-64308620D01*
X166929443Y-64228241D01*
X167009823Y-64308620D01*
G37*
G36*
X167974380Y-67202291D02*
G01*
X167894000Y-67282671D01*
X167813621Y-67202291D01*
X167894000Y-67121912D01*
X167974380Y-67202291D01*
G37*
G36*
X168778178Y-63665582D02*
G01*
X168697798Y-63745962D01*
X168617418Y-63665582D01*
X168697798Y-63585203D01*
X168778178Y-63665582D01*
G37*
G36*
X168938937Y-35050393D02*
G01*
X168858557Y-35130772D01*
X168778178Y-35050393D01*
X168858557Y-34970013D01*
X168938937Y-35050393D01*
G37*
G36*
X169421216Y-53376975D02*
G01*
X169340836Y-53457355D01*
X169260456Y-53376975D01*
X169340836Y-53296595D01*
X169421216Y-53376975D01*
G37*
G36*
X169581975Y-61414949D02*
G01*
X169501595Y-61495329D01*
X169421216Y-61414949D01*
X169501595Y-61334570D01*
X169581975Y-61414949D01*
G37*
G36*
X171350330Y-38908620D02*
G01*
X171269950Y-38989000D01*
X171189570Y-38908620D01*
X171269950Y-38828241D01*
X171350330Y-38908620D01*
G37*
G36*
X171671849Y-61575709D02*
G01*
X171591469Y-61656089D01*
X171511089Y-61575709D01*
X171591469Y-61495329D01*
X171671849Y-61575709D01*
G37*
G36*
X173440203Y-40676975D02*
G01*
X173359823Y-40757355D01*
X173279443Y-40676975D01*
X173359823Y-40596595D01*
X173440203Y-40676975D01*
G37*
G36*
X173600962Y-61093431D02*
G01*
X173520583Y-61173810D01*
X173440203Y-61093431D01*
X173520583Y-61013051D01*
X173600962Y-61093431D01*
G37*
G36*
X174404760Y-42123810D02*
G01*
X174324380Y-42204190D01*
X174244000Y-42123810D01*
X174324380Y-42043431D01*
X174404760Y-42123810D01*
G37*
G36*
X174887038Y-61897228D02*
G01*
X174806659Y-61977608D01*
X174726279Y-61897228D01*
X174806659Y-61816848D01*
X174887038Y-61897228D01*
G37*
G36*
X175690836Y-59968114D02*
G01*
X175610456Y-60048494D01*
X175530076Y-59968114D01*
X175610456Y-59887734D01*
X175690836Y-59968114D01*
G37*
G36*
X176333874Y-51287101D02*
G01*
X176253494Y-51367481D01*
X176173114Y-51287101D01*
X176253494Y-51206722D01*
X176333874Y-51287101D01*
G37*
G36*
X148361722Y-47991532D02*
G01*
X148350120Y-48076637D01*
X148254549Y-48098705D01*
X148235309Y-48075143D01*
X148254549Y-47884359D01*
X148302903Y-47859208D01*
X148361722Y-47991532D01*
G37*
G36*
X150290836Y-59405456D02*
G01*
X150279234Y-59490561D01*
X150183663Y-59512629D01*
X150164423Y-59489067D01*
X150183663Y-59298283D01*
X150232016Y-59273133D01*
X150290836Y-59405456D01*
G37*
G36*
X151416152Y-45419380D02*
G01*
X151404551Y-45504485D01*
X151308979Y-45526553D01*
X151289740Y-45502991D01*
X151308979Y-45312207D01*
X151357333Y-45287057D01*
X151416152Y-45419380D01*
G37*
G36*
X151967707Y-34029514D02*
G01*
X152015651Y-34102581D01*
X151958777Y-34134438D01*
X151707529Y-34115273D01*
X151633119Y-34057408D01*
X151804654Y-34018147D01*
X151967707Y-34029514D01*
G37*
G36*
X153988304Y-53778874D02*
G01*
X153976703Y-53863979D01*
X153881131Y-53886047D01*
X153861891Y-53862484D01*
X153881131Y-53671701D01*
X153929485Y-53646550D01*
X153988304Y-53778874D01*
G37*
G36*
X154234169Y-38196804D02*
G01*
X154256237Y-38292376D01*
X154232675Y-38311615D01*
X154041891Y-38292376D01*
X154016740Y-38244022D01*
X154149064Y-38185203D01*
X154234169Y-38196804D01*
G37*
G36*
X155359486Y-49771488D02*
G01*
X155381553Y-49867059D01*
X155357991Y-49886299D01*
X155167207Y-49867059D01*
X155142057Y-49818706D01*
X155274380Y-49759886D01*
X155359486Y-49771488D01*
G37*
G36*
X156002524Y-67455032D02*
G01*
X156024591Y-67550604D01*
X156001029Y-67569843D01*
X155810245Y-67550604D01*
X155785095Y-67502250D01*
X155917418Y-67443431D01*
X156002524Y-67455032D01*
G37*
G36*
X158637638Y-58186363D02*
G01*
X158626271Y-58349415D01*
X158553204Y-58397360D01*
X158521348Y-58340485D01*
X158540512Y-58089237D01*
X158598377Y-58014827D01*
X158637638Y-58186363D01*
G37*
G36*
X160986068Y-36910728D02*
G01*
X161008135Y-37006300D01*
X160984573Y-37025539D01*
X160793789Y-37006300D01*
X160768639Y-36957946D01*
X160900962Y-36899127D01*
X160986068Y-36910728D01*
G37*
G36*
X165808853Y-73242374D02*
G01*
X165830920Y-73337945D01*
X165807358Y-73357185D01*
X165616574Y-73337945D01*
X165591424Y-73289592D01*
X165723747Y-73230772D01*
X165808853Y-73242374D01*
G37*
G36*
X166612650Y-63918323D02*
G01*
X166634718Y-64013895D01*
X166611156Y-64033134D01*
X166420372Y-64013895D01*
X166395221Y-63965541D01*
X166527545Y-63906722D01*
X166612650Y-63918323D01*
G37*
G36*
X167094929Y-63596804D02*
G01*
X167116996Y-63692376D01*
X167093434Y-63711615D01*
X166902650Y-63692376D01*
X166877500Y-63644022D01*
X167009823Y-63585203D01*
X167094929Y-63596804D01*
G37*
G36*
X168456659Y-61816848D02*
G01*
X168445057Y-61901954D01*
X168349486Y-61924021D01*
X168330246Y-61900459D01*
X168349486Y-61709675D01*
X168397839Y-61684525D01*
X168456659Y-61816848D01*
G37*
G36*
X168702524Y-67294273D02*
G01*
X168724591Y-67389844D01*
X168701029Y-67409084D01*
X168510245Y-67389844D01*
X168485095Y-67341490D01*
X168617418Y-67282671D01*
X168702524Y-67294273D01*
G37*
G36*
X168778178Y-36577608D02*
G01*
X168766576Y-36662713D01*
X168671005Y-36684781D01*
X168651765Y-36661219D01*
X168671005Y-36470435D01*
X168719358Y-36445284D01*
X168778178Y-36577608D01*
G37*
G36*
X169329732Y-70039641D02*
G01*
X169377677Y-70112708D01*
X169320802Y-70144564D01*
X169069554Y-70125399D01*
X168995144Y-70067535D01*
X169166680Y-70028274D01*
X169329732Y-70039641D01*
G37*
G36*
X170521149Y-65514317D02*
G01*
X170498740Y-65735461D01*
X170440064Y-65715266D01*
X170418831Y-65642498D01*
X170440064Y-65313367D01*
X170495885Y-65286098D01*
X170521149Y-65514317D01*
G37*
G36*
X170953157Y-61506931D02*
G01*
X170975224Y-61602502D01*
X170951662Y-61621742D01*
X170760878Y-61602502D01*
X170735728Y-61554149D01*
X170868051Y-61495329D01*
X170953157Y-61506931D01*
G37*
G36*
X171189570Y-31272544D02*
G01*
X171177968Y-31357650D01*
X171082397Y-31379717D01*
X171063157Y-31356155D01*
X171082397Y-31165371D01*
X171130751Y-31140221D01*
X171189570Y-31272544D01*
G37*
G36*
X171350330Y-61656089D02*
G01*
X171338728Y-61741194D01*
X171243157Y-61763262D01*
X171223917Y-61739700D01*
X171243157Y-61548916D01*
X171291510Y-61523765D01*
X171350330Y-61656089D01*
G37*
G36*
X172078473Y-61185412D02*
G01*
X172100541Y-61280983D01*
X172076978Y-61300223D01*
X171886195Y-61280983D01*
X171861044Y-61232630D01*
X171993368Y-61173810D01*
X172078473Y-61185412D01*
G37*
G36*
X172536031Y-61543121D02*
G01*
X172515836Y-61601797D01*
X172443068Y-61623030D01*
X172113937Y-61601797D01*
X172086667Y-61545976D01*
X172314886Y-61520712D01*
X172536031Y-61543121D01*
G37*
G36*
X173509479Y-50105464D02*
G01*
X173557423Y-50178531D01*
X173500549Y-50210387D01*
X173249301Y-50191222D01*
X173174891Y-50133357D01*
X173346427Y-50094097D01*
X173509479Y-50105464D01*
G37*
G36*
X173909790Y-61562312D02*
G01*
X173898423Y-61725365D01*
X173825356Y-61773309D01*
X173793500Y-61716435D01*
X173812664Y-61465187D01*
X173870529Y-61390777D01*
X173909790Y-61562312D01*
G37*
G36*
X175530076Y-35291532D02*
G01*
X175518475Y-35376637D01*
X175422903Y-35398705D01*
X175403664Y-35375143D01*
X175422903Y-35184359D01*
X175471257Y-35159208D01*
X175530076Y-35291532D01*
G37*
G36*
X150426757Y-43394535D02*
G01*
X150459482Y-43415893D01*
X150607537Y-43574733D01*
X150541463Y-43651025D01*
X150505304Y-43636655D01*
X150355864Y-43465427D01*
X150316750Y-43375587D01*
X150426757Y-43394535D01*
G37*
G36*
X157085604Y-62962113D02*
G01*
X156967402Y-63053845D01*
X156797341Y-63071877D01*
X156798755Y-62999473D01*
X156995611Y-62872121D01*
X157026111Y-62860676D01*
X157187194Y-62826946D01*
X157085604Y-62962113D01*
G37*
G36*
X157728642Y-68588695D02*
G01*
X157610440Y-68680427D01*
X157440379Y-68698459D01*
X157441793Y-68626056D01*
X157638649Y-68498703D01*
X157669148Y-68487259D01*
X157830232Y-68453529D01*
X157728642Y-68588695D01*
G37*
G36*
X157893655Y-47278450D02*
G01*
X158043682Y-47358622D01*
X158091925Y-47478206D01*
X158014437Y-47495423D01*
X157803663Y-47368442D01*
X157782892Y-47347270D01*
X157705843Y-47229505D01*
X157893655Y-47278450D01*
G37*
G36*
X158634191Y-62733904D02*
G01*
X158471658Y-62951418D01*
X158344465Y-63011406D01*
X158365678Y-62892198D01*
X158557294Y-62657008D01*
X158719880Y-62505019D01*
X158771470Y-62492673D01*
X158634191Y-62733904D01*
G37*
G36*
X172772326Y-42590738D02*
G01*
X172805051Y-42612095D01*
X172953106Y-42770935D01*
X172887032Y-42847228D01*
X172850873Y-42832858D01*
X172701434Y-42661630D01*
X172662319Y-42571790D01*
X172772326Y-42590738D01*
G37*
G36*
X176333874Y-59584657D02*
G01*
X176295045Y-59771977D01*
X176142972Y-59850894D01*
X175979401Y-59755266D01*
X175903601Y-59534040D01*
X176085940Y-59349928D01*
X176262372Y-59345296D01*
X176333874Y-59584657D01*
G37*
G36*
X151554314Y-56672544D02*
G01*
X151531052Y-56860177D01*
X151416152Y-57235203D01*
X151319213Y-57405105D01*
X151277991Y-57315582D01*
X151301253Y-57127950D01*
X151416152Y-56752924D01*
X151513092Y-56583022D01*
X151554314Y-56672544D01*
G37*
G36*
X152219950Y-37925088D02*
G01*
X152212716Y-37953353D01*
X152059190Y-38104823D01*
X152002273Y-38134766D01*
X151898431Y-38123798D01*
X151905665Y-38095533D01*
X152059190Y-37944063D01*
X152116108Y-37914120D01*
X152219950Y-37925088D01*
G37*
G36*
X153939092Y-56374609D02*
G01*
X153962166Y-56566042D01*
X153752278Y-56923148D01*
X153591993Y-57084020D01*
X153511138Y-57047401D01*
X153540510Y-56799396D01*
X153671445Y-56487172D01*
X153844744Y-56351025D01*
X153939092Y-56374609D01*
G37*
G36*
X154918948Y-56122345D02*
G01*
X154920587Y-56358602D01*
X154792102Y-56752924D01*
X154719641Y-56908326D01*
X154662124Y-56923577D01*
X154642641Y-56641842D01*
X154676093Y-56328803D01*
X154792102Y-56109886D01*
X154918948Y-56122345D01*
G37*
G36*
X155756659Y-31976987D02*
G01*
X155749425Y-32005252D01*
X155595899Y-32156722D01*
X155538982Y-32186665D01*
X155435140Y-32175697D01*
X155442373Y-32147432D01*
X155595899Y-31995962D01*
X155652816Y-31966019D01*
X155756659Y-31976987D01*
G37*
G36*
X156238937Y-36639012D02*
G01*
X156231703Y-36667277D01*
X156078178Y-36818747D01*
X156021260Y-36848690D01*
X155917418Y-36837722D01*
X155924652Y-36809457D01*
X156078178Y-36657987D01*
X156135095Y-36628044D01*
X156238937Y-36639012D01*
G37*
G36*
X156757597Y-61657932D02*
G01*
X156881975Y-61726981D01*
X156874578Y-61752768D01*
X156721216Y-61897228D01*
X156658943Y-61922347D01*
X156560456Y-61826336D01*
X156566634Y-61779673D01*
X156721216Y-61656089D01*
X156757597Y-61657932D01*
G37*
G36*
X157894642Y-55821363D02*
G01*
X158007292Y-55958614D01*
X158003112Y-55974658D01*
X157846532Y-56029506D01*
X157802470Y-56022964D01*
X157685773Y-55859259D01*
X157698395Y-55801113D01*
X157846532Y-55788367D01*
X157894642Y-55821363D01*
G37*
G36*
X158650330Y-67344076D02*
G01*
X158643096Y-67372340D01*
X158489570Y-67523810D01*
X158432653Y-67553754D01*
X158328811Y-67542785D01*
X158336044Y-67514521D01*
X158489570Y-67363051D01*
X158546487Y-67333107D01*
X158650330Y-67344076D01*
G37*
G36*
X158887610Y-31514975D02*
G01*
X158803720Y-31768591D01*
X158671184Y-31967869D01*
X158553141Y-32032740D01*
X158545659Y-32024053D01*
X158542703Y-31814540D01*
X158666596Y-31558283D01*
X158833945Y-31433304D01*
X158887610Y-31514975D01*
G37*
G36*
X159293368Y-61074455D02*
G01*
X159286134Y-61102720D01*
X159132608Y-61254190D01*
X159075691Y-61284133D01*
X158971849Y-61273165D01*
X158979082Y-61244900D01*
X159132608Y-61093431D01*
X159189525Y-61063487D01*
X159293368Y-61074455D01*
G37*
G36*
X160900962Y-71935209D02*
G01*
X160894785Y-71981872D01*
X160740203Y-72105456D01*
X160703822Y-72103613D01*
X160579443Y-72034564D01*
X160586841Y-72008776D01*
X160740203Y-71864317D01*
X160802475Y-71839197D01*
X160900962Y-71935209D01*
G37*
G36*
X161544000Y-68237740D02*
G01*
X161537823Y-68284403D01*
X161383241Y-68407987D01*
X161346860Y-68406144D01*
X161222481Y-68337095D01*
X161229879Y-68311308D01*
X161383241Y-68166848D01*
X161445513Y-68141729D01*
X161544000Y-68237740D01*
G37*
G36*
X166334299Y-36097969D02*
G01*
X166335386Y-36202708D01*
X166085456Y-36437354D01*
X165968976Y-36527158D01*
X165885728Y-36567077D01*
X166024761Y-36376658D01*
X166171897Y-36205188D01*
X166306090Y-36095329D01*
X166334299Y-36097969D01*
G37*
G36*
X166366785Y-30128666D02*
G01*
X166365014Y-30144340D01*
X166221784Y-30302653D01*
X165971683Y-30426420D01*
X165788429Y-30426256D01*
X165828234Y-30349894D01*
X166052577Y-30179970D01*
X166255421Y-30087758D01*
X166366785Y-30128666D01*
G37*
G36*
X170434366Y-61548002D02*
G01*
X170429022Y-61600777D01*
X170296927Y-61630269D01*
X169946744Y-61606734D01*
X169919103Y-61598779D01*
X169895303Y-61549850D01*
X170144633Y-61526669D01*
X170182704Y-61526448D01*
X170434366Y-61548002D01*
G37*
G36*
X172066399Y-38358348D02*
G01*
X172073747Y-38506722D01*
X172040895Y-38550166D01*
X171813633Y-38667481D01*
X171759577Y-38655095D01*
X171752228Y-38506722D01*
X171785080Y-38463277D01*
X172012343Y-38345962D01*
X172066399Y-38358348D01*
G37*
G36*
X174211514Y-60051133D02*
G01*
X174212601Y-60155873D01*
X173962671Y-60390519D01*
X173846192Y-60480322D01*
X173762943Y-60520242D01*
X173901976Y-60329823D01*
X174049113Y-60158353D01*
X174183305Y-60048494D01*
X174211514Y-60051133D01*
G37*
G36*
X174083241Y-39944070D02*
G01*
X174077063Y-39990732D01*
X173922481Y-40114317D01*
X173886100Y-40112473D01*
X173761722Y-40043424D01*
X173769119Y-40017637D01*
X173922481Y-39873177D01*
X173984754Y-39848058D01*
X174083241Y-39944070D01*
G37*
G36*
X175846672Y-34246595D02*
G01*
X175826868Y-34355426D01*
X175690836Y-34648494D01*
X175601337Y-34757630D01*
X175535000Y-34728874D01*
X175554803Y-34620042D01*
X175690836Y-34326975D01*
X175780335Y-34217839D01*
X175846672Y-34246595D01*
G37*
G36*
X147289992Y-60959464D02*
G01*
X147310256Y-60980782D01*
X147380734Y-61219208D01*
X147156026Y-61495329D01*
X147058167Y-61568216D01*
X146942017Y-61556801D01*
X146914887Y-61273874D01*
X146937217Y-61041949D01*
X147067981Y-60855367D01*
X147289992Y-60959464D01*
G37*
G36*
X147783675Y-56672544D02*
G01*
X147888692Y-57137420D01*
X147844747Y-57516532D01*
X147761081Y-57675206D01*
X147672838Y-57796604D01*
X147657456Y-57730564D01*
X147632554Y-57424155D01*
X147611766Y-56952617D01*
X147585227Y-56109886D01*
X147783675Y-56672544D01*
G37*
G36*
X159514364Y-73103018D02*
G01*
X159619457Y-73246609D01*
X159652751Y-73524734D01*
X159564865Y-73659005D01*
X159434217Y-73525580D01*
X159379761Y-73422673D01*
X159295829Y-73103864D01*
X159295783Y-73099071D01*
X159337793Y-72977107D01*
X159514364Y-73103018D01*
G37*
G36*
X155844937Y-45902890D02*
G01*
X155811526Y-46255376D01*
X155753091Y-46537032D01*
X155668013Y-46813021D01*
X155614490Y-46774944D01*
X155595899Y-46420218D01*
X155595901Y-46417800D01*
X155642664Y-46037688D01*
X155754238Y-45822775D01*
X155767937Y-45815513D01*
X155844937Y-45902890D01*
G37*
G36*
X170318758Y-63662318D02*
G01*
X170431900Y-63987101D01*
X170479860Y-64181379D01*
X170527884Y-64358298D01*
X170527399Y-64368719D01*
X170404968Y-64320484D01*
X170292686Y-64160802D01*
X170183791Y-63816528D01*
X170162553Y-63629272D01*
X170211414Y-63530968D01*
X170318758Y-63662318D01*
G37*
G36*
X175585574Y-41299403D02*
G01*
X175744091Y-41353362D01*
X175981206Y-41563056D01*
X175942516Y-41799033D01*
X175623171Y-41974224D01*
X175144457Y-42031976D01*
X174783874Y-41948607D01*
X174645899Y-41737231D01*
X174783648Y-41446564D01*
X175130775Y-41284516D01*
X175585574Y-41299403D01*
G37*
G36*
X173180485Y-60054613D02*
G01*
X173257099Y-60233072D01*
X173275999Y-60557638D01*
X173238808Y-60885997D01*
X173147151Y-61075837D01*
X173128228Y-61081841D01*
X173051577Y-60946987D01*
X173026581Y-60603519D01*
X173028819Y-60537827D01*
X173075639Y-60190696D01*
X173158874Y-60048967D01*
X173180485Y-60054613D01*
G37*
G36*
X156811941Y-49873837D02*
G01*
X156911762Y-50048633D01*
X157068215Y-50389886D01*
X157088666Y-50562727D01*
X157044159Y-50578187D01*
X156926949Y-50443114D01*
X156887654Y-50369616D01*
X156667629Y-50241798D01*
X156663879Y-50241694D01*
X156528711Y-50095080D01*
X156462672Y-49753857D01*
X156445268Y-49266283D01*
X156811941Y-49873837D01*
G37*
G36*
X158404481Y-61690771D02*
G01*
X158370197Y-61754162D01*
X158107820Y-62023056D01*
X157711606Y-62295425D01*
X157511882Y-62407909D01*
X157280115Y-62530902D01*
X157292442Y-62496069D01*
X157525013Y-62304579D01*
X157872832Y-62012248D01*
X158217888Y-61699924D01*
X158360777Y-61565570D01*
X158456888Y-61514866D01*
X158404481Y-61690771D01*
G37*
G36*
X174439801Y-39968110D02*
G01*
X174619811Y-40154506D01*
X174651766Y-40233642D01*
X174713587Y-40386158D01*
X174699091Y-40410981D01*
X174525330Y-40532502D01*
X174440071Y-40572831D01*
X174443555Y-40516591D01*
X174479230Y-40416737D01*
X174383681Y-40169298D01*
X174299679Y-40039702D01*
X174371679Y-39953557D01*
X174439801Y-39968110D01*
G37*
G36*
X163025718Y-59421080D02*
G01*
X163312575Y-59781302D01*
X163460013Y-60327382D01*
X163370366Y-60677308D01*
X163031422Y-60826784D01*
X162436028Y-60783991D01*
X162386550Y-60773874D01*
X161934016Y-60559760D01*
X161747247Y-60203860D01*
X161852148Y-59751960D01*
X161859913Y-59737735D01*
X162194733Y-59397193D01*
X162618219Y-59292343D01*
X163025718Y-59421080D01*
G37*
G36*
X176164469Y-52814356D02*
G01*
X176284188Y-52958021D01*
X176333874Y-53296595D01*
X176284176Y-53635086D01*
X176092735Y-53778874D01*
X175981804Y-53760737D01*
X175851595Y-53618114D01*
X175858424Y-53573294D01*
X176023188Y-53457355D01*
X176108110Y-53394730D01*
X176092735Y-53135836D01*
X176063834Y-52939472D01*
X176162281Y-52814317D01*
X176164469Y-52814356D01*
G37*
G36*
X151331960Y-55881537D02*
G01*
X151293397Y-56008259D01*
X151054443Y-56242276D01*
X151010110Y-56279716D01*
X150727781Y-56584205D01*
X150612355Y-56831305D01*
X150573746Y-56973195D01*
X150411405Y-56854273D01*
X150333478Y-56742037D01*
X150378226Y-56545930D01*
X150661509Y-56259463D01*
X150723776Y-56207080D01*
X151064995Y-55968477D01*
X151304547Y-55874528D01*
X151331960Y-55881537D01*
G37*
G36*
X170222177Y-48187081D02*
G01*
X170440064Y-48353241D01*
X170470370Y-48432625D01*
X170524878Y-48746555D01*
X170393489Y-48973607D01*
X170031757Y-49155498D01*
X169395237Y-49333944D01*
X169168913Y-49377377D01*
X169013866Y-49308667D01*
X169014546Y-49007498D01*
X169112823Y-48682235D01*
X169352580Y-48364964D01*
X169449852Y-48302852D01*
X169849216Y-48170747D01*
X170222177Y-48187081D01*
G37*
G36*
X176333874Y-36818747D02*
G01*
X176332970Y-36928339D01*
X176286925Y-37450842D01*
X176177061Y-37670677D01*
X176011477Y-37582372D01*
X175798275Y-37180456D01*
X175789652Y-37160135D01*
X175559693Y-36737196D01*
X175313839Y-36437354D01*
X175201820Y-36336966D01*
X175064244Y-36107769D01*
X175225134Y-35976459D01*
X175690836Y-35934570D01*
X176333874Y-35934570D01*
X176333874Y-36818747D01*
G37*
G36*
X168540238Y-52030157D02*
G01*
X168573073Y-52071391D01*
X168315453Y-52183922D01*
X168106383Y-52293282D01*
X167993814Y-52503999D01*
X168024601Y-52900752D01*
X168036606Y-52981830D01*
X168045664Y-53301830D01*
X167964858Y-53371090D01*
X167941789Y-53352966D01*
X167835961Y-53087710D01*
X167823444Y-52677148D01*
X167911200Y-52264806D01*
X168034980Y-52117169D01*
X168353288Y-52020709D01*
X168540238Y-52030157D01*
G37*
G36*
X175926037Y-60659575D02*
G01*
X175998404Y-60697541D01*
X176258503Y-60961572D01*
X176353507Y-61278377D01*
X176274448Y-61544401D01*
X176012355Y-61656089D01*
X175825092Y-61693472D01*
X175690836Y-61854530D01*
X175680496Y-61886668D01*
X175572318Y-61794353D01*
X175384406Y-61492821D01*
X175217085Y-61152764D01*
X175177230Y-60899589D01*
X175298088Y-60703212D01*
X175339537Y-60662506D01*
X175578950Y-60556320D01*
X175926037Y-60659575D01*
G37*
G36*
X154420305Y-56297286D02*
G01*
X154403261Y-56632355D01*
X154381613Y-56985777D01*
X154468406Y-57315582D01*
X154572816Y-57481025D01*
X154606745Y-57609140D01*
X154444624Y-57596912D01*
X154284963Y-57674387D01*
X154125371Y-57958620D01*
X154059898Y-58128289D01*
X154035860Y-58073443D01*
X154069181Y-57717481D01*
X154077820Y-57641984D01*
X154126493Y-57092716D01*
X154147294Y-56632355D01*
X154196115Y-56328952D01*
X154322596Y-56190266D01*
X154420305Y-56297286D01*
G37*
G36*
X155321836Y-53486147D02*
G01*
X155701832Y-53561938D01*
X155899071Y-53740380D01*
X155977041Y-53907978D01*
X155997236Y-54074161D01*
X155976001Y-54087031D01*
X155742833Y-54085432D01*
X155399273Y-54006946D01*
X155088292Y-53891810D01*
X154952861Y-53780256D01*
X154851677Y-53702815D01*
X154550962Y-53690543D01*
X154285241Y-53690142D01*
X154149064Y-53617010D01*
X154201362Y-53574034D01*
X154489933Y-53513019D01*
X154946572Y-53481393D01*
X155321836Y-53486147D01*
G37*
G36*
X159498881Y-29725432D02*
G01*
X159695266Y-29986468D01*
X159785692Y-30175149D01*
X159956726Y-30307987D01*
X160010207Y-30320340D01*
X160016785Y-30468747D01*
X159994674Y-30540229D01*
X160127867Y-30635203D01*
X160175778Y-30654188D01*
X160093751Y-30760555D01*
X159864718Y-30910068D01*
X159584707Y-31044617D01*
X159349745Y-31106088D01*
X159295140Y-31079922D01*
X159179654Y-30829565D01*
X159107447Y-30388367D01*
X159091953Y-29942344D01*
X159155298Y-29721468D01*
X159321566Y-29664950D01*
X159498881Y-29725432D01*
G37*
G36*
X147287176Y-33126264D02*
G01*
X147321880Y-33326730D01*
X147305215Y-33468801D01*
X147484071Y-33462538D01*
X147626319Y-33432003D01*
X147620282Y-33552338D01*
X147586812Y-33652741D01*
X147739812Y-33648539D01*
X147890253Y-33641712D01*
X147997332Y-33862359D01*
X147969984Y-34037166D01*
X147762279Y-34166215D01*
X147642080Y-34150957D01*
X147606059Y-34064494D01*
X147610960Y-34058574D01*
X147556077Y-33893626D01*
X147311334Y-33650927D01*
X147001755Y-33361358D01*
X146939020Y-33162888D01*
X147162944Y-33094485D01*
X147287176Y-33126264D01*
G37*
G36*
X173557008Y-38395979D02*
G01*
X173630314Y-38458136D01*
X173859808Y-38584937D01*
X173987971Y-38476359D01*
X174036744Y-38428763D01*
X174019694Y-38627291D01*
X174010391Y-38856638D01*
X174098291Y-38989000D01*
X174186465Y-39068675D01*
X174231309Y-39350709D01*
X174202543Y-39538908D01*
X174137199Y-39510467D01*
X174085271Y-39433909D01*
X173883912Y-39414736D01*
X173802600Y-39446533D01*
X173836196Y-39320075D01*
X173848296Y-39294760D01*
X173813981Y-39008815D01*
X173592614Y-38612008D01*
X173541819Y-38541776D01*
X173360045Y-38278244D01*
X173366629Y-38238871D01*
X173557008Y-38395979D01*
G37*
G36*
X151559930Y-46062418D02*
G01*
X151794725Y-46436586D01*
X151900553Y-46785836D01*
X151955970Y-47080246D01*
X152123821Y-47493519D01*
X152243432Y-47818621D01*
X152257372Y-48187310D01*
X152258552Y-48492580D01*
X152392960Y-48898599D01*
X152515701Y-49111819D01*
X152626323Y-49185935D01*
X152724691Y-49008605D01*
X152765783Y-48906869D01*
X152830575Y-48815896D01*
X152849227Y-49036468D01*
X152835194Y-49233987D01*
X152732575Y-49555528D01*
X152616658Y-49645973D01*
X152420009Y-49559284D01*
X152228571Y-49277353D01*
X152085407Y-48870746D01*
X152033575Y-48410030D01*
X152033917Y-48385953D01*
X151895359Y-47303443D01*
X151462631Y-46142798D01*
X151228578Y-45660519D01*
X151559930Y-46062418D01*
G37*
G36*
X167665414Y-61657372D02*
G01*
X167703858Y-61801679D01*
X167571731Y-62139819D01*
X167566372Y-62150229D01*
X167414303Y-62588210D01*
X167487223Y-62933048D01*
X167579982Y-63145661D01*
X167647165Y-63454064D01*
X167646990Y-63459240D01*
X167593287Y-63527385D01*
X167477049Y-63379811D01*
X167340591Y-63102249D01*
X167226229Y-62780427D01*
X167176279Y-62500076D01*
X167158620Y-62366093D01*
X166946677Y-62136458D01*
X166493140Y-62117401D01*
X166447180Y-62087896D01*
X166475322Y-61881820D01*
X166544072Y-61767885D01*
X166670486Y-61774905D01*
X166912097Y-61975616D01*
X167203500Y-62024726D01*
X167393372Y-61887077D01*
X167450744Y-61784205D01*
X167651944Y-61656089D01*
X167665414Y-61657372D01*
G37*
G36*
X149571668Y-63033641D02*
G01*
X149578169Y-63318558D01*
X149511924Y-63483409D01*
X149291698Y-63841024D01*
X148964404Y-64305543D01*
X148578532Y-64815187D01*
X148182570Y-65308180D01*
X147825005Y-65722744D01*
X147554324Y-65997102D01*
X147419017Y-66069476D01*
X147442171Y-65939541D01*
X147596684Y-65639090D01*
X147826170Y-65273402D01*
X148066526Y-64943721D01*
X148253649Y-64751290D01*
X148283410Y-64730056D01*
X148532344Y-64500145D01*
X148844000Y-64161895D01*
X149049177Y-63909098D01*
X149103692Y-63775873D01*
X148952772Y-63800082D01*
X148795680Y-63835165D01*
X148813380Y-63730721D01*
X149033152Y-63432820D01*
X149094255Y-63357081D01*
X149353452Y-63071292D01*
X149513072Y-62951059D01*
X149571668Y-63033641D01*
G37*
G36*
X148294606Y-61466159D02*
G01*
X148623012Y-61667005D01*
X149044950Y-61928117D01*
X149201182Y-62034947D01*
X149519739Y-62332349D01*
X149645336Y-62582472D01*
X149621035Y-62738851D01*
X149519973Y-62668431D01*
X149490688Y-62644913D01*
X149273367Y-62729102D01*
X148874026Y-63071220D01*
X148290322Y-63673178D01*
X147961509Y-64022777D01*
X147529785Y-64460456D01*
X147208231Y-64760145D01*
X147049229Y-64871279D01*
X147032666Y-64861725D01*
X146972731Y-64646510D01*
X146930722Y-64205844D01*
X146914887Y-63616738D01*
X146917288Y-63165977D01*
X146943702Y-62686127D01*
X147023820Y-62367852D01*
X147187263Y-62114723D01*
X147463654Y-61830312D01*
X147552320Y-61746844D01*
X147959206Y-61450424D01*
X148227262Y-61425750D01*
X148294606Y-61466159D01*
G37*
G36*
X163169330Y-29701817D02*
G01*
X163761173Y-29767358D01*
X164151336Y-29864940D01*
X164269624Y-29919413D01*
X164454043Y-30048902D01*
X164347124Y-30122114D01*
X164204499Y-30127615D01*
X163906165Y-30001545D01*
X163893844Y-29990731D01*
X163646066Y-29899725D01*
X163251773Y-29842582D01*
X162826764Y-29824723D01*
X162486839Y-29851573D01*
X162347798Y-29928556D01*
X162406717Y-30039898D01*
X162629127Y-30263199D01*
X162756422Y-30370366D01*
X162808311Y-30448622D01*
X162588937Y-30383633D01*
X162588528Y-30383491D01*
X162109699Y-30262930D01*
X161843796Y-30329758D01*
X161732633Y-30598582D01*
X161637033Y-30870334D01*
X161488188Y-30892941D01*
X161342623Y-30681690D01*
X161254023Y-30273091D01*
X161205186Y-29700390D01*
X162447805Y-29681711D01*
X162495071Y-29681145D01*
X163169330Y-29701817D01*
G37*
G36*
X154438680Y-47386609D02*
G01*
X154476037Y-47710203D01*
X154485028Y-47806670D01*
X154596146Y-48231337D01*
X154792102Y-48714950D01*
X154876207Y-48892790D01*
X155040402Y-49268104D01*
X155108166Y-49469070D01*
X155065129Y-49610450D01*
X154866920Y-49665093D01*
X154629873Y-49516977D01*
X154491102Y-49391409D01*
X154200272Y-49277608D01*
X154100843Y-49260709D01*
X154055488Y-49138200D01*
X154087784Y-49035631D01*
X154126872Y-48755139D01*
X154321122Y-48755139D01*
X154349506Y-48981046D01*
X154470583Y-49116848D01*
X154507944Y-49115726D01*
X154620043Y-49076658D01*
X154585385Y-48987660D01*
X154470583Y-48714950D01*
X154402910Y-48562907D01*
X154340009Y-48504687D01*
X154321122Y-48755139D01*
X154126872Y-48755139D01*
X154138411Y-48672332D01*
X154170852Y-48173643D01*
X154196172Y-47857696D01*
X154269719Y-47504437D01*
X154340009Y-47371080D01*
X154360231Y-47332714D01*
X154438680Y-47386609D01*
G37*
G36*
X170139358Y-51699143D02*
G01*
X170167052Y-51945785D01*
X170381800Y-52248063D01*
X170551531Y-52381856D01*
X170840184Y-52464812D01*
X171256802Y-52378093D01*
X171478017Y-52317901D01*
X171809578Y-52305003D01*
X172055616Y-52463184D01*
X172125457Y-52535985D01*
X172224140Y-52743161D01*
X172070461Y-52978707D01*
X171919726Y-53243147D01*
X171832608Y-53670962D01*
X171789787Y-53962021D01*
X171671849Y-54100393D01*
X171598474Y-54126942D01*
X171511089Y-54339694D01*
X171507120Y-54398918D01*
X171332184Y-54778987D01*
X170986962Y-55094214D01*
X170594452Y-55225709D01*
X170532603Y-55219572D01*
X170218384Y-55022237D01*
X169938718Y-54614719D01*
X169743405Y-54089168D01*
X169682245Y-53537734D01*
X169700042Y-53112155D01*
X169722664Y-52563713D01*
X169799388Y-52151212D01*
X169984268Y-51759916D01*
X169984738Y-51759309D01*
X170141494Y-51592774D01*
X170139358Y-51699143D01*
G37*
G36*
X153306513Y-56432379D02*
G01*
X153335221Y-56625841D01*
X153260747Y-56925844D01*
X153094381Y-57232075D01*
X152971320Y-57471486D01*
X152951508Y-57995682D01*
X152993038Y-58435936D01*
X152940638Y-58904752D01*
X152810413Y-59262828D01*
X152626503Y-59405456D01*
X152471386Y-59494945D01*
X152326828Y-59785663D01*
X152274138Y-60143043D01*
X152351469Y-60425580D01*
X152404754Y-60662026D01*
X152294845Y-61090688D01*
X152277103Y-61132568D01*
X152177944Y-61337993D01*
X152128660Y-61331872D01*
X152118901Y-61077732D01*
X152138317Y-60539099D01*
X152162162Y-60179577D01*
X152262146Y-59611546D01*
X152432151Y-59326357D01*
X152535978Y-59207397D01*
X152666844Y-58889523D01*
X152740265Y-58502968D01*
X152748986Y-58142320D01*
X152685753Y-57902169D01*
X152543310Y-57877103D01*
X152458990Y-57872074D01*
X152491925Y-57695514D01*
X152623028Y-57433098D01*
X152813803Y-57183530D01*
X152918911Y-57047398D01*
X153023747Y-56750929D01*
X153034620Y-56664817D01*
X153184507Y-56431405D01*
X153306513Y-56432379D01*
G37*
G36*
X149961476Y-30952950D02*
G01*
X150016758Y-31164651D01*
X150133101Y-31591807D01*
X150206424Y-31835203D01*
X150259556Y-32004696D01*
X150242568Y-32173921D01*
X150049697Y-32076342D01*
X150000082Y-32036570D01*
X149844978Y-31982202D01*
X149808557Y-32207930D01*
X149780039Y-32413600D01*
X149647798Y-32639000D01*
X149604748Y-32671802D01*
X149487038Y-32907436D01*
X149488287Y-32920728D01*
X149593569Y-32908942D01*
X149816509Y-32697000D01*
X150145980Y-32317481D01*
X149898032Y-32829755D01*
X149767498Y-33074905D01*
X149518955Y-33393983D01*
X149342072Y-33442290D01*
X149262248Y-33253369D01*
X149304885Y-32860763D01*
X149495382Y-32298017D01*
X149545981Y-32178437D01*
X149695077Y-31765589D01*
X149706550Y-31527361D01*
X149589664Y-31372828D01*
X149499189Y-31284320D01*
X149449577Y-31073329D01*
X149518271Y-30867415D01*
X149682145Y-30867415D01*
X149701384Y-31058198D01*
X149749738Y-31083349D01*
X149808557Y-30951025D01*
X149796956Y-30865920D01*
X149701384Y-30843852D01*
X149682145Y-30867415D01*
X149518271Y-30867415D01*
X149570181Y-30711811D01*
X149701384Y-30404941D01*
X149775557Y-30231458D01*
X149961476Y-30952950D01*
G37*
G36*
X169052703Y-61456336D02*
G01*
X169279811Y-61724561D01*
X169307440Y-61758585D01*
X169601168Y-62015843D01*
X169844457Y-62072042D01*
X169899827Y-62054884D01*
X170002645Y-62117903D01*
X169959069Y-62421105D01*
X169887177Y-62758310D01*
X169849908Y-63059860D01*
X169844061Y-63136948D01*
X169782734Y-63196511D01*
X169644723Y-63212914D01*
X169411383Y-63393140D01*
X169194982Y-63645416D01*
X169099697Y-63867413D01*
X169068405Y-64010633D01*
X168923115Y-64390405D01*
X168699397Y-64868123D01*
X168561892Y-65162677D01*
X168431176Y-65563009D01*
X168458257Y-65756444D01*
X168533930Y-65836566D01*
X168615048Y-66126652D01*
X168613289Y-66169981D01*
X168554544Y-66231743D01*
X168403968Y-65996595D01*
X168310860Y-65729849D01*
X168319806Y-65343037D01*
X168480152Y-64829000D01*
X168806745Y-64118516D01*
X168877732Y-63905757D01*
X168889776Y-63580352D01*
X168806798Y-63349042D01*
X168650711Y-63323487D01*
X168539571Y-63285493D01*
X168487863Y-63042355D01*
X168499089Y-62698002D01*
X168569234Y-62361342D01*
X168694284Y-62141283D01*
X168823572Y-61984789D01*
X168938937Y-61614725D01*
X168957505Y-61431752D01*
X169052703Y-61456336D01*
G37*
G36*
X160565518Y-62063923D02*
G01*
X160543584Y-62374035D01*
X160483393Y-62891800D01*
X160399871Y-63511796D01*
X160307948Y-64128603D01*
X160222549Y-64636798D01*
X160158602Y-64930961D01*
X160121461Y-65042076D01*
X160034463Y-65151997D01*
X159903781Y-64968032D01*
X159884828Y-64936196D01*
X159662239Y-64770005D01*
X159269091Y-64796231D01*
X158931463Y-64827010D01*
X158518963Y-64659941D01*
X158274458Y-64499583D01*
X157846532Y-64345170D01*
X157645320Y-64302559D01*
X157654095Y-64270835D01*
X157967102Y-64250133D01*
X158007937Y-64248876D01*
X158349428Y-64281815D01*
X158489570Y-64377213D01*
X158508133Y-64454424D01*
X158722817Y-64573731D01*
X159106891Y-64555303D01*
X159570741Y-64397461D01*
X159589209Y-64388417D01*
X159949874Y-64128980D01*
X160093210Y-63852401D01*
X160055970Y-63673001D01*
X159876681Y-63614797D01*
X159470625Y-63662795D01*
X159342968Y-63681080D01*
X158954777Y-63691239D01*
X158754034Y-63622943D01*
X158625106Y-63564980D01*
X158249875Y-63521611D01*
X157732790Y-63523219D01*
X156801595Y-63569201D01*
X157752632Y-63418892D01*
X157967369Y-63387747D01*
X158580285Y-63349580D01*
X158901611Y-63432860D01*
X159020798Y-63489386D01*
X159368002Y-63443337D01*
X159766524Y-63215424D01*
X160129338Y-62864057D01*
X160369420Y-62447649D01*
X160406841Y-62343606D01*
X160518451Y-62082680D01*
X160565406Y-62057987D01*
X160565518Y-62063923D01*
G37*
G36*
X153351469Y-43803418D02*
G01*
X153407682Y-44047924D01*
X153449637Y-44533648D01*
X153479549Y-45287326D01*
X153499633Y-46335695D01*
X153514804Y-46649407D01*
X153577239Y-47065356D01*
X153669108Y-47269550D01*
X153747441Y-47461042D01*
X153804283Y-47883805D01*
X153825083Y-48443108D01*
X153824881Y-48496341D01*
X153805882Y-49052121D01*
X153754301Y-49306655D01*
X153666785Y-49277608D01*
X153636978Y-49232720D01*
X153532878Y-49146577D01*
X153501382Y-49357987D01*
X153477092Y-49468648D01*
X153366615Y-49396741D01*
X153155300Y-49036468D01*
X153058833Y-48859268D01*
X152829297Y-48488590D01*
X152667371Y-48295680D01*
X152578240Y-48123623D01*
X152471096Y-47715500D01*
X152377749Y-47170364D01*
X152365487Y-47104123D01*
X152575816Y-47104123D01*
X152595055Y-47294907D01*
X152643409Y-47320058D01*
X152702228Y-47187734D01*
X152690627Y-47102629D01*
X152595055Y-47080561D01*
X152575816Y-47104123D01*
X152365487Y-47104123D01*
X152273148Y-46605315D01*
X151959233Y-45634389D01*
X151519745Y-44799773D01*
X150997018Y-44192765D01*
X150531975Y-43801643D01*
X151073932Y-44114220D01*
X151158708Y-44168083D01*
X151589443Y-44563506D01*
X151923620Y-45043658D01*
X151969262Y-45134692D01*
X152242880Y-45667751D01*
X152488336Y-46129262D01*
X152528042Y-46209140D01*
X152595055Y-46417655D01*
X152692584Y-46721123D01*
X152774169Y-47282601D01*
X152857741Y-47804606D01*
X153227352Y-48501833D01*
X153651688Y-49036468D01*
X153659236Y-48362728D01*
X153656331Y-48203359D01*
X153601064Y-47797113D01*
X153496828Y-47583948D01*
X153428011Y-47458898D01*
X153361701Y-47084223D01*
X153342249Y-46569714D01*
X153342246Y-46271163D01*
X153312764Y-45484378D01*
X153252879Y-44756880D01*
X153221901Y-44371863D01*
X153228306Y-43961196D01*
X153286888Y-43767485D01*
X153351469Y-43803418D01*
G37*
G36*
X171797461Y-35554938D02*
G01*
X171977315Y-35674152D01*
X172154127Y-35689316D01*
X172275968Y-35699765D01*
X172315568Y-35686631D01*
X172434044Y-35716973D01*
X172470574Y-35938406D01*
X172439598Y-36413938D01*
X172421441Y-36709858D01*
X172439287Y-37077156D01*
X172508732Y-37220646D01*
X172561973Y-37240123D01*
X172540953Y-37405793D01*
X172535057Y-37569848D01*
X172722951Y-37807692D01*
X172869013Y-37917808D01*
X172923593Y-38010556D01*
X172707321Y-38029332D01*
X172549790Y-38034415D01*
X172493308Y-38076810D01*
X172716785Y-38212595D01*
X172936003Y-38348242D01*
X173319633Y-38634521D01*
X173344215Y-38656192D01*
X173561449Y-38912249D01*
X173570692Y-39064697D01*
X173364906Y-39049086D01*
X173257745Y-38986881D01*
X173163957Y-38794796D01*
X173117743Y-38684903D01*
X172866143Y-38574308D01*
X172507615Y-38468348D01*
X172070815Y-38277626D01*
X171680018Y-38134579D01*
X171405621Y-38206024D01*
X171270002Y-38253989D01*
X171004399Y-38139082D01*
X170779122Y-37944063D01*
X171028811Y-37944063D01*
X171109190Y-38024443D01*
X171162776Y-37970857D01*
X172046954Y-37970857D01*
X172070516Y-37990096D01*
X172261300Y-37970857D01*
X172286450Y-37922503D01*
X172154127Y-37863684D01*
X172069021Y-37875285D01*
X172046954Y-37970857D01*
X171162776Y-37970857D01*
X171189570Y-37944063D01*
X171109190Y-37863684D01*
X171028811Y-37944063D01*
X170779122Y-37944063D01*
X170601363Y-37790180D01*
X170594735Y-37783304D01*
X171511089Y-37783304D01*
X171591469Y-37863684D01*
X171671849Y-37783304D01*
X171591469Y-37702924D01*
X171511089Y-37783304D01*
X170594735Y-37783304D01*
X170374479Y-37554816D01*
X170222789Y-37348793D01*
X170275035Y-37311621D01*
X170457846Y-37343782D01*
X170461414Y-37185888D01*
X170444443Y-37130307D01*
X170479286Y-36703931D01*
X170720640Y-36201579D01*
X171109190Y-35739489D01*
X171123729Y-35722198D01*
X171408974Y-35482722D01*
X171591469Y-35430115D01*
X171610148Y-35424730D01*
X171797461Y-35554938D01*
G37*
G36*
X165320316Y-30355422D02*
G01*
X165362045Y-30442334D01*
X165143908Y-30556942D01*
X165000638Y-30605846D01*
X164509502Y-30867596D01*
X164296977Y-31165521D01*
X164374804Y-31464275D01*
X164754726Y-31728511D01*
X164802970Y-31750652D01*
X165085881Y-31935347D01*
X165152512Y-32090220D01*
X165131366Y-32140138D01*
X165223993Y-32237101D01*
X165344104Y-32187856D01*
X165550111Y-31955772D01*
X165615316Y-31846005D01*
X165700645Y-31760175D01*
X165718859Y-31955772D01*
X165723860Y-32005931D01*
X165896373Y-32199754D01*
X166259654Y-32222992D01*
X166739063Y-32067473D01*
X166932930Y-31975944D01*
X166987223Y-31973569D01*
X166778148Y-32147853D01*
X166525996Y-32300836D01*
X166175300Y-32397861D01*
X166103135Y-32404707D01*
X165912622Y-32553604D01*
X165920607Y-32793644D01*
X166136242Y-32986830D01*
X166177740Y-32997317D01*
X166493101Y-32904442D01*
X166907503Y-32579886D01*
X167138262Y-32367770D01*
X167438949Y-32139353D01*
X167580381Y-32093635D01*
X167528929Y-32232696D01*
X167250962Y-32558620D01*
X166788910Y-33040899D01*
X167341455Y-33062791D01*
X167511161Y-33072032D01*
X167679822Y-33104731D01*
X167532292Y-33154352D01*
X167267345Y-33299674D01*
X167189142Y-33584360D01*
X167293853Y-33933428D01*
X167544663Y-34277443D01*
X167904755Y-34546972D01*
X168337312Y-34672581D01*
X168463818Y-34683821D01*
X168507018Y-34714813D01*
X168241493Y-34765010D01*
X167936403Y-34765389D01*
X167466313Y-34544776D01*
X167173607Y-34361172D01*
X166716922Y-34238091D01*
X166713345Y-34237936D01*
X166368293Y-34140820D01*
X166231617Y-33845498D01*
X166157120Y-33584934D01*
X165950288Y-33244474D01*
X165904694Y-33199771D01*
X165752015Y-33104953D01*
X165703652Y-33270555D01*
X165665709Y-33633149D01*
X165603140Y-33808359D01*
X165482608Y-33846741D01*
X165344085Y-33758352D01*
X165030007Y-33494412D01*
X164602878Y-33109906D01*
X164121516Y-32660613D01*
X163644737Y-32202314D01*
X163231359Y-31790789D01*
X162940200Y-31481818D01*
X162830076Y-31331181D01*
X162957155Y-31290570D01*
X163283364Y-31272544D01*
X163629331Y-31201836D01*
X164082395Y-30874905D01*
X164437450Y-30570703D01*
X164842290Y-30373320D01*
X165080224Y-30333649D01*
X165320316Y-30355422D01*
G37*
G36*
X158635843Y-30174774D02*
G01*
X158672158Y-30281633D01*
X158800335Y-30790631D01*
X158759133Y-31040671D01*
X158547211Y-31044925D01*
X158516923Y-31033523D01*
X158370913Y-31011640D01*
X158476137Y-31175978D01*
X158487777Y-31190495D01*
X158549500Y-31377173D01*
X158430498Y-31621694D01*
X158096976Y-31997257D01*
X158029002Y-32068034D01*
X157650280Y-32515866D01*
X157529328Y-32788236D01*
X157668573Y-32880139D01*
X157750145Y-32848796D01*
X157907592Y-32631377D01*
X158102754Y-32414215D01*
X158464401Y-32221786D01*
X158828668Y-32011463D01*
X159136724Y-31666752D01*
X159250451Y-31483912D01*
X159447177Y-31295647D01*
X159563355Y-31328068D01*
X159534828Y-31593052D01*
X159526371Y-31620386D01*
X159511320Y-31829804D01*
X159693993Y-31813446D01*
X159819209Y-31726790D01*
X159870310Y-31492939D01*
X159862384Y-31319433D01*
X160052590Y-31295589D01*
X160420865Y-31471974D01*
X160618216Y-31666817D01*
X160733006Y-32086455D01*
X160594955Y-32539026D01*
X160499113Y-32634230D01*
X160266045Y-32644019D01*
X160039669Y-32545678D01*
X159557751Y-32465869D01*
X159019903Y-32476865D01*
X158519775Y-32566629D01*
X158151021Y-32723124D01*
X158007292Y-32934316D01*
X157937942Y-33095156D01*
X157685773Y-33325110D01*
X157488744Y-33505708D01*
X157358472Y-33805869D01*
X157353430Y-33851790D01*
X157218456Y-34182841D01*
X156958640Y-34568114D01*
X156794716Y-34755240D01*
X156535306Y-34948394D01*
X156188735Y-35034449D01*
X155638156Y-35056633D01*
X154998201Y-35090698D01*
X154477247Y-35221110D01*
X154194246Y-35469048D01*
X154108874Y-35855581D01*
X154072488Y-36097481D01*
X153812992Y-36605732D01*
X153375402Y-37061616D01*
X152844767Y-37363668D01*
X152502620Y-37464589D01*
X152401411Y-37446175D01*
X152571165Y-37309747D01*
X153003920Y-37070001D01*
X153447519Y-36792998D01*
X153769627Y-36389042D01*
X153892798Y-35834976D01*
X153916705Y-35494242D01*
X153069468Y-35785735D01*
X152766461Y-35902156D01*
X152161197Y-36191572D01*
X151683448Y-36488177D01*
X151440941Y-36655374D01*
X151026766Y-36855178D01*
X150727495Y-36890023D01*
X150612355Y-36743413D01*
X150650285Y-36675876D01*
X150863091Y-36683915D01*
X150874572Y-36687874D01*
X151173647Y-36636543D01*
X151546319Y-36376172D01*
X151853977Y-36143938D01*
X152343426Y-35851534D01*
X152884057Y-35576210D01*
X153369585Y-35371648D01*
X153693730Y-35291532D01*
X153711451Y-35289706D01*
X153953108Y-35180106D01*
X154298324Y-34953095D01*
X154625963Y-34745242D01*
X154920105Y-34704467D01*
X155333180Y-34823339D01*
X155562932Y-34901217D01*
X155858318Y-34941356D01*
X156131485Y-34832391D01*
X156514499Y-34542981D01*
X156968971Y-34073224D01*
X157151477Y-33627800D01*
X157161538Y-33413426D01*
X157115771Y-33234481D01*
X156953159Y-33306231D01*
X156631563Y-33628754D01*
X156568631Y-33694601D01*
X156303984Y-33924023D01*
X156155365Y-33975470D01*
X156148136Y-33961393D01*
X156225097Y-33775106D01*
X156458315Y-33481471D01*
X156520499Y-33414197D01*
X156724795Y-33168930D01*
X156719481Y-33053908D01*
X156514300Y-32982249D01*
X156293403Y-32960303D01*
X155901996Y-33049152D01*
X155668568Y-33136853D01*
X155237195Y-33201658D01*
X155119388Y-33219139D01*
X154707758Y-33431409D01*
X154229443Y-33844696D01*
X153958798Y-34097284D01*
X153576506Y-34378403D01*
X153304657Y-34487734D01*
X153093743Y-34514928D01*
X152642806Y-34682168D01*
X152233764Y-34937386D01*
X152003337Y-35205206D01*
X151937385Y-35323547D01*
X151741477Y-35452291D01*
X151667858Y-35410963D01*
X151747327Y-35241907D01*
X151980199Y-34996844D01*
X152299486Y-34735149D01*
X152638200Y-34516202D01*
X152929353Y-34399377D01*
X153361409Y-34262897D01*
X153809749Y-34018879D01*
X154189729Y-33732260D01*
X153687049Y-33631724D01*
X153233317Y-33606680D01*
X152758605Y-33693063D01*
X152527532Y-33774874D01*
X152429338Y-33764936D01*
X152551491Y-33591481D01*
X152676798Y-33477915D01*
X152980442Y-33392152D01*
X153486464Y-33426207D01*
X153662110Y-33446972D01*
X154154875Y-33437706D01*
X154469829Y-33282720D01*
X154794860Y-33099679D01*
X155244798Y-32981911D01*
X155663682Y-32885811D01*
X155988117Y-32727414D01*
X156182372Y-32634551D01*
X156564262Y-32640208D01*
X156804315Y-32665764D01*
X157215015Y-32467815D01*
X157342536Y-32348983D01*
X157515958Y-32135216D01*
X157466518Y-32006866D01*
X157161335Y-31934525D01*
X156567528Y-31888789D01*
X156552132Y-31887837D01*
X156255962Y-31821957D01*
X156189154Y-31705316D01*
X156184181Y-31653339D01*
X155952864Y-31605566D01*
X155460446Y-31627960D01*
X155339709Y-31639130D01*
X154935961Y-31660827D01*
X154800740Y-31623172D01*
X154893357Y-31518298D01*
X155259341Y-31407449D01*
X155861860Y-31437071D01*
X156206347Y-31471202D01*
X156560450Y-31445896D01*
X156696175Y-31347591D01*
X156563078Y-31193785D01*
X156463035Y-31053388D01*
X156399697Y-30720083D01*
X156334707Y-30356123D01*
X156096303Y-30126817D01*
X155640886Y-30040602D01*
X154925079Y-30078607D01*
X154435736Y-30144790D01*
X153926206Y-30243500D01*
X153616202Y-30340351D01*
X153475264Y-30393988D01*
X153116318Y-30478219D01*
X152686406Y-30545989D01*
X152282152Y-30585969D01*
X152000180Y-30586829D01*
X151937111Y-30537239D01*
X152035014Y-30490725D01*
X152383438Y-30381815D01*
X152888941Y-30247306D01*
X153456562Y-30110779D01*
X153991342Y-29995818D01*
X154398321Y-29926006D01*
X154603588Y-29887885D01*
X154880599Y-29790772D01*
X155017794Y-29760460D01*
X155427201Y-29724826D01*
X156028235Y-29698151D01*
X156746919Y-29684640D01*
X158460597Y-29672064D01*
X158635843Y-30174774D01*
G37*
G36*
X150704369Y-46801434D02*
G01*
X150586364Y-47147544D01*
X150555088Y-47230498D01*
X150410535Y-47724610D01*
X150293984Y-48275007D01*
X150269322Y-48427696D01*
X150233469Y-48758098D01*
X150283638Y-48844460D01*
X150436566Y-48741548D01*
X150723160Y-48519182D01*
X150745215Y-48502070D01*
X151021125Y-48388583D01*
X151188744Y-48496027D01*
X151228499Y-48584436D01*
X151130580Y-48576406D01*
X151056075Y-48547644D01*
X150855115Y-48631947D01*
X150811595Y-48723764D01*
X150864612Y-48814217D01*
X151065329Y-48762430D01*
X151180058Y-48692472D01*
X151333873Y-48598680D01*
X151590374Y-48353241D01*
X151717358Y-48202412D01*
X151852376Y-48087538D01*
X151824943Y-48232671D01*
X151762752Y-48398033D01*
X151637259Y-48821570D01*
X151652522Y-49079865D01*
X151806875Y-49268332D01*
X151992855Y-49468060D01*
X152020173Y-49658756D01*
X151828299Y-49703891D01*
X151473187Y-49555340D01*
X151366737Y-49530391D01*
X151196904Y-49680430D01*
X151130700Y-49791324D01*
X150898729Y-49918184D01*
X150798302Y-49889205D01*
X150932530Y-49764119D01*
X151082152Y-49612953D01*
X150972720Y-49412909D01*
X150958177Y-49398568D01*
X150806445Y-49318364D01*
X150754077Y-49526785D01*
X150739200Y-49852154D01*
X150765234Y-50078350D01*
X150858166Y-50401663D01*
X150912684Y-50596777D01*
X150896175Y-50706865D01*
X150715923Y-50582929D01*
X150647294Y-50527539D01*
X150487187Y-50453020D01*
X150451595Y-50624379D01*
X150418942Y-50755034D01*
X150210456Y-50885203D01*
X150195233Y-50885421D01*
X149990571Y-50972864D01*
X150014550Y-51126702D01*
X150250646Y-51212418D01*
X150334328Y-51218641D01*
X150372093Y-51284987D01*
X150130076Y-51447861D01*
X149824594Y-51606688D01*
X149616838Y-51683304D01*
X149546458Y-51590294D01*
X149577585Y-51328695D01*
X149691128Y-51024208D01*
X149852721Y-50804823D01*
X149911431Y-50741082D01*
X149997284Y-50476471D01*
X149971331Y-50205731D01*
X149836960Y-50083867D01*
X149808247Y-50085518D01*
X149530167Y-50252791D01*
X149349916Y-50702326D01*
X149261698Y-51447861D01*
X149226724Y-51642662D01*
X149085140Y-51885393D01*
X149064360Y-51908048D01*
X149177801Y-51940416D01*
X149511667Y-51907074D01*
X149701384Y-51884843D01*
X149796568Y-51873690D01*
X150091386Y-51924200D01*
X150272485Y-52136990D01*
X150326968Y-52244141D01*
X150349983Y-52401981D01*
X150145431Y-52382633D01*
X149872501Y-52357404D01*
X149745761Y-52461222D01*
X149844407Y-52634662D01*
X150164537Y-52793737D01*
X150233109Y-52813554D01*
X150526045Y-52905887D01*
X150526830Y-52945091D01*
X150250646Y-52960577D01*
X150039025Y-52992974D01*
X149833761Y-53109346D01*
X149825579Y-53236706D01*
X149888937Y-53252949D01*
X150059184Y-53296595D01*
X150180402Y-53323080D01*
X150195032Y-53482312D01*
X150189402Y-53491944D01*
X150093502Y-53785615D01*
X150020103Y-54213852D01*
X150001809Y-54461031D01*
X150051055Y-54683747D01*
X150229287Y-54711363D01*
X150371216Y-54714723D01*
X150375747Y-54714830D01*
X150568884Y-54864000D01*
X150577966Y-54953062D01*
X150424802Y-55080974D01*
X150389940Y-55124080D01*
X150612255Y-55208768D01*
X150706408Y-55235623D01*
X150860277Y-55307331D01*
X150855305Y-55426215D01*
X150667481Y-55651136D01*
X150272792Y-56040960D01*
X150175204Y-56136744D01*
X149699290Y-56658937D01*
X149457970Y-57076550D01*
X149425437Y-57457262D01*
X149575887Y-57868755D01*
X149604809Y-57924503D01*
X149740065Y-58201275D01*
X149710478Y-58232419D01*
X149502122Y-58052650D01*
X149494539Y-58045647D01*
X149258219Y-57671322D01*
X149134017Y-57177959D01*
X149111541Y-56981561D01*
X149007305Y-56684774D01*
X148803811Y-56614492D01*
X148653725Y-56602141D01*
X148522481Y-56480526D01*
X148504163Y-56421401D01*
X148322967Y-56390737D01*
X148178492Y-56391075D01*
X147902409Y-56236197D01*
X147630213Y-56073704D01*
X147381430Y-56188491D01*
X147205055Y-56605427D01*
X147164314Y-56727841D01*
X147149808Y-56617407D01*
X147177566Y-56247793D01*
X147195789Y-56016880D01*
X147183397Y-55542130D01*
X147088347Y-55313938D01*
X147042130Y-55225722D01*
X147001779Y-54984570D01*
X149808557Y-54984570D01*
X149888937Y-55064949D01*
X149969317Y-54984570D01*
X149888937Y-54904190D01*
X149808557Y-54984570D01*
X147001779Y-54984570D01*
X146981311Y-54862247D01*
X146966562Y-54663051D01*
X147557924Y-54663051D01*
X147581010Y-54774645D01*
X147758874Y-54901728D01*
X147806060Y-54899428D01*
X148060521Y-54823810D01*
X150290836Y-54823810D01*
X150371216Y-54904190D01*
X150451595Y-54823810D01*
X150371216Y-54743431D01*
X150290836Y-54823810D01*
X148060521Y-54823810D01*
X148094518Y-54813707D01*
X148268874Y-54661619D01*
X148231856Y-54521385D01*
X148158592Y-54499060D01*
X149682145Y-54499060D01*
X149701384Y-54689844D01*
X149749738Y-54714994D01*
X149808557Y-54582671D01*
X149796956Y-54497565D01*
X149701384Y-54475498D01*
X149682145Y-54499060D01*
X148158592Y-54499060D01*
X148153469Y-54497499D01*
X147986245Y-54621859D01*
X147924804Y-54740199D01*
X147892135Y-54622861D01*
X147810659Y-54449143D01*
X147647094Y-54455036D01*
X147557924Y-54663051D01*
X146966562Y-54663051D01*
X146938508Y-54284151D01*
X146913395Y-53557432D01*
X146905642Y-52748088D01*
X146914921Y-51922119D01*
X146940909Y-51145521D01*
X146983275Y-50484294D01*
X147041693Y-50004435D01*
X147115836Y-49771943D01*
X147236169Y-49592603D01*
X147147557Y-49513553D01*
X150337723Y-49513553D01*
X150375361Y-49570244D01*
X150542153Y-49367451D01*
X150649344Y-49196305D01*
X151036144Y-49196305D01*
X151101982Y-49304778D01*
X151272238Y-49347577D01*
X151368871Y-49261307D01*
X151392254Y-49057020D01*
X151180058Y-48956089D01*
X151061662Y-48989572D01*
X151036144Y-49196305D01*
X150649344Y-49196305D01*
X150685334Y-49138841D01*
X150773114Y-48893211D01*
X150723160Y-48815649D01*
X150587840Y-48918623D01*
X150439312Y-49141380D01*
X150350869Y-49396550D01*
X150337723Y-49513553D01*
X147147557Y-49513553D01*
X147115836Y-49485255D01*
X147040945Y-49448132D01*
X146914887Y-49278175D01*
X146916922Y-49266771D01*
X147073874Y-49240005D01*
X147404398Y-49329547D01*
X147495607Y-49361065D01*
X147810659Y-49384618D01*
X147900329Y-49391322D01*
X148097980Y-49178600D01*
X148071742Y-48737811D01*
X148066189Y-48716275D01*
X148044122Y-48543827D01*
X148145659Y-48586545D01*
X148412965Y-48859461D01*
X148581559Y-49031890D01*
X148783001Y-49170808D01*
X148844000Y-49064988D01*
X148884405Y-48916495D01*
X149101364Y-48904180D01*
X149251807Y-48923046D01*
X149500801Y-48778565D01*
X149506659Y-48769376D01*
X149615378Y-48662666D01*
X149645336Y-48855203D01*
X149646122Y-48896451D01*
X149699512Y-49063332D01*
X149888937Y-48956089D01*
X149889145Y-48955916D01*
X150059310Y-48662301D01*
X150130076Y-48237686D01*
X150202912Y-47728663D01*
X150382990Y-47212433D01*
X150545388Y-46911033D01*
X150682913Y-46725084D01*
X150704369Y-46801434D01*
G37*
G36*
X174228778Y-40466933D02*
G01*
X174043051Y-40692404D01*
X173911876Y-40872721D01*
X173781775Y-41153360D01*
X173776388Y-41333924D01*
X173913895Y-41325320D01*
X173950137Y-41319697D01*
X174020809Y-41491705D01*
X174029211Y-41890595D01*
X174024148Y-42041262D01*
X174047611Y-42433067D01*
X174118178Y-42627681D01*
X174153939Y-42657938D01*
X174238888Y-42896905D01*
X174190940Y-42960804D01*
X174028955Y-42818990D01*
X173921169Y-42690704D01*
X173781915Y-42663980D01*
X173603168Y-42899369D01*
X173537212Y-43014849D01*
X173379876Y-43438795D01*
X173337179Y-43822833D01*
X173427758Y-44045232D01*
X173577227Y-44040669D01*
X173858608Y-43887015D01*
X173935878Y-43823118D01*
X174027149Y-43747643D01*
X174066823Y-43603412D01*
X173850742Y-43409284D01*
X173820714Y-43385654D01*
X173641339Y-43169361D01*
X173730172Y-42975233D01*
X173878792Y-42878992D01*
X173922481Y-43056215D01*
X173983995Y-43283376D01*
X174152117Y-43335230D01*
X174330459Y-43192152D01*
X174420784Y-42887418D01*
X174436809Y-42445329D01*
X174565519Y-42847228D01*
X174661159Y-43059859D01*
X174711511Y-43007987D01*
X174756808Y-42900887D01*
X174887038Y-42842896D01*
X175010458Y-42787938D01*
X175531333Y-42737840D01*
X176333874Y-42708832D01*
X176333874Y-44948283D01*
X176331319Y-45539823D01*
X176313837Y-46314217D01*
X176277066Y-46823738D01*
X176217823Y-47103894D01*
X176132924Y-47190196D01*
X176036239Y-47206849D01*
X176103851Y-47310766D01*
X176170227Y-47414340D01*
X176263051Y-47773812D01*
X176316719Y-48272861D01*
X176324910Y-48471974D01*
X176314941Y-48882818D01*
X176235692Y-49078117D01*
X176064463Y-49135497D01*
X175988006Y-49140695D01*
X175862586Y-49166894D01*
X176052545Y-49227664D01*
X176092735Y-49243338D01*
X176132957Y-49259025D01*
X176288418Y-49476074D01*
X176333874Y-49932433D01*
X176330516Y-50066040D01*
X176279271Y-50421207D01*
X176185888Y-50563684D01*
X176183461Y-50563747D01*
X176049012Y-50707407D01*
X175932380Y-51044119D01*
X175815825Y-51406840D01*
X175678468Y-51616264D01*
X175666204Y-51624022D01*
X175516962Y-51814450D01*
X175625650Y-51947300D01*
X175931975Y-51944504D01*
X176201714Y-51916377D01*
X176333874Y-52007456D01*
X176254887Y-52114126D01*
X175972165Y-52193171D01*
X175610456Y-52215064D01*
X175972165Y-52284732D01*
X176050777Y-52302852D01*
X176299090Y-52439594D01*
X176282360Y-52585543D01*
X175995155Y-52653557D01*
X175779847Y-52696552D01*
X175745816Y-52886474D01*
X175754551Y-52949239D01*
X175646353Y-53248614D01*
X175376998Y-53609892D01*
X175257816Y-53743347D01*
X175070490Y-53998918D01*
X175063679Y-54100393D01*
X175147823Y-54160582D01*
X175208557Y-54421912D01*
X175164088Y-54612254D01*
X174911216Y-54760001D01*
X174404760Y-54750008D01*
X174398054Y-54749166D01*
X174299376Y-54785159D01*
X174482855Y-54957470D01*
X174715885Y-55084098D01*
X175077120Y-55049257D01*
X175295022Y-54991836D01*
X175505936Y-55176862D01*
X175506801Y-55178407D01*
X175676979Y-55359176D01*
X175899821Y-55252394D01*
X176016592Y-55098366D01*
X176062134Y-54755663D01*
X176048277Y-54574876D01*
X176159109Y-54350187D01*
X176215106Y-54340170D01*
X176304284Y-54538489D01*
X176333874Y-55050417D01*
X176332240Y-55264775D01*
X176303868Y-55634686D01*
X176219503Y-55775350D01*
X176052545Y-55753223D01*
X175958517Y-55719919D01*
X175857174Y-55725570D01*
X175991849Y-55919028D01*
X176100936Y-56089473D01*
X176080267Y-56190266D01*
X176039595Y-56221504D01*
X176140962Y-56383177D01*
X176231315Y-56587999D01*
X176306215Y-57059212D01*
X176333874Y-57699082D01*
X176328763Y-58092215D01*
X176285132Y-58595787D01*
X176177890Y-58930727D01*
X175984332Y-59194145D01*
X175982524Y-59196067D01*
X175673907Y-59457553D01*
X175421674Y-59566215D01*
X175336038Y-59582116D01*
X175208557Y-59753768D01*
X175199854Y-59818505D01*
X175100185Y-59832949D01*
X175055902Y-59826932D01*
X174878622Y-59986127D01*
X174650456Y-60328624D01*
X174467100Y-60687658D01*
X174412077Y-60955195D01*
X174517689Y-61145103D01*
X174623440Y-61278518D01*
X174726279Y-61542582D01*
X174653606Y-61568893D01*
X174476024Y-61370340D01*
X174254002Y-61133609D01*
X174003233Y-61013051D01*
X173914542Y-61001871D01*
X173682480Y-60854133D01*
X173661277Y-60786800D01*
X173793562Y-60772064D01*
X173986921Y-60797367D01*
X174265263Y-60619320D01*
X174534621Y-60148289D01*
X174623690Y-59894590D01*
X174648206Y-59632466D01*
X174566133Y-59556713D01*
X174398481Y-59731630D01*
X174381361Y-59758491D01*
X174271500Y-59884819D01*
X174246462Y-59724829D01*
X174234515Y-59669845D01*
X173996964Y-59468773D01*
X173480393Y-59289239D01*
X173251029Y-59230888D01*
X172729226Y-59094305D01*
X172355076Y-58991306D01*
X172158128Y-58951069D01*
X172022672Y-59042597D01*
X171993368Y-59377591D01*
X171990216Y-59439354D01*
X171877060Y-59793723D01*
X171657043Y-60108251D01*
X171406210Y-60296961D01*
X171200608Y-60273878D01*
X171202328Y-60191511D01*
X171391859Y-60028448D01*
X171563855Y-59850780D01*
X171671849Y-59488313D01*
X171630345Y-59096804D01*
X171509343Y-58691622D01*
X171348926Y-58414321D01*
X171189871Y-58360333D01*
X171127339Y-58385549D01*
X171028811Y-58289627D01*
X171001315Y-58214006D01*
X170792822Y-58127440D01*
X170506488Y-58154984D01*
X170295947Y-58295422D01*
X170283315Y-58328874D01*
X170337643Y-58596432D01*
X170543386Y-58953304D01*
X170554801Y-58968790D01*
X170768736Y-59317350D01*
X170817841Y-59641290D01*
X170728307Y-60103527D01*
X170703144Y-60203516D01*
X170633531Y-60601541D01*
X170695387Y-60848159D01*
X170913469Y-61072976D01*
X171269950Y-61374041D01*
X170868051Y-61132848D01*
X170575948Y-60841074D01*
X170456372Y-60369835D01*
X170608584Y-59860598D01*
X170680223Y-59663076D01*
X170557366Y-59338130D01*
X170503197Y-59274726D01*
X170292322Y-59108936D01*
X170121889Y-59200828D01*
X169925176Y-59575448D01*
X169901187Y-59628195D01*
X169738774Y-59914796D01*
X169631769Y-59991115D01*
X169622555Y-59872999D01*
X169729710Y-59590552D01*
X169826406Y-59351785D01*
X169903494Y-58924634D01*
X169895922Y-58755940D01*
X169826902Y-58680520D01*
X169625374Y-58757676D01*
X169220266Y-58994696D01*
X169017743Y-59119859D01*
X168706113Y-59363111D01*
X168584477Y-59610918D01*
X168584186Y-59968365D01*
X168588902Y-60040483D01*
X168563447Y-60390129D01*
X168463617Y-60530772D01*
X168452902Y-60531818D01*
X168341662Y-60692958D01*
X168295899Y-61045203D01*
X168295653Y-61083039D01*
X168252583Y-61394342D01*
X168139103Y-61402837D01*
X168068102Y-61157086D01*
X168161732Y-60661418D01*
X168185857Y-60578030D01*
X168261670Y-60063553D01*
X168188894Y-59702460D01*
X167979426Y-59566215D01*
X167869038Y-59671573D01*
X167813621Y-59978683D01*
X167780248Y-60291604D01*
X167652426Y-60692344D01*
X167578683Y-60879655D01*
X167652426Y-61093162D01*
X167695123Y-61126205D01*
X167813621Y-61378506D01*
X167753843Y-61442328D01*
X167551916Y-61302521D01*
X167438628Y-61168983D01*
X167372713Y-60912185D01*
X167473646Y-60514613D01*
X167568437Y-60123685D01*
X167495839Y-59827168D01*
X167222634Y-59658058D01*
X166962087Y-59662082D01*
X166849064Y-59852305D01*
X166846973Y-59927360D01*
X166795453Y-60002794D01*
X166632463Y-59813727D01*
X166469227Y-59650642D01*
X166308322Y-59691513D01*
X166279732Y-59765519D01*
X166364163Y-59966493D01*
X166460039Y-60094790D01*
X166523884Y-60419690D01*
X166506275Y-60595882D01*
X166430214Y-60560013D01*
X166262666Y-60249443D01*
X166227679Y-60182360D01*
X165991612Y-59858675D01*
X165773101Y-59726975D01*
X165684236Y-59740779D01*
X165665937Y-59865128D01*
X165850767Y-60169063D01*
X166117994Y-60576625D01*
X166355757Y-60984276D01*
X166361310Y-60994884D01*
X166477685Y-61238188D01*
X166418441Y-61261397D01*
X166137113Y-61086161D01*
X165764390Y-60924839D01*
X165321551Y-60891694D01*
X165275222Y-60900226D01*
X165036726Y-60903753D01*
X164931196Y-60746332D01*
X164895836Y-60347720D01*
X164892106Y-60254037D01*
X164890555Y-60219622D01*
X165236016Y-60219622D01*
X165334225Y-60430779D01*
X165562988Y-60577352D01*
X165753044Y-60622354D01*
X165879618Y-60636292D01*
X165772745Y-60415547D01*
X165569082Y-60165171D01*
X165394240Y-60048494D01*
X165307408Y-60066255D01*
X165236016Y-60219622D01*
X164890555Y-60219622D01*
X164872110Y-59810380D01*
X164855646Y-59526025D01*
X164897802Y-59441657D01*
X165199567Y-59342575D01*
X165394240Y-59326956D01*
X165804127Y-59294069D01*
X166222558Y-59260979D01*
X167012640Y-59132776D01*
X167733241Y-58948270D01*
X168144694Y-58806400D01*
X168497489Y-58641180D01*
X168657175Y-58466703D01*
X168692688Y-58231469D01*
X168710341Y-57996744D01*
X168845057Y-57883102D01*
X169194718Y-57911758D01*
X169587124Y-57919057D01*
X169812529Y-57814988D01*
X169972861Y-57722213D01*
X170315245Y-57734319D01*
X170383755Y-57750270D01*
X170642883Y-57743339D01*
X170718591Y-57533959D01*
X170722819Y-57439153D01*
X170752212Y-57325674D01*
X170842469Y-57519968D01*
X171046023Y-57783601D01*
X171438497Y-58091437D01*
X171882313Y-58339201D01*
X172246376Y-58440899D01*
X172248505Y-58440908D01*
X172559663Y-58512982D01*
X172961590Y-58683933D01*
X173267298Y-58830734D01*
X173371862Y-58822543D01*
X173325406Y-58643744D01*
X173306145Y-58590773D01*
X173290102Y-58448326D01*
X173462151Y-58557638D01*
X173484069Y-58573770D01*
X173826126Y-58695153D01*
X174283082Y-58733027D01*
X174861108Y-58711297D01*
X174374735Y-58106071D01*
X174220468Y-57896933D01*
X174024919Y-57543323D01*
X173995289Y-57327834D01*
X174024402Y-57254893D01*
X173931969Y-57154823D01*
X173822336Y-57063856D01*
X173761722Y-56770124D01*
X173704406Y-56506981D01*
X173503903Y-56286490D01*
X173381695Y-56200548D01*
X173336123Y-55952920D01*
X173361446Y-55833150D01*
X173282652Y-55629591D01*
X173213314Y-55549266D01*
X173150798Y-55262733D01*
X173117556Y-54939728D01*
X172981536Y-54547784D01*
X172791421Y-54259760D01*
X172663597Y-54207566D01*
X174458346Y-54207566D01*
X174481908Y-54226805D01*
X174672692Y-54207566D01*
X174697843Y-54159212D01*
X174565519Y-54100393D01*
X174480414Y-54111994D01*
X174458346Y-54207566D01*
X172663597Y-54207566D01*
X172601362Y-54182154D01*
X172496407Y-54201385D01*
X172185018Y-54123659D01*
X172089200Y-54024892D01*
X172090934Y-53802840D01*
X172256138Y-53399507D01*
X172537506Y-52809470D01*
X173189804Y-53414741D01*
X173842102Y-54020013D01*
X173199064Y-53302725D01*
X172908589Y-52987131D01*
X172538350Y-52608079D01*
X172284779Y-52376305D01*
X172201798Y-52306309D01*
X172132555Y-52160955D01*
X172243954Y-51962303D01*
X172566108Y-51630517D01*
X172734803Y-51454494D01*
X173010025Y-51096091D01*
X173118684Y-50839606D01*
X173179307Y-50672219D01*
X173440203Y-50483304D01*
X173628836Y-50392359D01*
X173761722Y-50218965D01*
X173776976Y-50163565D01*
X173949136Y-49904078D01*
X174006353Y-49840266D01*
X176012355Y-49840266D01*
X176092735Y-49920646D01*
X176173114Y-49840266D01*
X176092735Y-49759886D01*
X176012355Y-49840266D01*
X174006353Y-49840266D01*
X174251214Y-49567181D01*
X174380575Y-49429805D01*
X174565519Y-49180828D01*
X174596474Y-49139155D01*
X174631104Y-48976699D01*
X174573738Y-48953943D01*
X174446459Y-49086486D01*
X174433062Y-49119545D01*
X174307619Y-49189571D01*
X174059650Y-49015119D01*
X173913953Y-48887367D01*
X173805070Y-48832761D01*
X173849522Y-48997836D01*
X173851999Y-49267019D01*
X173695680Y-49627440D01*
X173693306Y-49630822D01*
X173514468Y-49827823D01*
X173440203Y-49795656D01*
X173428900Y-49725418D01*
X173269956Y-49599127D01*
X173211810Y-49611749D01*
X173199064Y-49759886D01*
X173224183Y-49822158D01*
X173128172Y-49920646D01*
X173083795Y-49916545D01*
X172945625Y-49800076D01*
X172932725Y-49705204D01*
X172879563Y-49398816D01*
X172872446Y-49241649D01*
X172968951Y-49029654D01*
X173014575Y-48900141D01*
X172957507Y-48741743D01*
X174779865Y-48741743D01*
X174803427Y-48760983D01*
X174994211Y-48741743D01*
X175019362Y-48693389D01*
X174887038Y-48634570D01*
X174801933Y-48646171D01*
X174779865Y-48741743D01*
X172957507Y-48741743D01*
X172914442Y-48622212D01*
X172805905Y-48375500D01*
X172893373Y-48187576D01*
X172968802Y-48100204D01*
X173013775Y-47853824D01*
X173806738Y-47853824D01*
X173859521Y-47953804D01*
X173940692Y-48045266D01*
X173995947Y-48342126D01*
X174002056Y-48488417D01*
X174152683Y-48688508D01*
X174245133Y-48697826D01*
X174351173Y-48538863D01*
X174334289Y-48441914D01*
X174177017Y-48310589D01*
X174112005Y-48291192D01*
X174206226Y-48179039D01*
X174318648Y-48052555D01*
X174238623Y-47898154D01*
X173935878Y-47833234D01*
X173806738Y-47853824D01*
X173013775Y-47853824D01*
X173033029Y-47748342D01*
X172952888Y-47268114D01*
X172940553Y-47132281D01*
X172977854Y-46780164D01*
X173062191Y-46374896D01*
X173165629Y-46040666D01*
X173260236Y-45901658D01*
X173285245Y-45883020D01*
X173342954Y-45653417D01*
X173366006Y-45245945D01*
X173364857Y-45058775D01*
X173331014Y-44744793D01*
X173203568Y-44644466D01*
X172920826Y-44679268D01*
X172657398Y-44719758D01*
X172505564Y-44674854D01*
X172582593Y-44479565D01*
X172886107Y-44093811D01*
X172962876Y-43996482D01*
X173169766Y-43637234D01*
X173209372Y-43378780D01*
X173230792Y-43139424D01*
X173426904Y-42824468D01*
X173697200Y-42457384D01*
X173818697Y-42006018D01*
X173659344Y-41642499D01*
X173530582Y-41373102D01*
X173645232Y-40992405D01*
X174034274Y-40586144D01*
X174202387Y-40458958D01*
X174228778Y-40466933D01*
G37*
G36*
X164857041Y-61443899D02*
G01*
X164951510Y-61501890D01*
X165056595Y-61750596D01*
X165054333Y-62234029D01*
X165034198Y-62524020D01*
X165063200Y-62816370D01*
X165233690Y-62951507D01*
X165618027Y-63031843D01*
X165839172Y-63075606D01*
X166088014Y-63179022D01*
X166060683Y-63312571D01*
X165921966Y-63400904D01*
X165691595Y-63295836D01*
X165573236Y-63208211D01*
X165218804Y-63102924D01*
X165047432Y-63116748D01*
X164866088Y-63237080D01*
X164962753Y-63453008D01*
X165331277Y-63730224D01*
X165577080Y-63871718D01*
X165915134Y-64037846D01*
X166012663Y-64021861D01*
X165884507Y-63826342D01*
X165774859Y-63653361D01*
X165869868Y-63585203D01*
X166063733Y-63699754D01*
X166187004Y-63956333D01*
X166147145Y-64179948D01*
X166094565Y-64195811D01*
X165813800Y-64143298D01*
X165402228Y-63987101D01*
X165107787Y-63864839D01*
X164752824Y-63784439D01*
X164638474Y-63899479D01*
X164751822Y-64214472D01*
X164899295Y-64401641D01*
X165190173Y-64518626D01*
X165698677Y-64549760D01*
X166190701Y-64575330D01*
X166564704Y-64692217D01*
X166909941Y-64957793D01*
X167332976Y-65429418D01*
X167484075Y-65613658D01*
X167550541Y-65719712D01*
X167416489Y-65624716D01*
X167063152Y-65321137D01*
X166824898Y-65118820D01*
X166466724Y-64876908D01*
X166134771Y-64791759D01*
X165698375Y-64814906D01*
X165511691Y-64837944D01*
X165129283Y-64897454D01*
X164953994Y-64944407D01*
X164919709Y-65106666D01*
X165011258Y-65415829D01*
X165187404Y-65708745D01*
X165379466Y-65840724D01*
X165456614Y-65842996D01*
X165556217Y-65878504D01*
X165373595Y-66003004D01*
X165230868Y-66135592D01*
X165159827Y-66418645D01*
X165187399Y-66920428D01*
X165226957Y-67224621D01*
X165373655Y-67836900D01*
X165581867Y-68145124D01*
X165856646Y-68158644D01*
X166103204Y-68072122D01*
X166527545Y-67960217D01*
X166819924Y-67844644D01*
X167139509Y-67578991D01*
X167297389Y-67399712D01*
X167499644Y-67282671D01*
X167552871Y-67308313D01*
X167493261Y-67464739D01*
X167286588Y-67699051D01*
X167004543Y-67936126D01*
X166718821Y-68100844D01*
X166497827Y-68237193D01*
X166445483Y-68405266D01*
X166448708Y-68410764D01*
X166382582Y-68495942D01*
X166053258Y-68465852D01*
X166027688Y-68460927D01*
X165700219Y-68438708D01*
X165568100Y-68508462D01*
X165587855Y-68629347D01*
X165820452Y-68925958D01*
X166330014Y-69154748D01*
X167137140Y-69326458D01*
X167186243Y-69334079D01*
X167789154Y-69449753D01*
X168275428Y-69580571D01*
X168543786Y-69699663D01*
X168614147Y-69759380D01*
X168761647Y-69921063D01*
X168645748Y-69927555D01*
X168255709Y-69781923D01*
X167974716Y-69687536D01*
X167395705Y-69548842D01*
X166769761Y-69445197D01*
X166347495Y-69397204D01*
X166028661Y-69384632D01*
X165932420Y-69437706D01*
X166004759Y-69564875D01*
X166100406Y-69716072D01*
X166110303Y-69896959D01*
X166090228Y-70025936D01*
X166288161Y-70197306D01*
X166653667Y-70351339D01*
X167103397Y-70454712D01*
X167554005Y-70474108D01*
X167769068Y-70463537D01*
X168090562Y-70485953D01*
X168178176Y-70558295D01*
X168012181Y-70615423D01*
X167609706Y-70639032D01*
X167068204Y-70616996D01*
X166954943Y-70608299D01*
X166414227Y-70587818D01*
X166128671Y-70630894D01*
X166045266Y-70744115D01*
X166032767Y-70822789D01*
X165855584Y-71016573D01*
X165723544Y-71138869D01*
X165798086Y-71374403D01*
X166087112Y-71658141D01*
X166551098Y-71937735D01*
X166631269Y-71975618D01*
X167128602Y-72149777D01*
X167395009Y-72106093D01*
X167466051Y-72046663D01*
X167720783Y-71944696D01*
X167729854Y-72019606D01*
X167520534Y-72200091D01*
X167376230Y-72293789D01*
X167151759Y-72365119D01*
X166870579Y-72306630D01*
X166418517Y-72108870D01*
X166269668Y-72041156D01*
X165773538Y-71868146D01*
X165527702Y-71887737D01*
X165533292Y-72091045D01*
X165791441Y-72469184D01*
X166303281Y-73013269D01*
X166485441Y-73194880D01*
X166813564Y-73550263D01*
X166972485Y-73769328D01*
X166929443Y-73810371D01*
X166717414Y-73733345D01*
X166411628Y-73648585D01*
X166357685Y-73635586D01*
X166090109Y-73477584D01*
X166054535Y-73423716D01*
X166165836Y-73455625D01*
X166346390Y-73511747D01*
X166356696Y-73398896D01*
X166212678Y-73178840D01*
X165943207Y-72920921D01*
X165798458Y-72810484D01*
X165473983Y-72617703D01*
X165330771Y-72663590D01*
X165341433Y-72949443D01*
X165378847Y-73154913D01*
X165362393Y-73188179D01*
X165244396Y-72931093D01*
X165195303Y-72826482D01*
X165041600Y-72655115D01*
X164844241Y-72744617D01*
X164679042Y-72818532D01*
X164228314Y-72917774D01*
X163596785Y-73002109D01*
X162866725Y-73061257D01*
X162120399Y-73084941D01*
X161976748Y-73089800D01*
X161904471Y-73153016D01*
X162080699Y-73354089D01*
X162153400Y-73415940D01*
X162550859Y-73567582D01*
X163192275Y-73603565D01*
X164035773Y-73584962D01*
X163327531Y-73743793D01*
X162697015Y-73822176D01*
X162216786Y-73719232D01*
X162158137Y-73693290D01*
X161854187Y-73618659D01*
X161679142Y-73745015D01*
X161528412Y-73867979D01*
X161406086Y-73705510D01*
X161329412Y-73251713D01*
X161308203Y-72668114D01*
X163312355Y-72668114D01*
X163392735Y-72748494D01*
X163473114Y-72668114D01*
X163392735Y-72587734D01*
X163312355Y-72668114D01*
X161308203Y-72668114D01*
X161302861Y-72521124D01*
X161302828Y-72507355D01*
X163794633Y-72507355D01*
X163875013Y-72587734D01*
X163955393Y-72507355D01*
X163875013Y-72426975D01*
X163794633Y-72507355D01*
X161302828Y-72507355D01*
X161302677Y-72443910D01*
X161280857Y-71877395D01*
X161247680Y-71726357D01*
X161507230Y-71726357D01*
X161585217Y-71845628D01*
X161921562Y-71889642D01*
X162352102Y-71921774D01*
X162743537Y-71970021D01*
X162935103Y-71961967D01*
X163112870Y-71765367D01*
X163114594Y-71756439D01*
X163093594Y-71703557D01*
X163473114Y-71703557D01*
X163553494Y-71783937D01*
X163633874Y-71703557D01*
X163553494Y-71623177D01*
X163473114Y-71703557D01*
X163093594Y-71703557D01*
X163028773Y-71540321D01*
X162656846Y-71403658D01*
X162387426Y-71353165D01*
X161965915Y-71312540D01*
X161722075Y-71384196D01*
X161565509Y-71582987D01*
X161507230Y-71726357D01*
X161247680Y-71726357D01*
X161217202Y-71587604D01*
X161103840Y-71535551D01*
X161021077Y-71556975D01*
X160928413Y-71496822D01*
X160930565Y-71389693D01*
X160849385Y-71139039D01*
X160713624Y-70951997D01*
X160597261Y-70950593D01*
X160489191Y-71047364D01*
X160177545Y-71165021D01*
X160035977Y-71203060D01*
X159747790Y-71392798D01*
X159614303Y-71639529D01*
X159664388Y-71853435D01*
X159926918Y-71944696D01*
X160230208Y-72001148D01*
X160308524Y-72170106D01*
X160084567Y-72397535D01*
X159945571Y-72474028D01*
X159754071Y-72464460D01*
X159589179Y-72193613D01*
X159427234Y-71941819D01*
X159273182Y-71876792D01*
X159194657Y-71898055D01*
X158908473Y-71827886D01*
X158620678Y-71650239D01*
X158489570Y-71451106D01*
X158555373Y-71380377D01*
X158824857Y-71469787D01*
X159051727Y-71575237D01*
X159210075Y-71586041D01*
X159130267Y-71438999D01*
X158813577Y-71168158D01*
X158673452Y-71068520D01*
X158448010Y-70953885D01*
X158430855Y-71059008D01*
X158454774Y-71184163D01*
X158356843Y-71301658D01*
X158239312Y-71240153D01*
X158087671Y-70980139D01*
X158034323Y-70869597D01*
X157832996Y-70692835D01*
X157624589Y-70658620D01*
X160177545Y-70658620D01*
X160210540Y-70706730D01*
X160347792Y-70819380D01*
X160363835Y-70815200D01*
X160418684Y-70658620D01*
X160412142Y-70614558D01*
X160248437Y-70497861D01*
X160190291Y-70510483D01*
X160177545Y-70658620D01*
X157624589Y-70658620D01*
X157622414Y-70658263D01*
X157525013Y-70804170D01*
X157568552Y-70912546D01*
X157770696Y-71218762D01*
X158081957Y-71616338D01*
X158258759Y-71849905D01*
X158564782Y-72397773D01*
X158751209Y-72941874D01*
X158806242Y-73414432D01*
X158718082Y-73747669D01*
X158474931Y-73873810D01*
X158378461Y-73829721D01*
X158489570Y-73632671D01*
X158572132Y-73519094D01*
X158582656Y-73401642D01*
X158409871Y-73454915D01*
X158110817Y-73672861D01*
X158002515Y-73752105D01*
X158018719Y-73666686D01*
X158236466Y-73353103D01*
X158300516Y-73266701D01*
X158522889Y-72930116D01*
X158558673Y-72749924D01*
X158427851Y-72653030D01*
X158302780Y-72582394D01*
X158244205Y-72433813D01*
X158237367Y-72287743D01*
X158082415Y-72008570D01*
X157915198Y-71819372D01*
X157767294Y-71823953D01*
X157539327Y-72065266D01*
X157291281Y-72316627D01*
X157109513Y-72426975D01*
X157096596Y-72423530D01*
X157144070Y-72292277D01*
X157359826Y-72029789D01*
X157526908Y-71837417D01*
X157631657Y-71599703D01*
X157528924Y-71386751D01*
X157343973Y-71215036D01*
X157043851Y-71177307D01*
X156759690Y-71460549D01*
X156756391Y-71465741D01*
X156435147Y-71722228D01*
X155921765Y-71882268D01*
X155875561Y-71890003D01*
X155398111Y-72045101D01*
X155179885Y-72310690D01*
X155177769Y-72317111D01*
X155032029Y-72570437D01*
X154769185Y-72900998D01*
X154453275Y-73243497D01*
X154148340Y-73532634D01*
X153918417Y-73703112D01*
X153827545Y-73689631D01*
X153827699Y-73684762D01*
X153950278Y-73470446D01*
X154232655Y-73199525D01*
X154338616Y-73107034D01*
X154637375Y-72765560D01*
X154895712Y-72376087D01*
X155055563Y-72034418D01*
X155058863Y-71836352D01*
X154939178Y-71825496D01*
X154655679Y-71931672D01*
X154417265Y-72028747D01*
X153998873Y-72105456D01*
X153802157Y-72129936D01*
X153666785Y-72230586D01*
X153537793Y-72328030D01*
X153175621Y-72476222D01*
X152662038Y-72638439D01*
X152190525Y-72774866D01*
X151667748Y-72951783D01*
X151350939Y-73117400D01*
X151174823Y-73309911D01*
X151074124Y-73567506D01*
X151021654Y-73746270D01*
X150971161Y-73828376D01*
X150949898Y-73617397D01*
X150984276Y-73368426D01*
X151223932Y-73047305D01*
X151718544Y-72762357D01*
X152501279Y-72489465D01*
X152993584Y-72329005D01*
X153364281Y-72175255D01*
X153506026Y-72069826D01*
X153548494Y-72003557D01*
X153787355Y-71942276D01*
X153857207Y-71937160D01*
X154239024Y-71858063D01*
X154681302Y-71723535D01*
X155481910Y-71723535D01*
X155490344Y-71730280D01*
X155713269Y-71734603D01*
X156076472Y-71623884D01*
X156312707Y-71516545D01*
X156604753Y-71325019D01*
X156629046Y-71192473D01*
X156368994Y-71146012D01*
X156048792Y-71210314D01*
X155718480Y-71370993D01*
X155496490Y-71563570D01*
X155481910Y-71723535D01*
X154681302Y-71723535D01*
X154711722Y-71714282D01*
X155354760Y-71488708D01*
X154872481Y-71300809D01*
X154339882Y-71195294D01*
X153666785Y-71222192D01*
X153514427Y-71245013D01*
X153215896Y-71285083D01*
X152930529Y-71309436D01*
X152591423Y-71319125D01*
X152131675Y-71315201D01*
X151484384Y-71298719D01*
X150582646Y-71270730D01*
X150167383Y-71253681D01*
X149623183Y-71212089D01*
X149342851Y-71159207D01*
X149355206Y-71099066D01*
X149533964Y-71066109D01*
X150003101Y-71038991D01*
X150649817Y-71036235D01*
X151390186Y-71059473D01*
X151672505Y-71071095D01*
X152514147Y-71079032D01*
X153188456Y-71044059D01*
X153619393Y-70969252D01*
X154113614Y-70878427D01*
X154688488Y-70993627D01*
X154734391Y-71009451D01*
X155185320Y-71099527D01*
X155535456Y-71070590D01*
X155701337Y-70993604D01*
X155717144Y-70889382D01*
X155475330Y-70704492D01*
X155234902Y-70487051D01*
X155113621Y-70246344D01*
X155047512Y-70123003D01*
X154752759Y-70103539D01*
X154426691Y-70133169D01*
X153943706Y-69977735D01*
X153585689Y-69531918D01*
X153426268Y-69287784D01*
X153122380Y-69079921D01*
X152615469Y-68961286D01*
X152382894Y-68921629D01*
X152055279Y-68840647D01*
X151960552Y-68774559D01*
X152121064Y-68714881D01*
X152508433Y-68751955D01*
X152986182Y-68900521D01*
X153447881Y-69124780D01*
X153787100Y-69388932D01*
X153809144Y-69413385D01*
X154243791Y-69755650D01*
X154753345Y-69854823D01*
X154859501Y-69856876D01*
X155226618Y-69937698D01*
X155385723Y-70165495D01*
X155395260Y-70194763D01*
X155630959Y-70463666D01*
X156047762Y-70700714D01*
X156368994Y-70802031D01*
X156520537Y-70849828D01*
X156924148Y-70854931D01*
X157102067Y-70777375D01*
X157314679Y-70555933D01*
X157442690Y-70422262D01*
X157764611Y-70337101D01*
X158049354Y-70256692D01*
X158207397Y-69935203D01*
X158209940Y-69874520D01*
X160364757Y-69874520D01*
X160446255Y-70186330D01*
X160565303Y-70426423D01*
X160721647Y-70510914D01*
X160812456Y-70346208D01*
X160775555Y-69972648D01*
X160752348Y-69764136D01*
X160875639Y-69758792D01*
X160977979Y-69786295D01*
X161061722Y-69623171D01*
X160994118Y-69421179D01*
X160811883Y-69398672D01*
X160637933Y-69612760D01*
X160573126Y-69721604D01*
X160408282Y-69768015D01*
X160392126Y-69761273D01*
X160364757Y-69874520D01*
X158209940Y-69874520D01*
X158218647Y-69666759D01*
X158128559Y-69533304D01*
X158062000Y-69498961D01*
X158065632Y-69291630D01*
X158099697Y-69179697D01*
X158034527Y-69148001D01*
X157769183Y-69304962D01*
X157440586Y-69448193D01*
X157060661Y-69458614D01*
X156821766Y-69435241D01*
X156435663Y-69548151D01*
X156158367Y-69657517D01*
X155822759Y-69548116D01*
X155679683Y-69456762D01*
X155636834Y-69399236D01*
X155884943Y-69458530D01*
X156158214Y-69480259D01*
X156485703Y-69367875D01*
X156718610Y-69269230D01*
X157111175Y-69274803D01*
X157391068Y-69297735D01*
X157614839Y-69196500D01*
X157621472Y-69186638D01*
X157851041Y-69001851D01*
X158227540Y-68806494D01*
X158730709Y-68593712D01*
X158290814Y-68425283D01*
X157850383Y-68316127D01*
X157323310Y-68276689D01*
X156821115Y-68212727D01*
X156316370Y-68021495D01*
X156036225Y-67853791D01*
X156007189Y-67803838D01*
X156238937Y-67859911D01*
X156511696Y-67909268D01*
X157042863Y-67957318D01*
X157649922Y-67977552D01*
X158123269Y-67995320D01*
X158422394Y-68043154D01*
X158453720Y-68112027D01*
X158359520Y-68188294D01*
X158429696Y-68244766D01*
X158455884Y-68243731D01*
X158610525Y-68166848D01*
X160257924Y-68166848D01*
X160338304Y-68247228D01*
X160418684Y-68166848D01*
X160338304Y-68086468D01*
X160257924Y-68166848D01*
X158610525Y-68166848D01*
X158699881Y-68122423D01*
X158864698Y-67892810D01*
X158849884Y-67687991D01*
X158889441Y-67620766D01*
X159158121Y-67637495D01*
X159229642Y-67649409D01*
X159484591Y-67642378D01*
X159499085Y-67489473D01*
X159433205Y-67394267D01*
X159192243Y-67348766D01*
X159088565Y-67371712D01*
X158971849Y-67291022D01*
X158986672Y-67231536D01*
X159172798Y-67067620D01*
X159192637Y-67007240D01*
X158953338Y-66973844D01*
X158563858Y-67047410D01*
X158140991Y-67269451D01*
X158094016Y-67303933D01*
X157639866Y-67528632D01*
X157114565Y-67669500D01*
X156480076Y-67761251D01*
X157042735Y-67587849D01*
X157065519Y-67580796D01*
X157620808Y-67374443D01*
X157861650Y-67193252D01*
X157793046Y-67027682D01*
X157419998Y-66868191D01*
X157263268Y-66819405D01*
X157074172Y-66747277D01*
X157114957Y-66715862D01*
X157415902Y-66719118D01*
X158007292Y-66751003D01*
X158301492Y-66767757D01*
X158782081Y-66785297D01*
X159010315Y-66764670D01*
X159033997Y-66696205D01*
X158900933Y-66570232D01*
X158639543Y-66418387D01*
X158227192Y-66318114D01*
X157989212Y-66284563D01*
X157762766Y-66151876D01*
X157734547Y-66096266D01*
X157763603Y-66045534D01*
X157936619Y-66050926D01*
X158310204Y-66117094D01*
X158940967Y-66248691D01*
X159229631Y-66296117D01*
X159454706Y-66244954D01*
X159562565Y-66018552D01*
X159609066Y-65863710D01*
X159723736Y-65670983D01*
X159816923Y-65756768D01*
X159872945Y-66090005D01*
X159876121Y-66639633D01*
X159870354Y-66787429D01*
X159874082Y-67282356D01*
X159935956Y-67534024D01*
X160068280Y-67604190D01*
X160248437Y-67654291D01*
X160307920Y-67670833D01*
X160338304Y-67701832D01*
X160562350Y-67930411D01*
X160695079Y-68285624D01*
X160671967Y-68627749D01*
X160458874Y-68848066D01*
X160358492Y-68899088D01*
X160394201Y-68980137D01*
X160723701Y-69068701D01*
X160811883Y-69082836D01*
X160946379Y-69104395D01*
X161322860Y-69056211D01*
X161688258Y-68789404D01*
X161706233Y-68772804D01*
X161965915Y-68579455D01*
X162100897Y-68478953D01*
X162468368Y-68305157D01*
X162695434Y-68222844D01*
X162830076Y-68104473D01*
X162919266Y-68054760D01*
X163251792Y-67997648D01*
X163392735Y-67987372D01*
X163553494Y-67975652D01*
X163745923Y-67961623D01*
X163875013Y-67952640D01*
X164135107Y-67934541D01*
X164575735Y-67867768D01*
X164804767Y-67783677D01*
X164875001Y-67571118D01*
X164898464Y-67117560D01*
X164871954Y-66523553D01*
X164802846Y-65880876D01*
X164698516Y-65281305D01*
X164566337Y-64816619D01*
X164438674Y-64434872D01*
X164415360Y-64042079D01*
X164543293Y-63564217D01*
X164562703Y-63504398D01*
X164681872Y-62845281D01*
X164683354Y-62138083D01*
X164668577Y-61981103D01*
X164653189Y-61589132D01*
X164710595Y-61431706D01*
X164857041Y-61443899D01*
G37*
G36*
X162107671Y-31282414D02*
G01*
X162752337Y-31681856D01*
X163315714Y-32143269D01*
X163533135Y-32321340D01*
X164437671Y-33194481D01*
X165027895Y-33800613D01*
X165485017Y-34279889D01*
X165775934Y-34613403D01*
X165929909Y-34846290D01*
X165976208Y-35023687D01*
X165944095Y-35190727D01*
X165862834Y-35392547D01*
X165740787Y-35782551D01*
X165704555Y-36110909D01*
X165681509Y-36283534D01*
X165488544Y-36572681D01*
X165354933Y-36718981D01*
X165241469Y-36999191D01*
X165295452Y-37153546D01*
X165525345Y-37212910D01*
X165859798Y-37092590D01*
X166215265Y-36808913D01*
X166265502Y-36756422D01*
X166546269Y-36530979D01*
X166872125Y-36448623D01*
X167378024Y-36470021D01*
X167821940Y-36527002D01*
X168162926Y-36609194D01*
X168253102Y-36682968D01*
X168071972Y-36725648D01*
X167599040Y-36714556D01*
X167197615Y-36701665D01*
X166830837Y-36764076D01*
X166455737Y-36949780D01*
X165953799Y-37301025D01*
X165552206Y-37620359D01*
X165211920Y-37984196D01*
X165123443Y-38265582D01*
X165261565Y-38506856D01*
X165593601Y-38639584D01*
X166003431Y-38614122D01*
X166377371Y-38416762D01*
X166509245Y-38311984D01*
X166738048Y-38225772D01*
X167076929Y-38233487D01*
X167626602Y-38327970D01*
X168054022Y-38396333D01*
X168558568Y-38434773D01*
X168876119Y-38406320D01*
X168903064Y-38396918D01*
X169079997Y-38364603D01*
X168997391Y-38496949D01*
X168990516Y-38504166D01*
X168786290Y-38602538D01*
X168409708Y-38612848D01*
X167791695Y-38537414D01*
X167488492Y-38493516D01*
X167006658Y-38452945D01*
X166705147Y-38494412D01*
X166492682Y-38624000D01*
X166239053Y-38773171D01*
X165809454Y-38868431D01*
X165490101Y-38954914D01*
X165402805Y-39181476D01*
X165550274Y-39484907D01*
X165924697Y-39801942D01*
X166447165Y-40127880D01*
X165981099Y-40017273D01*
X165800151Y-39979034D01*
X165612933Y-39986938D01*
X165649740Y-40131061D01*
X165775514Y-40293062D01*
X166075617Y-40565521D01*
X166242935Y-40752127D01*
X166361897Y-41128179D01*
X166356667Y-41310694D01*
X166313552Y-41380826D01*
X166175498Y-41159253D01*
X165967168Y-40855944D01*
X165649960Y-40486335D01*
X165415575Y-40266027D01*
X165266932Y-40242054D01*
X165120140Y-40432436D01*
X165019987Y-40702155D01*
X165168288Y-40924089D01*
X165285484Y-41062566D01*
X165402228Y-41422553D01*
X165414710Y-41537989D01*
X165521825Y-41655859D01*
X165801077Y-41702406D01*
X166326595Y-41699870D01*
X166711624Y-41671871D01*
X166843183Y-41649083D01*
X167255283Y-41577700D01*
X167622204Y-41446302D01*
X167929381Y-41316293D01*
X168265242Y-41291413D01*
X168291222Y-41298458D01*
X168393658Y-41353040D01*
X168184817Y-41381744D01*
X167958841Y-41421392D01*
X167741837Y-41547243D01*
X167597001Y-41679434D01*
X167217784Y-41900773D01*
X166734029Y-42123727D01*
X166262456Y-42295914D01*
X165919787Y-42364949D01*
X165854953Y-42370403D01*
X165576691Y-42502888D01*
X165364064Y-42740096D01*
X165282484Y-42984940D01*
X165397366Y-43140333D01*
X165510681Y-43213803D01*
X165380229Y-43348967D01*
X165247579Y-43493084D01*
X165402228Y-43648564D01*
X165526659Y-43753396D01*
X165442418Y-43809323D01*
X165368981Y-43820098D01*
X165241469Y-43953795D01*
X165280750Y-44041287D01*
X165526309Y-44166673D01*
X165629971Y-44179543D01*
X165877040Y-44210218D01*
X166191826Y-44143719D01*
X166278744Y-44107153D01*
X166670361Y-44001226D01*
X167170583Y-43912849D01*
X167406433Y-43884766D01*
X167658742Y-43871497D01*
X167652861Y-43905090D01*
X166896223Y-44211907D01*
X166369223Y-44491589D01*
X166140160Y-44716107D01*
X166056686Y-44829085D01*
X165768983Y-44939563D01*
X165609804Y-44959706D01*
X165241469Y-45110077D01*
X165149995Y-45207785D01*
X165271507Y-45231289D01*
X165577104Y-45173634D01*
X166003596Y-45050809D01*
X166323681Y-44937101D01*
X167331342Y-44937101D01*
X167335672Y-44975243D01*
X167482614Y-45097861D01*
X167527717Y-45091729D01*
X167733241Y-44937101D01*
X167748364Y-44854277D01*
X167581969Y-44776342D01*
X167462194Y-44796017D01*
X167331342Y-44937101D01*
X166323681Y-44937101D01*
X166487794Y-44878801D01*
X166966508Y-44673599D01*
X167036375Y-44640204D01*
X167578526Y-44356096D01*
X167581969Y-44353365D01*
X167894277Y-44105619D01*
X168050745Y-43814948D01*
X168115045Y-43410259D01*
X168155944Y-43291909D01*
X168368620Y-42962671D01*
X168697798Y-42572969D01*
X168896013Y-42351647D01*
X169155817Y-42013675D01*
X169255352Y-41808989D01*
X169222774Y-41723375D01*
X169019503Y-41442698D01*
X168692694Y-41086612D01*
X168512379Y-40895883D01*
X168241682Y-40551368D01*
X168135140Y-40323004D01*
X168164533Y-40164738D01*
X168419368Y-39824262D01*
X168563836Y-39739540D01*
X170062682Y-39739540D01*
X170105258Y-39887388D01*
X170200259Y-39928446D01*
X170493760Y-39922828D01*
X170609566Y-39898107D01*
X170695570Y-39842730D01*
X170483333Y-39744074D01*
X170241378Y-39689096D01*
X170062682Y-39739540D01*
X168563836Y-39739540D01*
X168856986Y-39567625D01*
X169381026Y-39461462D01*
X169795970Y-39448997D01*
X170241378Y-39429487D01*
X170434363Y-39421034D01*
X171109190Y-39384753D01*
X171712305Y-39363595D01*
X172290012Y-39371003D01*
X172676595Y-39407343D01*
X172850826Y-39446120D01*
X173099400Y-39532935D01*
X173071219Y-39587940D01*
X172798470Y-39598367D01*
X172313342Y-39551446D01*
X172061469Y-39519838D01*
X171644819Y-39512236D01*
X171334913Y-39625709D01*
X170987072Y-39898070D01*
X170850797Y-40019277D01*
X170615305Y-40267131D01*
X170586767Y-40437427D01*
X170732878Y-40622186D01*
X170941752Y-40790421D01*
X171295541Y-40965246D01*
X171353706Y-40981350D01*
X171422802Y-41032906D01*
X171181532Y-41060225D01*
X170883665Y-41035342D01*
X170612163Y-40919441D01*
X170402921Y-40848421D01*
X169936973Y-40954686D01*
X169549581Y-41174892D01*
X169422760Y-41420890D01*
X169584597Y-41643152D01*
X169635392Y-41687028D01*
X169657543Y-41890457D01*
X169641679Y-42071387D01*
X169746090Y-42401817D01*
X169845980Y-42619179D01*
X169807718Y-42614915D01*
X169596339Y-42364949D01*
X169559296Y-42320813D01*
X169350944Y-42125251D01*
X169264031Y-42140157D01*
X169246473Y-42203315D01*
X169072020Y-42477840D01*
X168771867Y-42828525D01*
X168641335Y-42975940D01*
X168425079Y-43301277D01*
X168387913Y-43509091D01*
X168405567Y-43546722D01*
X168407772Y-43709796D01*
X168319319Y-43992524D01*
X168120090Y-44449638D01*
X167789967Y-45135869D01*
X167789567Y-45136683D01*
X167667152Y-45441347D01*
X167742266Y-45500695D01*
X168039456Y-45334245D01*
X168317266Y-45064141D01*
X168533651Y-44647311D01*
X168648268Y-44352422D01*
X168911078Y-43942794D01*
X169218501Y-43620735D01*
X169485008Y-43490266D01*
X169505349Y-43557628D01*
X169309117Y-43731492D01*
X169251949Y-43778940D01*
X168990843Y-44151004D01*
X168747599Y-44704140D01*
X168565068Y-45325356D01*
X168486102Y-45901658D01*
X168476058Y-46303557D01*
X168787877Y-45924039D01*
X168821985Y-45883425D01*
X169041200Y-45686483D01*
X169094444Y-45753066D01*
X168947083Y-46054742D01*
X168906148Y-46130885D01*
X168870034Y-46369590D01*
X168965301Y-46478094D01*
X169133737Y-46360910D01*
X169150410Y-46337973D01*
X169235770Y-46282210D01*
X169206671Y-46513687D01*
X169189166Y-46751934D01*
X169310689Y-46822678D01*
X169369705Y-46775869D01*
X169520210Y-46490913D01*
X169651398Y-46049890D01*
X169806414Y-45339000D01*
X169912521Y-45982038D01*
X169973556Y-46303157D01*
X170026075Y-46407158D01*
X170049788Y-46300326D01*
X170420119Y-46300326D01*
X170439359Y-46491110D01*
X170487713Y-46516260D01*
X170546532Y-46383937D01*
X170534930Y-46298831D01*
X170439359Y-46276764D01*
X170420119Y-46300326D01*
X170049788Y-46300326D01*
X170066912Y-46223177D01*
X170091510Y-45923651D01*
X170092718Y-45546143D01*
X170113122Y-45396887D01*
X170286507Y-45353998D01*
X170389375Y-45349864D01*
X170439359Y-45264033D01*
X170513303Y-45137058D01*
X170608463Y-44640270D01*
X170637306Y-44456407D01*
X170776075Y-43974829D01*
X170960210Y-43749130D01*
X171102821Y-43720249D01*
X171084960Y-43850990D01*
X171060847Y-43893530D01*
X170916286Y-44364988D01*
X170856894Y-45010072D01*
X170830328Y-45198329D01*
X170674431Y-45539354D01*
X170581621Y-45702993D01*
X170676683Y-45935353D01*
X170694278Y-45952284D01*
X170846792Y-46007021D01*
X170961263Y-45815032D01*
X171061790Y-45339000D01*
X171136184Y-45152875D01*
X171352531Y-45017481D01*
X171538792Y-44884411D01*
X171644053Y-44465391D01*
X171666410Y-44278251D01*
X171735464Y-44069238D01*
X171842541Y-44143872D01*
X171874882Y-44191504D01*
X171969490Y-44228864D01*
X172009943Y-43972544D01*
X172017156Y-43836860D01*
X172023453Y-43548843D01*
X171991364Y-43310499D01*
X171901940Y-42940823D01*
X171884614Y-42868583D01*
X171858620Y-42599904D01*
X171969922Y-42591599D01*
X172073166Y-42712365D01*
X172154127Y-43034674D01*
X172205326Y-43256742D01*
X172413165Y-43264503D01*
X172565320Y-43234502D01*
X172589347Y-43367873D01*
X172527388Y-43528229D01*
X172397565Y-43892165D01*
X172337951Y-44077144D01*
X172360220Y-44115795D01*
X172542902Y-43901629D01*
X172701123Y-43654413D01*
X172797165Y-43347008D01*
X172832463Y-43197207D01*
X172989017Y-43296295D01*
X173055987Y-43393809D01*
X173017634Y-43610035D01*
X172747877Y-43940091D01*
X172671941Y-44021944D01*
X172417563Y-44344275D01*
X172314886Y-44559273D01*
X172226073Y-44752705D01*
X171979427Y-45030097D01*
X171702951Y-45324392D01*
X171271849Y-45893626D01*
X170855067Y-46544135D01*
X170536078Y-47153136D01*
X170413320Y-47392532D01*
X170233539Y-47628160D01*
X170112751Y-47666721D01*
X170104443Y-47469063D01*
X170107263Y-47441740D01*
X169970904Y-47322729D01*
X169549905Y-47312907D01*
X169395595Y-47320820D01*
X169007349Y-47265554D01*
X168792826Y-47054345D01*
X168548592Y-46756274D01*
X168181858Y-46458283D01*
X167963791Y-46318892D01*
X167861192Y-46277976D01*
X167955957Y-46415417D01*
X168255709Y-46762630D01*
X168363563Y-46889279D01*
X168672513Y-47353779D01*
X168749004Y-47766284D01*
X168619216Y-48232671D01*
X168548692Y-48365120D01*
X168501785Y-48301390D01*
X168496077Y-47944057D01*
X168493907Y-47765305D01*
X168420580Y-47409611D01*
X168207393Y-47059628D01*
X167799753Y-46610828D01*
X167727723Y-46538072D01*
X167235674Y-46098562D01*
X166773767Y-45830948D01*
X166206026Y-45653556D01*
X165898500Y-45575807D01*
X165311473Y-45394237D01*
X164982739Y-45235525D01*
X164947348Y-45186239D01*
X164878389Y-44840777D01*
X164865232Y-44493258D01*
X165471953Y-44493258D01*
X165532845Y-44564640D01*
X165625809Y-44590325D01*
X165840968Y-44551948D01*
X165838478Y-44497071D01*
X165629971Y-44467514D01*
X165471953Y-44493258D01*
X164865232Y-44493258D01*
X164853598Y-44185945D01*
X164872722Y-43217158D01*
X164885661Y-42803627D01*
X164886818Y-42057321D01*
X165331019Y-42057321D01*
X165504650Y-42126515D01*
X165886799Y-42137774D01*
X166002603Y-42128693D01*
X166448575Y-42036320D01*
X166729904Y-41889829D01*
X166747108Y-41871188D01*
X166843183Y-41742335D01*
X166694397Y-41809268D01*
X166379983Y-41893618D01*
X165942886Y-41909011D01*
X165921897Y-41907723D01*
X165543129Y-41929524D01*
X165334827Y-42022430D01*
X165331019Y-42057321D01*
X164886818Y-42057321D01*
X164886980Y-41952841D01*
X164831486Y-41333888D01*
X164704509Y-40883945D01*
X164491377Y-40540189D01*
X164177419Y-40239798D01*
X163908723Y-39895029D01*
X163731570Y-39437291D01*
X163694880Y-39107597D01*
X163796670Y-38810907D01*
X164112391Y-38486842D01*
X164476160Y-38060820D01*
X164598431Y-37570415D01*
X164586570Y-37319137D01*
X164490185Y-37146566D01*
X164236722Y-37160906D01*
X163770144Y-37251873D01*
X163314743Y-37273293D01*
X163031026Y-37170090D01*
X162928832Y-37113755D01*
X162827706Y-37160772D01*
X162827698Y-37161223D01*
X162766086Y-37141489D01*
X162622009Y-36899127D01*
X162598101Y-36855768D01*
X162365726Y-36612125D01*
X162095408Y-36497818D01*
X161886201Y-36533136D01*
X161837163Y-36738367D01*
X161824925Y-36792081D01*
X161659505Y-36729830D01*
X161354884Y-36481333D01*
X161109836Y-36260572D01*
X160606432Y-35854190D01*
X162240625Y-35854190D01*
X162256209Y-35950495D01*
X162374591Y-35998390D01*
X162398621Y-35982543D01*
X162508557Y-35854190D01*
X162506383Y-35841832D01*
X162374591Y-35709990D01*
X162312071Y-35697757D01*
X162240625Y-35854190D01*
X160606432Y-35854190D01*
X160594565Y-35844610D01*
X160163077Y-35558642D01*
X159886200Y-35452291D01*
X159927496Y-35540251D01*
X160171315Y-35772711D01*
X160565008Y-36099067D01*
X161070812Y-36512174D01*
X161328812Y-36759434D01*
X161341630Y-36847263D01*
X161118855Y-36787581D01*
X160954642Y-36768020D01*
X160676766Y-36929149D01*
X160660452Y-36951215D01*
X160424872Y-37170494D01*
X160084392Y-37220646D01*
X159985869Y-37345218D01*
X160022097Y-37727107D01*
X160040123Y-37824222D01*
X160096309Y-38298042D01*
X160145869Y-38946951D01*
X160179771Y-39660235D01*
X160233495Y-40514258D01*
X160337433Y-41117129D01*
X160500161Y-41505009D01*
X160510123Y-41520427D01*
X160652518Y-41836268D01*
X160627840Y-42023463D01*
X160613299Y-42039230D01*
X160539512Y-42301697D01*
X160472813Y-42834250D01*
X160416556Y-43593680D01*
X160374093Y-44536776D01*
X160348777Y-45620329D01*
X160338510Y-45872671D01*
X160290028Y-46239667D01*
X160217735Y-46383937D01*
X160189738Y-46379533D01*
X160097165Y-46223177D01*
X160088864Y-46174780D01*
X159918978Y-46062418D01*
X159819328Y-46159033D01*
X159852460Y-46504506D01*
X159906237Y-46874560D01*
X159943056Y-47449505D01*
X159952996Y-48094682D01*
X159962001Y-48636871D01*
X160029272Y-49164120D01*
X160164965Y-49427927D01*
X160296572Y-49496071D01*
X160404934Y-49378458D01*
X160493035Y-48991774D01*
X160532045Y-48834124D01*
X160677477Y-48450032D01*
X160883988Y-48011970D01*
X160951894Y-47886546D01*
X161112825Y-47589304D01*
X161325237Y-47251401D01*
X161482470Y-47067629D01*
X161545774Y-47107355D01*
X161575991Y-47155654D01*
X161704760Y-47026975D01*
X161725598Y-46995164D01*
X161836291Y-46884371D01*
X161863058Y-47076652D01*
X161889106Y-47226114D01*
X162004794Y-47281393D01*
X162166942Y-47301740D01*
X162421797Y-47502203D01*
X162658394Y-47681441D01*
X162925560Y-47722352D01*
X163051497Y-47710738D01*
X163151595Y-47893953D01*
X163180176Y-48021832D01*
X163368137Y-48152291D01*
X163543200Y-48192384D01*
X163855589Y-48394445D01*
X164096490Y-48672921D01*
X164156299Y-48920923D01*
X164146171Y-49010744D01*
X164282580Y-49081682D01*
X164388613Y-49119363D01*
X164629318Y-49364476D01*
X164900499Y-49767875D01*
X165129128Y-50176474D01*
X165318449Y-50586294D01*
X165416496Y-50964364D01*
X165469750Y-51447861D01*
X165474936Y-51511616D01*
X165516303Y-51752354D01*
X165640373Y-51872644D01*
X165926681Y-51908746D01*
X166454761Y-51896917D01*
X166852389Y-51897371D01*
X167295539Y-51945277D01*
X167509066Y-52037968D01*
X167523314Y-52068156D01*
X167562508Y-52373957D01*
X167536378Y-52811623D01*
X167529175Y-52873440D01*
X167533583Y-53360320D01*
X167628574Y-53733492D01*
X167671817Y-53839328D01*
X167663820Y-54202746D01*
X167471850Y-54489004D01*
X167162239Y-54577984D01*
X166827848Y-54552459D01*
X166358674Y-54555408D01*
X165902502Y-54586508D01*
X165562154Y-54638279D01*
X165440452Y-54703241D01*
X165445721Y-54765207D01*
X165374295Y-55057217D01*
X165221527Y-55423272D01*
X165045800Y-55736180D01*
X164905492Y-55868747D01*
X164849204Y-55902419D01*
X164861815Y-56109886D01*
X164883883Y-56234088D01*
X164776390Y-56351025D01*
X164708441Y-56366675D01*
X164598431Y-56556437D01*
X164526049Y-56749648D01*
X164312749Y-57000469D01*
X164064067Y-57181562D01*
X163888600Y-57195203D01*
X163844067Y-57178231D01*
X163794633Y-57330499D01*
X163782860Y-57387505D01*
X163600962Y-57639484D01*
X163295323Y-57895933D01*
X162990836Y-58045719D01*
X162238284Y-58191073D01*
X161697500Y-58208984D01*
X161331878Y-58067428D01*
X161076763Y-57740753D01*
X160867498Y-57203307D01*
X160753224Y-56884151D01*
X160550320Y-56536311D01*
X160318963Y-56431405D01*
X160225492Y-56438494D01*
X160072889Y-56564814D01*
X160063119Y-56913684D01*
X160072945Y-57021752D01*
X160113474Y-57546996D01*
X160150034Y-58119380D01*
X160175429Y-58434565D01*
X160270485Y-59016566D01*
X160404880Y-59417129D01*
X160558826Y-59566215D01*
X160603755Y-59661708D01*
X160636033Y-59972763D01*
X160642135Y-60382998D01*
X160620992Y-60770424D01*
X160571530Y-61013051D01*
X160547945Y-61102247D01*
X160515452Y-61396440D01*
X160505179Y-61461279D01*
X160302735Y-61701164D01*
X159815836Y-61901948D01*
X159612781Y-61955607D01*
X159268658Y-62006180D01*
X159132608Y-61960647D01*
X159139021Y-61921616D01*
X159302855Y-61816848D01*
X159356912Y-61807188D01*
X159380613Y-61667197D01*
X159359281Y-61593607D01*
X159476343Y-61401219D01*
X159569024Y-61360661D01*
X159549858Y-61470491D01*
X159571639Y-61603446D01*
X159886728Y-61637440D01*
X159948227Y-61634425D01*
X160154924Y-61600722D01*
X160042119Y-61542412D01*
X159890429Y-61496117D01*
X159856583Y-61408740D01*
X160082309Y-61230426D01*
X160265243Y-61081462D01*
X160410727Y-60871377D01*
X160339813Y-60779063D01*
X160056975Y-60868453D01*
X159695266Y-61056686D01*
X160033020Y-60673160D01*
X160185516Y-60485363D01*
X160416090Y-60116806D01*
X160507588Y-59837625D01*
X160427047Y-59726975D01*
X160413309Y-59728673D01*
X160216532Y-59870010D01*
X159957300Y-60169063D01*
X159629860Y-60611152D01*
X159861686Y-59828064D01*
X159957667Y-59421921D01*
X160005240Y-58910832D01*
X159962388Y-58524260D01*
X159845396Y-58311206D01*
X159670547Y-58320672D01*
X159454127Y-58601658D01*
X159282376Y-58793238D01*
X158926003Y-58928290D01*
X158782451Y-58938043D01*
X158374535Y-59101360D01*
X158077713Y-59498368D01*
X157855107Y-60171894D01*
X157765974Y-60490705D01*
X157576168Y-60987075D01*
X157387730Y-61304787D01*
X157239955Y-61449752D01*
X157244549Y-61405012D01*
X157245587Y-61403406D01*
X157356645Y-61151788D01*
X157510793Y-60717101D01*
X157669332Y-60220485D01*
X157793564Y-59783080D01*
X157844792Y-59526025D01*
X157803352Y-59460626D01*
X157565203Y-59392342D01*
X157510900Y-59382947D01*
X157543062Y-59294594D01*
X157835815Y-59138716D01*
X157920010Y-59100633D01*
X158212288Y-58913623D01*
X158191199Y-58776724D01*
X158170652Y-58762038D01*
X158208353Y-58685115D01*
X158509166Y-58655245D01*
X158518794Y-58655217D01*
X158995783Y-58547200D01*
X159398869Y-58186363D01*
X159674986Y-57795800D01*
X159778655Y-57512157D01*
X159653615Y-57425133D01*
X159302491Y-57552004D01*
X159289130Y-57558863D01*
X158901323Y-57693935D01*
X158733513Y-57620419D01*
X158756041Y-57535076D01*
X158879647Y-57535076D01*
X158982934Y-57538839D01*
X159295382Y-57369200D01*
X159354801Y-57333033D01*
X159664553Y-57095336D01*
X159789023Y-56908795D01*
X159684698Y-56833304D01*
X159457479Y-56900750D01*
X159125231Y-57128808D01*
X158912396Y-57399395D01*
X158879647Y-57535076D01*
X158756041Y-57535076D01*
X158798357Y-57374765D01*
X159108515Y-56993425D01*
X159232204Y-56863990D01*
X159446029Y-56593918D01*
X159480811Y-56462307D01*
X159391430Y-56427632D01*
X159087113Y-56461331D01*
X158784152Y-56760649D01*
X158453204Y-57350961D01*
X158423849Y-57411674D01*
X157947092Y-58174394D01*
X157364810Y-58700752D01*
X157139366Y-58840986D01*
X156797731Y-59012566D01*
X156623799Y-59040107D01*
X156662429Y-58926646D01*
X156908397Y-58755354D01*
X157119557Y-58635533D01*
X157504438Y-58359625D01*
X157797821Y-58081381D01*
X157959405Y-57851079D01*
X157948887Y-57718999D01*
X157725962Y-57735419D01*
X157666840Y-57750005D01*
X157634738Y-57686485D01*
X157867932Y-57449044D01*
X157885347Y-57433429D01*
X158203623Y-57076964D01*
X158392239Y-56741074D01*
X158541560Y-56431712D01*
X158819190Y-56057846D01*
X159034967Y-55813703D01*
X159037654Y-55721307D01*
X158822397Y-55707987D01*
X158627685Y-55668713D01*
X158586622Y-55481372D01*
X158588402Y-55424903D01*
X158880813Y-55424903D01*
X158941706Y-55496286D01*
X159034670Y-55521970D01*
X159249828Y-55483594D01*
X159247590Y-55434260D01*
X159554501Y-55434260D01*
X159574697Y-55492936D01*
X159647465Y-55514169D01*
X159684698Y-55511767D01*
X159976595Y-55492936D01*
X160003865Y-55437115D01*
X159775646Y-55411852D01*
X159554501Y-55434260D01*
X159247590Y-55434260D01*
X159247339Y-55428717D01*
X159038832Y-55399160D01*
X158880813Y-55424903D01*
X158588402Y-55424903D01*
X158589911Y-55377022D01*
X158422116Y-55192579D01*
X158131924Y-55093645D01*
X157852339Y-55141740D01*
X157813379Y-55179022D01*
X157664971Y-55458007D01*
X157520489Y-55885549D01*
X157398844Y-56203453D01*
X157007091Y-56806258D01*
X156358300Y-57526546D01*
X156106405Y-57775470D01*
X155823496Y-58035491D01*
X155715451Y-58102924D01*
X155806717Y-57958620D01*
X155868547Y-57879943D01*
X156291014Y-57373397D01*
X156706503Y-56913684D01*
X156899077Y-56677409D01*
X157156318Y-56204611D01*
X157296515Y-55729582D01*
X157298051Y-55341439D01*
X157139311Y-55129300D01*
X156876377Y-55133546D01*
X156515073Y-55324918D01*
X156212593Y-55633928D01*
X156083229Y-55969632D01*
X156039827Y-56192696D01*
X155837038Y-56511785D01*
X155814841Y-56532607D01*
X155658886Y-56850288D01*
X155595899Y-57305190D01*
X155592154Y-57436211D01*
X155467526Y-57919642D01*
X155113621Y-58360519D01*
X155099082Y-58374416D01*
X154767612Y-58665504D01*
X154644400Y-58722610D01*
X154735860Y-58561662D01*
X155048407Y-58198588D01*
X155183102Y-58043266D01*
X155379012Y-57674960D01*
X155368707Y-57264750D01*
X155346247Y-56911142D01*
X155533798Y-56491587D01*
X155569329Y-56449785D01*
X155711234Y-56101797D01*
X155600641Y-55822470D01*
X155269938Y-55707987D01*
X155082730Y-55672952D01*
X155034862Y-55544606D01*
X155076844Y-55493362D01*
X155259073Y-55457388D01*
X155479464Y-55474326D01*
X155850812Y-55406880D01*
X155963279Y-55367535D01*
X155975281Y-55306137D01*
X155755412Y-55239898D01*
X155274180Y-55161294D01*
X154502091Y-55062802D01*
X153843642Y-54974809D01*
X153220039Y-54871004D01*
X152780549Y-54774001D01*
X152593035Y-54696810D01*
X152607013Y-54625029D01*
X152829327Y-54652367D01*
X153044608Y-54682474D01*
X153091970Y-54663051D01*
X158328811Y-54663051D01*
X158409190Y-54743431D01*
X158489570Y-54663051D01*
X158409190Y-54582671D01*
X158328811Y-54663051D01*
X153091970Y-54663051D01*
X153257049Y-54595353D01*
X153382361Y-54520652D01*
X153712666Y-54567307D01*
X153770574Y-54584158D01*
X154168712Y-54632732D01*
X154777649Y-54655663D01*
X155510294Y-54654137D01*
X156279560Y-54629339D01*
X156998357Y-54582454D01*
X157579596Y-54514669D01*
X157619502Y-54507912D01*
X158175663Y-54366205D01*
X158409190Y-54274106D01*
X158664723Y-54173329D01*
X158813080Y-54102076D01*
X159082126Y-54026783D01*
X159103366Y-54120848D01*
X158851279Y-54358886D01*
X158701893Y-54494064D01*
X158766503Y-54560364D01*
X159038832Y-54574011D01*
X159109618Y-54577558D01*
X159390338Y-54568574D01*
X159560451Y-54492201D01*
X159524919Y-54301342D01*
X159445683Y-53955342D01*
X159428863Y-53537734D01*
X160579443Y-53537734D01*
X160659823Y-53618114D01*
X160740203Y-53537734D01*
X160659823Y-53457355D01*
X160579443Y-53537734D01*
X159428863Y-53537734D01*
X159427244Y-53497544D01*
X159430884Y-53360093D01*
X159371355Y-53056070D01*
X159172701Y-52963777D01*
X159089478Y-52959050D01*
X159005434Y-52920364D01*
X159212988Y-52814317D01*
X159349936Y-52735490D01*
X160313368Y-52735490D01*
X160326887Y-52936866D01*
X160415791Y-52920700D01*
X160524190Y-52686727D01*
X160607641Y-52466524D01*
X160659823Y-52411800D01*
X160735880Y-52332038D01*
X160815831Y-52210851D01*
X160848802Y-51889949D01*
X160876235Y-51539210D01*
X160979573Y-51140160D01*
X161039853Y-50951982D01*
X160951894Y-50934105D01*
X160859772Y-51048612D01*
X160698039Y-51394444D01*
X160531413Y-51860232D01*
X160392366Y-52341930D01*
X160313368Y-52735490D01*
X159349936Y-52735490D01*
X159392883Y-52710770D01*
X159293368Y-52662661D01*
X159086196Y-52636776D01*
X158690519Y-52552233D01*
X158409292Y-52535633D01*
X158328811Y-52724675D01*
X158302393Y-52854757D01*
X158165429Y-52893076D01*
X158114488Y-52849844D01*
X158087739Y-52653448D01*
X158059663Y-52477719D01*
X157831052Y-52281386D01*
X157762358Y-52251658D01*
X158811089Y-52251658D01*
X158891469Y-52332038D01*
X158971849Y-52251658D01*
X158891469Y-52171279D01*
X158811089Y-52251658D01*
X157762358Y-52251658D01*
X157507689Y-52141447D01*
X157202128Y-52125056D01*
X157020479Y-52230406D01*
X156850819Y-52536783D01*
X156782108Y-52740692D01*
X156578269Y-52943150D01*
X156468696Y-52958418D01*
X156467187Y-52835172D01*
X156493343Y-52742084D01*
X156342201Y-52653557D01*
X156236921Y-52642471D01*
X156037542Y-52532987D01*
X156012668Y-52500452D01*
X156019100Y-52613367D01*
X155972164Y-52717566D01*
X155686405Y-52791421D01*
X155116858Y-52814317D01*
X154933572Y-52815755D01*
X154406562Y-52856482D01*
X154044578Y-52979992D01*
X153725722Y-53222008D01*
X153656887Y-53282629D01*
X153320343Y-53501780D01*
X153074402Y-53548573D01*
X152978539Y-53528256D01*
X152862988Y-53617979D01*
X152785182Y-53686953D01*
X152504457Y-53635884D01*
X152195744Y-53403837D01*
X151995240Y-52922637D01*
X151928970Y-52264631D01*
X153364015Y-52264631D01*
X153506026Y-52251658D01*
X153582406Y-52171133D01*
X153603756Y-52095376D01*
X153857595Y-52095376D01*
X153992157Y-52334420D01*
X154094284Y-52379162D01*
X154415815Y-52380345D01*
X154518419Y-52325495D01*
X154645968Y-52103301D01*
X154550961Y-51892963D01*
X154269633Y-51830722D01*
X154158255Y-51786317D01*
X154182983Y-51622098D01*
X154350013Y-51473949D01*
X154423522Y-51421258D01*
X154272696Y-51380173D01*
X154055649Y-51477178D01*
X153892757Y-51762011D01*
X153857595Y-52095376D01*
X153603756Y-52095376D01*
X153664324Y-51880462D01*
X153663779Y-51843905D01*
X153630874Y-51699110D01*
X153506026Y-51849760D01*
X153387618Y-52072939D01*
X153364015Y-52264631D01*
X151928970Y-52264631D01*
X151919568Y-52171279D01*
X151930537Y-51908461D01*
X152083928Y-51447861D01*
X153506026Y-51447861D01*
X153586405Y-51528241D01*
X153630874Y-51483772D01*
X153666785Y-51447861D01*
X153586405Y-51367481D01*
X153506026Y-51447861D01*
X152083928Y-51447861D01*
X152107944Y-51375745D01*
X152206575Y-51287101D01*
X157685773Y-51287101D01*
X157766152Y-51367481D01*
X157846532Y-51287101D01*
X157816679Y-51257248D01*
X158012694Y-51257248D01*
X158186505Y-51408838D01*
X158650330Y-51670188D01*
X158847438Y-51769052D01*
X158891469Y-51788045D01*
X159167165Y-51906968D01*
X159293368Y-51925196D01*
X159248147Y-51863853D01*
X159010080Y-51682727D01*
X158667735Y-51465950D01*
X158335525Y-51283992D01*
X158203105Y-51235103D01*
X159007150Y-51235103D01*
X159097777Y-51396954D01*
X159205909Y-51481940D01*
X159371068Y-51504127D01*
X159401197Y-51444810D01*
X159309382Y-51285982D01*
X159073663Y-51206722D01*
X159007150Y-51235103D01*
X158203105Y-51235103D01*
X158127861Y-51207323D01*
X158119767Y-51207331D01*
X158012694Y-51257248D01*
X157816679Y-51257248D01*
X157766152Y-51206722D01*
X157685773Y-51287101D01*
X152206575Y-51287101D01*
X152355635Y-51153135D01*
X157257081Y-51153135D01*
X157280643Y-51172375D01*
X157471427Y-51153135D01*
X157496577Y-51104782D01*
X157364254Y-51045962D01*
X157279148Y-51057564D01*
X157257081Y-51153135D01*
X152355635Y-51153135D01*
X152517206Y-51007924D01*
X153180334Y-50790361D01*
X153586405Y-50754925D01*
X154119339Y-50708419D01*
X154272696Y-50702518D01*
X154490324Y-50694143D01*
X155047668Y-50645725D01*
X155435140Y-50578771D01*
X155837038Y-50465148D01*
X155435140Y-50339344D01*
X155033241Y-50213540D01*
X155419669Y-50103687D01*
X155591849Y-50018077D01*
X155815226Y-49746112D01*
X155884819Y-49430256D01*
X155754414Y-49195841D01*
X155749676Y-49192679D01*
X155646568Y-48969886D01*
X155614547Y-48584892D01*
X155619244Y-48487671D01*
X155652295Y-48287366D01*
X155703214Y-48393431D01*
X155760465Y-48608795D01*
X155913198Y-49036468D01*
X156014615Y-49307374D01*
X156144630Y-49759886D01*
X156145687Y-49764519D01*
X156330918Y-50283612D01*
X156637800Y-50559485D01*
X157150055Y-50667737D01*
X157294806Y-50675591D01*
X157364254Y-50670833D01*
X157557471Y-50657596D01*
X157567108Y-50590998D01*
X157495471Y-50517228D01*
X157336779Y-50225055D01*
X157180184Y-49821666D01*
X157057957Y-49408249D01*
X157002370Y-49085994D01*
X157045695Y-48956089D01*
X157050963Y-48956466D01*
X157174067Y-49107555D01*
X157286365Y-49449709D01*
X157303795Y-49523663D01*
X157439342Y-49821932D01*
X157643396Y-49847928D01*
X157650469Y-49845228D01*
X157804237Y-49817961D01*
X157706529Y-49976016D01*
X157609294Y-50174530D01*
X157757128Y-50395435D01*
X157766152Y-50400654D01*
X157913124Y-50485657D01*
X158127861Y-50488395D01*
X158159168Y-50488794D01*
X158240680Y-50469574D01*
X158229390Y-50635714D01*
X158211503Y-50792483D01*
X158402824Y-50885203D01*
X158582258Y-50821675D01*
X158569950Y-50563684D01*
X158544054Y-50467314D01*
X158572071Y-50317383D01*
X158781492Y-50245953D01*
X159073663Y-50227540D01*
X159242344Y-50216909D01*
X159775646Y-50199517D01*
X160016785Y-50191653D01*
X159212988Y-50081405D01*
X158913091Y-50035989D01*
X158634973Y-49978666D01*
X158610140Y-49945902D01*
X158700955Y-49908291D01*
X158811089Y-49679506D01*
X158829226Y-49568576D01*
X158971849Y-49438367D01*
X159010274Y-49433696D01*
X159132608Y-49277608D01*
X159067311Y-49182199D01*
X158800256Y-49116848D01*
X158753775Y-49117655D01*
X158550445Y-49195076D01*
X158576339Y-49458499D01*
X158614557Y-49665295D01*
X158526198Y-49702144D01*
X158427507Y-49599595D01*
X158286512Y-49293979D01*
X158285148Y-49140092D01*
X158459954Y-48928370D01*
X158764150Y-48857737D01*
X159077011Y-48976656D01*
X159229764Y-49054578D01*
X159493994Y-49006606D01*
X159614886Y-48763374D01*
X159560655Y-48620523D01*
X159333557Y-48378959D01*
X159218255Y-48290424D01*
X159160882Y-48208502D01*
X159393842Y-48254161D01*
X159502105Y-48276334D01*
X159689980Y-48220689D01*
X159735456Y-47924647D01*
X159689424Y-47643237D01*
X159554602Y-47488524D01*
X159338931Y-47468949D01*
X158949876Y-47441119D01*
X158834253Y-47422483D01*
X158399184Y-47252882D01*
X157945129Y-46971389D01*
X157771110Y-46836253D01*
X157444259Y-46552565D01*
X157388694Y-46435536D01*
X157605393Y-46486561D01*
X157718598Y-46546915D01*
X157846532Y-46722655D01*
X157873606Y-46788547D01*
X158087671Y-46866215D01*
X158198602Y-46884352D01*
X158328811Y-47026975D01*
X158338912Y-47055917D01*
X158544516Y-47142389D01*
X158931659Y-47166572D01*
X159534507Y-47145409D01*
X158971849Y-47026975D01*
X158409190Y-46908540D01*
X158971849Y-46886777D01*
X159534507Y-46865013D01*
X159052228Y-46571902D01*
X158865301Y-46467612D01*
X158337468Y-46215760D01*
X157766152Y-45982601D01*
X157473559Y-45866559D01*
X157061389Y-45672861D01*
X158007292Y-45672861D01*
X158007823Y-45677034D01*
X158156560Y-45786067D01*
X158489570Y-45925747D01*
X158509366Y-45932770D01*
X158836671Y-46091341D01*
X158971849Y-46238904D01*
X158993009Y-46300267D01*
X159195788Y-46383937D01*
X159265053Y-46376033D01*
X159470703Y-46221256D01*
X159523007Y-45980073D01*
X159376340Y-45800029D01*
X159266892Y-45770531D01*
X158936962Y-45783032D01*
X158735686Y-45799302D01*
X158369000Y-45721796D01*
X158134267Y-45655435D01*
X158007292Y-45672861D01*
X157061389Y-45672861D01*
X156992488Y-45640481D01*
X156681026Y-45447600D01*
X156500181Y-45319856D01*
X156399697Y-45318213D01*
X156363494Y-45352716D01*
X156151845Y-45293640D01*
X155833739Y-45124219D01*
X155505305Y-44899031D01*
X155262672Y-44672653D01*
X155179193Y-44553004D01*
X155244339Y-44549417D01*
X155540336Y-44742433D01*
X155605434Y-44786205D01*
X156035850Y-45007671D01*
X156395806Y-45097861D01*
X156628016Y-45138064D01*
X156985320Y-45339000D01*
X157124086Y-45444403D01*
X157440985Y-45562006D01*
X157724030Y-45562729D01*
X157846532Y-45432777D01*
X157831766Y-45371520D01*
X157645583Y-45204329D01*
X157557726Y-45158015D01*
X157625899Y-45110552D01*
X157755723Y-45142157D01*
X158007292Y-45339000D01*
X158087658Y-45414224D01*
X158134267Y-45433448D01*
X158429667Y-45555290D01*
X158802955Y-45560990D01*
X159052228Y-45419380D01*
X159228893Y-45317205D01*
X159584184Y-45277641D01*
X160016785Y-45296661D01*
X159534507Y-45419380D01*
X159052228Y-45542099D01*
X159484829Y-45561119D01*
X159632316Y-45565027D01*
X159890042Y-45517886D01*
X160037597Y-45321742D01*
X160159356Y-44893028D01*
X160210759Y-44641054D01*
X160167600Y-44534631D01*
X159956213Y-44640520D01*
X159899749Y-44673932D01*
X159608458Y-44743441D01*
X159268095Y-44586093D01*
X159246312Y-44572379D01*
X158742914Y-44419538D01*
X158099997Y-44433332D01*
X157444633Y-44611960D01*
X157017623Y-44778407D01*
X156670838Y-44862869D01*
X156560456Y-44793137D01*
X156686027Y-44664173D01*
X157025444Y-44491031D01*
X157475602Y-44318567D01*
X157932965Y-44186188D01*
X158293995Y-44133304D01*
X158326298Y-44132834D01*
X158581324Y-44039594D01*
X158650330Y-43727699D01*
X158650320Y-43706687D01*
X158630392Y-43450782D01*
X158512487Y-43419433D01*
X158208241Y-43583898D01*
X158119812Y-43635122D01*
X157952265Y-43712543D01*
X158038257Y-43616816D01*
X158188796Y-43465601D01*
X158160916Y-43326134D01*
X157877498Y-43139618D01*
X157393578Y-42977093D01*
X156801595Y-42941724D01*
X156694457Y-42949973D01*
X156386133Y-42966874D01*
X156374625Y-42941978D01*
X156640836Y-42866326D01*
X157123114Y-42740508D01*
X156560456Y-42553375D01*
X155997798Y-42366243D01*
X156605599Y-42436673D01*
X156626353Y-42439186D01*
X157194684Y-42563572D01*
X157715425Y-42757545D01*
X158173377Y-42940505D01*
X158622185Y-42997374D01*
X158882141Y-42862320D01*
X158984191Y-42794663D01*
X159275384Y-42795945D01*
X159462294Y-42810332D01*
X159686611Y-42700474D01*
X159711070Y-42618098D01*
X159572017Y-42525709D01*
X159546391Y-42523348D01*
X159278642Y-42385526D01*
X159118656Y-42242625D01*
X159845370Y-42242625D01*
X159906263Y-42314007D01*
X159999226Y-42339692D01*
X160214385Y-42301316D01*
X160211896Y-42246438D01*
X160003389Y-42216882D01*
X159845370Y-42242625D01*
X159118656Y-42242625D01*
X158959681Y-42100627D01*
X158569950Y-41675545D01*
X159022451Y-41965179D01*
X159054092Y-41985398D01*
X159361591Y-42155479D01*
X159563202Y-42136914D01*
X159808395Y-41921370D01*
X160003389Y-41645644D01*
X160025624Y-41614203D01*
X160060434Y-41329346D01*
X159902174Y-41179434D01*
X159577082Y-41241569D01*
X159401857Y-41324378D01*
X159321041Y-41340714D01*
X159494317Y-41190589D01*
X159666338Y-41035243D01*
X159775646Y-40885877D01*
X159740593Y-40852707D01*
X159477625Y-40763752D01*
X159037016Y-40662987D01*
X158514370Y-40568640D01*
X158005294Y-40498937D01*
X157605393Y-40472106D01*
X157415106Y-40461048D01*
X156997311Y-40385289D01*
X156602729Y-40265423D01*
X156329241Y-40134343D01*
X156274726Y-40024941D01*
X156451719Y-40015406D01*
X156787995Y-40109146D01*
X156854270Y-40130744D01*
X157280847Y-40216737D01*
X157891964Y-40294162D01*
X158578645Y-40348454D01*
X159936405Y-40423178D01*
X159931517Y-39987418D01*
X159924846Y-39791037D01*
X159879763Y-39676114D01*
X159762769Y-39832987D01*
X159642498Y-39991615D01*
X159439876Y-40114317D01*
X159430372Y-40113582D01*
X159429801Y-40000995D01*
X159615645Y-39754948D01*
X159812774Y-39477314D01*
X159764477Y-39333589D01*
X159675503Y-39269511D01*
X159797646Y-39118061D01*
X159920712Y-38997746D01*
X159824867Y-38885995D01*
X159744717Y-38821265D01*
X159721497Y-38576715D01*
X159752947Y-38496698D01*
X159774269Y-38392712D01*
X159682145Y-38368442D01*
X159410053Y-38421804D01*
X158891469Y-38550714D01*
X158871830Y-38555523D01*
X158457227Y-38625842D01*
X157977110Y-38665382D01*
X157495906Y-38676384D01*
X157078042Y-38661084D01*
X156787946Y-38621720D01*
X156690045Y-38560532D01*
X156848767Y-38479756D01*
X157186540Y-38439734D01*
X157652565Y-38495439D01*
X157681300Y-38502676D01*
X158084894Y-38513161D01*
X158600566Y-38426266D01*
X159120209Y-38273191D01*
X159535716Y-38085136D01*
X159738981Y-37893299D01*
X159742858Y-37849172D01*
X159596982Y-37738542D01*
X159294171Y-37703791D01*
X158956568Y-37747437D01*
X158706317Y-37872000D01*
X158653905Y-37910730D01*
X158338833Y-37952924D01*
X157782402Y-37851006D01*
X157255483Y-37766284D01*
X156743389Y-37810036D01*
X156154647Y-38002178D01*
X155397131Y-38362465D01*
X155209579Y-38452514D01*
X155004706Y-38488923D01*
X154952861Y-38336475D01*
X154965483Y-38278328D01*
X155113621Y-38265582D01*
X155175893Y-38290702D01*
X155274380Y-38194690D01*
X155319054Y-38103571D01*
X155560129Y-38024443D01*
X155812430Y-37972436D01*
X156184473Y-37787282D01*
X156406023Y-37666255D01*
X157095453Y-37535286D01*
X158011006Y-37623710D01*
X158126733Y-37643702D01*
X158582521Y-37632679D01*
X158975563Y-37410082D01*
X159373747Y-37087010D01*
X158922070Y-36973234D01*
X158623836Y-36843833D01*
X158553340Y-36643302D01*
X158550451Y-36417985D01*
X158368422Y-36298571D01*
X158121892Y-36398704D01*
X158075496Y-36432702D01*
X157749195Y-36530161D01*
X157291912Y-36561152D01*
X157106264Y-36556071D01*
X156829212Y-36538874D01*
X156843287Y-36502155D01*
X157126478Y-36428228D01*
X157537700Y-36297661D01*
X158039716Y-36031930D01*
X158361790Y-35724086D01*
X158436120Y-35426019D01*
X158425681Y-35255744D01*
X158544810Y-35125660D01*
X158615967Y-35085717D01*
X158489570Y-34924710D01*
X158480182Y-34916819D01*
X158301903Y-34626216D01*
X158811089Y-34626216D01*
X158812662Y-34638936D01*
X158941237Y-34841838D01*
X159212988Y-35130772D01*
X159272404Y-35185125D01*
X159510271Y-35364261D01*
X159597912Y-35359744D01*
X159547182Y-35249921D01*
X159358495Y-35019593D01*
X159195624Y-34862619D01*
X161454489Y-34862619D01*
X161545842Y-34888495D01*
X161588003Y-34856999D01*
X161704760Y-34639006D01*
X161696271Y-34548850D01*
X161612388Y-34510944D01*
X161482662Y-34737223D01*
X161454489Y-34862619D01*
X159195624Y-34862619D01*
X159113649Y-34783612D01*
X158901546Y-34624859D01*
X158811089Y-34626216D01*
X158301903Y-34626216D01*
X158282435Y-34594483D01*
X158275922Y-34568114D01*
X160900962Y-34568114D01*
X160981342Y-34648494D01*
X161061722Y-34568114D01*
X160981342Y-34487734D01*
X160900962Y-34568114D01*
X158275922Y-34568114D01*
X158163299Y-34112158D01*
X158130387Y-33585455D01*
X158175630Y-33247228D01*
X161544000Y-33247228D01*
X161545019Y-33261985D01*
X161612388Y-33318547D01*
X161708279Y-33399055D01*
X162092616Y-33451982D01*
X162312071Y-33437837D01*
X162614845Y-33418322D01*
X163191785Y-33295633D01*
X163527200Y-33112430D01*
X163631676Y-32863701D01*
X163462418Y-32632390D01*
X163315714Y-32626189D01*
X163085532Y-32807367D01*
X162839083Y-32997361D01*
X162439721Y-32977781D01*
X162392859Y-32966391D01*
X162121491Y-32938476D01*
X162113321Y-33051678D01*
X162123291Y-33163265D01*
X161885651Y-33127668D01*
X161643587Y-33094180D01*
X161544000Y-33247228D01*
X158175630Y-33247228D01*
X158191313Y-33129985D01*
X158353691Y-32861360D01*
X158539125Y-32776151D01*
X158901546Y-32755973D01*
X159087100Y-32745642D01*
X159708611Y-32953878D01*
X159773374Y-32986538D01*
X160131140Y-33099273D01*
X160382277Y-33004405D01*
X160561488Y-32905178D01*
X160731194Y-33026322D01*
X160759749Y-33058003D01*
X160879210Y-33001994D01*
X160981342Y-32787681D01*
X160996486Y-32755903D01*
X161074432Y-32420094D01*
X161075902Y-32094934D01*
X161072440Y-31881324D01*
X161133158Y-31492086D01*
X161276321Y-31229197D01*
X161611534Y-31129399D01*
X162107671Y-31282414D01*
G37*
M02*
