G04 #@! TF.GenerationSoftware,KiCad,Pcbnew,8.0.1*
G04 #@! TF.CreationDate,2024-12-01T21:33:56-08:00*
G04 #@! TF.ProjectId,ledFlicker,6c656446-6c69-4636-9b65-722e6b696361,rev?*
G04 #@! TF.SameCoordinates,Original*
G04 #@! TF.FileFunction,Soldermask,Top*
G04 #@! TF.FilePolarity,Negative*
%FSLAX46Y46*%
G04 Gerber Fmt 4.6, Leading zero omitted, Abs format (unit mm)*
G04 Created by KiCad (PCBNEW 8.0.1) date 2024-12-01 21:33:56*
%MOMM*%
%LPD*%
G01*
G04 APERTURE LIST*
G04 Aperture macros list*
%AMRoundRect*
0 Rectangle with rounded corners*
0 $1 Rounding radius*
0 $2 $3 $4 $5 $6 $7 $8 $9 X,Y pos of 4 corners*
0 Add a 4 corners polygon primitive as box body*
4,1,4,$2,$3,$4,$5,$6,$7,$8,$9,$2,$3,0*
0 Add four circle primitives for the rounded corners*
1,1,$1+$1,$2,$3*
1,1,$1+$1,$4,$5*
1,1,$1+$1,$6,$7*
1,1,$1+$1,$8,$9*
0 Add four rect primitives between the rounded corners*
20,1,$1+$1,$2,$3,$4,$5,0*
20,1,$1+$1,$4,$5,$6,$7,0*
20,1,$1+$1,$6,$7,$8,$9,0*
20,1,$1+$1,$8,$9,$2,$3,0*%
G04 Aperture macros list end*
%ADD10C,0.010000*%
%ADD11RoundRect,0.076200X0.200000X-0.675000X0.200000X0.675000X-0.200000X0.675000X-0.200000X-0.675000X0*%
%ADD12RoundRect,0.076200X-0.900000X0.950000X-0.900000X-0.950000X0.900000X-0.950000X0.900000X0.950000X0*%
%ADD13C,1.252400*%
%ADD14RoundRect,0.237500X0.237500X-0.250000X0.237500X0.250000X-0.237500X0.250000X-0.237500X-0.250000X0*%
%ADD15RoundRect,0.237500X-0.250000X-0.237500X0.250000X-0.237500X0.250000X0.237500X-0.250000X0.237500X0*%
%ADD16RoundRect,0.250000X-0.450000X0.325000X-0.450000X-0.325000X0.450000X-0.325000X0.450000X0.325000X0*%
%ADD17C,2.200000*%
%ADD18RoundRect,0.237500X0.300000X0.237500X-0.300000X0.237500X-0.300000X-0.237500X0.300000X-0.237500X0*%
%ADD19RoundRect,0.150000X-0.512500X-0.150000X0.512500X-0.150000X0.512500X0.150000X-0.512500X0.150000X0*%
%ADD20RoundRect,0.150000X-0.825000X-0.150000X0.825000X-0.150000X0.825000X0.150000X-0.825000X0.150000X0*%
%ADD21RoundRect,0.237500X0.250000X0.237500X-0.250000X0.237500X-0.250000X-0.237500X0.250000X-0.237500X0*%
%ADD22RoundRect,0.250000X1.500000X-0.250000X1.500000X0.250000X-1.500000X0.250000X-1.500000X-0.250000X0*%
%ADD23RoundRect,0.250001X1.449999X-0.499999X1.449999X0.499999X-1.449999X0.499999X-1.449999X-0.499999X0*%
%ADD24R,1.700000X1.700000*%
%ADD25O,1.700000X1.700000*%
%ADD26RoundRect,0.150000X0.587500X0.150000X-0.587500X0.150000X-0.587500X-0.150000X0.587500X-0.150000X0*%
%ADD27RoundRect,0.237500X0.237500X-0.300000X0.237500X0.300000X-0.237500X0.300000X-0.237500X-0.300000X0*%
%ADD28RoundRect,0.150000X0.512500X0.150000X-0.512500X0.150000X-0.512500X-0.150000X0.512500X-0.150000X0*%
%ADD29RoundRect,0.237500X-0.237500X0.250000X-0.237500X-0.250000X0.237500X-0.250000X0.237500X0.250000X0*%
%ADD30RoundRect,0.225000X-0.225000X-0.375000X0.225000X-0.375000X0.225000X0.375000X-0.225000X0.375000X0*%
%ADD31RoundRect,0.237500X-0.300000X-0.237500X0.300000X-0.237500X0.300000X0.237500X-0.300000X0.237500X0*%
G04 APERTURE END LIST*
D10*
X170256000Y-31129500D02*
X170288000Y-31132500D01*
X170319000Y-31136500D01*
X170350000Y-31142500D01*
X170380000Y-31149500D01*
X170410000Y-31158500D01*
X170440000Y-31168500D01*
X170469000Y-31180500D01*
X170497000Y-31194500D01*
X170525000Y-31209500D01*
X170552000Y-31225500D01*
X170578000Y-31243500D01*
X170603000Y-31262500D01*
X170626000Y-31283500D01*
X170649000Y-31304500D01*
X170671000Y-31327500D01*
X170691000Y-31351500D01*
X170710000Y-31376500D01*
X170728000Y-31402500D01*
X170745000Y-31429500D01*
X170760000Y-31456500D01*
X170773000Y-31484500D01*
X170785000Y-31513500D01*
X170796000Y-31543500D01*
X170805000Y-31573500D01*
X170812000Y-31604500D01*
X170818000Y-31635500D01*
X170822000Y-31666500D01*
X170824000Y-31697500D01*
X170825000Y-31728500D01*
X170825000Y-32629500D01*
X170824000Y-32660500D01*
X170822000Y-32691500D01*
X170818000Y-32722500D01*
X170812000Y-32753500D01*
X170805000Y-32784500D01*
X170796000Y-32814500D01*
X170785000Y-32844500D01*
X170773000Y-32873500D01*
X170760000Y-32901500D01*
X170745000Y-32928500D01*
X170728000Y-32955500D01*
X170710000Y-32981500D01*
X170691000Y-33006500D01*
X170671000Y-33030500D01*
X170649000Y-33053500D01*
X170626000Y-33074500D01*
X170603000Y-33095500D01*
X170578000Y-33114500D01*
X170552000Y-33132500D01*
X170525000Y-33148500D01*
X170497000Y-33163500D01*
X170469000Y-33177500D01*
X170440000Y-33189500D01*
X170410000Y-33199500D01*
X170380000Y-33208500D01*
X170350000Y-33215500D01*
X170319000Y-33221500D01*
X170288000Y-33225500D01*
X170256000Y-33228500D01*
X170225000Y-33229500D01*
X168550000Y-33229000D01*
X168550000Y-31128500D01*
X170225000Y-31128500D01*
X170256000Y-31129500D01*
G36*
X170256000Y-31129500D02*
G01*
X170288000Y-31132500D01*
X170319000Y-31136500D01*
X170350000Y-31142500D01*
X170380000Y-31149500D01*
X170410000Y-31158500D01*
X170440000Y-31168500D01*
X170469000Y-31180500D01*
X170497000Y-31194500D01*
X170525000Y-31209500D01*
X170552000Y-31225500D01*
X170578000Y-31243500D01*
X170603000Y-31262500D01*
X170626000Y-31283500D01*
X170649000Y-31304500D01*
X170671000Y-31327500D01*
X170691000Y-31351500D01*
X170710000Y-31376500D01*
X170728000Y-31402500D01*
X170745000Y-31429500D01*
X170760000Y-31456500D01*
X170773000Y-31484500D01*
X170785000Y-31513500D01*
X170796000Y-31543500D01*
X170805000Y-31573500D01*
X170812000Y-31604500D01*
X170818000Y-31635500D01*
X170822000Y-31666500D01*
X170824000Y-31697500D01*
X170825000Y-31728500D01*
X170825000Y-32629500D01*
X170824000Y-32660500D01*
X170822000Y-32691500D01*
X170818000Y-32722500D01*
X170812000Y-32753500D01*
X170805000Y-32784500D01*
X170796000Y-32814500D01*
X170785000Y-32844500D01*
X170773000Y-32873500D01*
X170760000Y-32901500D01*
X170745000Y-32928500D01*
X170728000Y-32955500D01*
X170710000Y-32981500D01*
X170691000Y-33006500D01*
X170671000Y-33030500D01*
X170649000Y-33053500D01*
X170626000Y-33074500D01*
X170603000Y-33095500D01*
X170578000Y-33114500D01*
X170552000Y-33132500D01*
X170525000Y-33148500D01*
X170497000Y-33163500D01*
X170469000Y-33177500D01*
X170440000Y-33189500D01*
X170410000Y-33199500D01*
X170380000Y-33208500D01*
X170350000Y-33215500D01*
X170319000Y-33221500D01*
X170288000Y-33225500D01*
X170256000Y-33228500D01*
X170225000Y-33229500D01*
X168550000Y-33229000D01*
X168550000Y-31128500D01*
X170225000Y-31128500D01*
X170256000Y-31129500D01*
G37*
X163550000Y-31129000D02*
X163550000Y-33229500D01*
X161875000Y-33229500D01*
X161844000Y-33228500D01*
X161812000Y-33225500D01*
X161781000Y-33221500D01*
X161750000Y-33215500D01*
X161720000Y-33208500D01*
X161690000Y-33199500D01*
X161660000Y-33189500D01*
X161631000Y-33177500D01*
X161603000Y-33163500D01*
X161575000Y-33148500D01*
X161548000Y-33132500D01*
X161522000Y-33114500D01*
X161497000Y-33095500D01*
X161474000Y-33074500D01*
X161451000Y-33053500D01*
X161429000Y-33030500D01*
X161409000Y-33006500D01*
X161390000Y-32981500D01*
X161372000Y-32955500D01*
X161355000Y-32928500D01*
X161340000Y-32901500D01*
X161327000Y-32873500D01*
X161315000Y-32844500D01*
X161304000Y-32814500D01*
X161295000Y-32784500D01*
X161288000Y-32753500D01*
X161282000Y-32722500D01*
X161278000Y-32691500D01*
X161276000Y-32660500D01*
X161275000Y-32629500D01*
X161275000Y-31728500D01*
X161276000Y-31697500D01*
X161278000Y-31666500D01*
X161282000Y-31635500D01*
X161288000Y-31604500D01*
X161295000Y-31573500D01*
X161304000Y-31543500D01*
X161315000Y-31513500D01*
X161327000Y-31484500D01*
X161340000Y-31456500D01*
X161355000Y-31429500D01*
X161372000Y-31402500D01*
X161390000Y-31376500D01*
X161409000Y-31351500D01*
X161429000Y-31327500D01*
X161451000Y-31304500D01*
X161474000Y-31283500D01*
X161497000Y-31262500D01*
X161522000Y-31243500D01*
X161548000Y-31225500D01*
X161575000Y-31209500D01*
X161603000Y-31194500D01*
X161631000Y-31180500D01*
X161660000Y-31168500D01*
X161690000Y-31158500D01*
X161720000Y-31149500D01*
X161750000Y-31142500D01*
X161781000Y-31136500D01*
X161812000Y-31132500D01*
X161844000Y-31129500D01*
X161875000Y-31128500D01*
X163550000Y-31129000D01*
G36*
X163550000Y-31129000D02*
G01*
X163550000Y-33229500D01*
X161875000Y-33229500D01*
X161844000Y-33228500D01*
X161812000Y-33225500D01*
X161781000Y-33221500D01*
X161750000Y-33215500D01*
X161720000Y-33208500D01*
X161690000Y-33199500D01*
X161660000Y-33189500D01*
X161631000Y-33177500D01*
X161603000Y-33163500D01*
X161575000Y-33148500D01*
X161548000Y-33132500D01*
X161522000Y-33114500D01*
X161497000Y-33095500D01*
X161474000Y-33074500D01*
X161451000Y-33053500D01*
X161429000Y-33030500D01*
X161409000Y-33006500D01*
X161390000Y-32981500D01*
X161372000Y-32955500D01*
X161355000Y-32928500D01*
X161340000Y-32901500D01*
X161327000Y-32873500D01*
X161315000Y-32844500D01*
X161304000Y-32814500D01*
X161295000Y-32784500D01*
X161288000Y-32753500D01*
X161282000Y-32722500D01*
X161278000Y-32691500D01*
X161276000Y-32660500D01*
X161275000Y-32629500D01*
X161275000Y-31728500D01*
X161276000Y-31697500D01*
X161278000Y-31666500D01*
X161282000Y-31635500D01*
X161288000Y-31604500D01*
X161295000Y-31573500D01*
X161304000Y-31543500D01*
X161315000Y-31513500D01*
X161327000Y-31484500D01*
X161340000Y-31456500D01*
X161355000Y-31429500D01*
X161372000Y-31402500D01*
X161390000Y-31376500D01*
X161409000Y-31351500D01*
X161429000Y-31327500D01*
X161451000Y-31304500D01*
X161474000Y-31283500D01*
X161497000Y-31262500D01*
X161522000Y-31243500D01*
X161548000Y-31225500D01*
X161575000Y-31209500D01*
X161603000Y-31194500D01*
X161631000Y-31180500D01*
X161660000Y-31168500D01*
X161690000Y-31158500D01*
X161720000Y-31149500D01*
X161750000Y-31142500D01*
X161781000Y-31136500D01*
X161812000Y-31132500D01*
X161844000Y-31129500D01*
X161875000Y-31128500D01*
X163550000Y-31129000D01*
G37*
D11*
X167350000Y-34854000D03*
X166700000Y-34854000D03*
X166050000Y-34854000D03*
X165400000Y-34854000D03*
X164750000Y-34854000D03*
D12*
X164900000Y-32179000D03*
X167200000Y-32179000D03*
D13*
X168275000Y-35179000D03*
X163825000Y-35179000D03*
D14*
X148717000Y-58824500D03*
X148717000Y-56999500D03*
D15*
X162155500Y-43915500D03*
X163980500Y-43915500D03*
D16*
X148336000Y-38853000D03*
X148336000Y-40903000D03*
D17*
X149390000Y-32385000D03*
D18*
X160374500Y-43915500D03*
X158649500Y-43915500D03*
D17*
X149390000Y-70985000D03*
D19*
X150640500Y-39010000D03*
X150640500Y-39960000D03*
X150640500Y-40910000D03*
X152915500Y-40910000D03*
X152915500Y-39010000D03*
D18*
X154659500Y-52578000D03*
X152934500Y-52578000D03*
D20*
X166842500Y-56996500D03*
X166842500Y-58266500D03*
X166842500Y-59536500D03*
X166842500Y-60806500D03*
X171792500Y-60806500D03*
X171792500Y-59536500D03*
X171792500Y-58266500D03*
X171792500Y-56996500D03*
D21*
X156614500Y-64770000D03*
X154789500Y-64770000D03*
D22*
X168621000Y-44688000D03*
X168621000Y-42688000D03*
D23*
X174371000Y-47038000D03*
X174371000Y-40338000D03*
D14*
X164465000Y-61592000D03*
X164465000Y-59767000D03*
D15*
X172696500Y-55218500D03*
X174521500Y-55218500D03*
D24*
X172725000Y-50673000D03*
D25*
X170185000Y-50673000D03*
D26*
X151384000Y-64257000D03*
X151384000Y-62357000D03*
X149509000Y-63307000D03*
D20*
X151260000Y-54456500D03*
X151260000Y-55726500D03*
X151260000Y-56996500D03*
X151260000Y-58266500D03*
X156210000Y-58266500D03*
X156210000Y-56996500D03*
X156210000Y-55726500D03*
X156210000Y-54456500D03*
D27*
X164465000Y-57986000D03*
X164465000Y-56261000D03*
D15*
X156313500Y-52578000D03*
X158138500Y-52578000D03*
D17*
X173990000Y-32385000D03*
D28*
X155851000Y-37077500D03*
X155851000Y-36127500D03*
X155851000Y-35177500D03*
X153576000Y-35177500D03*
X153576000Y-37077500D03*
D29*
X167513000Y-65127500D03*
X167513000Y-66952500D03*
D20*
X156555500Y-45667000D03*
X156555500Y-46937000D03*
X156555500Y-48207000D03*
X156555500Y-49477000D03*
X161505500Y-49477000D03*
X161505500Y-48207000D03*
X161505500Y-46937000D03*
X161505500Y-45667000D03*
D14*
X154797000Y-42584500D03*
X154797000Y-40759500D03*
D29*
X163957000Y-46813000D03*
X163957000Y-48638000D03*
D15*
X160962500Y-51308000D03*
X162787500Y-51308000D03*
D14*
X154051000Y-49781000D03*
X154051000Y-47956000D03*
D30*
X167006000Y-37846000D03*
X170306000Y-37846000D03*
D31*
X172619500Y-62584500D03*
X174344500Y-62584500D03*
D24*
X157744000Y-69977000D03*
D25*
X160284000Y-69977000D03*
X162824000Y-69977000D03*
X165364000Y-69977000D03*
D18*
X151511000Y-36957000D03*
X149786000Y-36957000D03*
D31*
X157480000Y-60071000D03*
X159205000Y-60071000D03*
D18*
X170788500Y-55218500D03*
X169063500Y-55218500D03*
D29*
X159004000Y-55475500D03*
X159004000Y-57300500D03*
D27*
X148717000Y-55192000D03*
X148717000Y-53467000D03*
D15*
X153877000Y-60071000D03*
X155702000Y-60071000D03*
D18*
X159772500Y-36696500D03*
X158047500Y-36696500D03*
D24*
X160650000Y-64897000D03*
D25*
X163190000Y-64897000D03*
D31*
X164592000Y-51308000D03*
X166317000Y-51308000D03*
D15*
X147915500Y-42942000D03*
X149740500Y-42942000D03*
D31*
X153475500Y-31362500D03*
X155200500Y-31362500D03*
D27*
X154051000Y-46175000D03*
X154051000Y-44450000D03*
D21*
X159822500Y-34664500D03*
X157997500Y-34664500D03*
D31*
X153475500Y-33140500D03*
X155200500Y-33140500D03*
D17*
X173990000Y-70985000D03*
D15*
X169013500Y-62584500D03*
X170838500Y-62584500D03*
D29*
X174625000Y-57100000D03*
X174625000Y-58925000D03*
M02*
