G04 #@! TF.GenerationSoftware,KiCad,Pcbnew,8.0.1*
G04 #@! TF.CreationDate,2024-12-01T21:33:56-08:00*
G04 #@! TF.ProjectId,ledFlicker,6c656446-6c69-4636-9b65-722e6b696361,rev?*
G04 #@! TF.SameCoordinates,Original*
G04 #@! TF.FileFunction,Paste,Top*
G04 #@! TF.FilePolarity,Positive*
%FSLAX46Y46*%
G04 Gerber Fmt 4.6, Leading zero omitted, Abs format (unit mm)*
G04 Created by KiCad (PCBNEW 8.0.1) date 2024-12-01 21:33:56*
%MOMM*%
%LPD*%
G01*
G04 APERTURE LIST*
G04 Aperture macros list*
%AMRoundRect*
0 Rectangle with rounded corners*
0 $1 Rounding radius*
0 $2 $3 $4 $5 $6 $7 $8 $9 X,Y pos of 4 corners*
0 Add a 4 corners polygon primitive as box body*
4,1,4,$2,$3,$4,$5,$6,$7,$8,$9,$2,$3,0*
0 Add four circle primitives for the rounded corners*
1,1,$1+$1,$2,$3*
1,1,$1+$1,$4,$5*
1,1,$1+$1,$6,$7*
1,1,$1+$1,$8,$9*
0 Add four rect primitives between the rounded corners*
20,1,$1+$1,$2,$3,$4,$5,0*
20,1,$1+$1,$4,$5,$6,$7,0*
20,1,$1+$1,$6,$7,$8,$9,0*
20,1,$1+$1,$8,$9,$2,$3,0*%
G04 Aperture macros list end*
%ADD10C,0.010000*%
%ADD11R,0.400000X1.350000*%
%ADD12R,1.800000X1.900000*%
%ADD13RoundRect,0.237500X0.237500X-0.250000X0.237500X0.250000X-0.237500X0.250000X-0.237500X-0.250000X0*%
%ADD14RoundRect,0.237500X-0.250000X-0.237500X0.250000X-0.237500X0.250000X0.237500X-0.250000X0.237500X0*%
%ADD15RoundRect,0.250000X-0.450000X0.325000X-0.450000X-0.325000X0.450000X-0.325000X0.450000X0.325000X0*%
%ADD16RoundRect,0.237500X0.300000X0.237500X-0.300000X0.237500X-0.300000X-0.237500X0.300000X-0.237500X0*%
%ADD17RoundRect,0.150000X-0.512500X-0.150000X0.512500X-0.150000X0.512500X0.150000X-0.512500X0.150000X0*%
%ADD18RoundRect,0.150000X-0.825000X-0.150000X0.825000X-0.150000X0.825000X0.150000X-0.825000X0.150000X0*%
%ADD19RoundRect,0.237500X0.250000X0.237500X-0.250000X0.237500X-0.250000X-0.237500X0.250000X-0.237500X0*%
%ADD20RoundRect,0.250000X1.500000X-0.250000X1.500000X0.250000X-1.500000X0.250000X-1.500000X-0.250000X0*%
%ADD21RoundRect,0.250001X1.449999X-0.499999X1.449999X0.499999X-1.449999X0.499999X-1.449999X-0.499999X0*%
%ADD22RoundRect,0.150000X0.587500X0.150000X-0.587500X0.150000X-0.587500X-0.150000X0.587500X-0.150000X0*%
%ADD23RoundRect,0.237500X0.237500X-0.300000X0.237500X0.300000X-0.237500X0.300000X-0.237500X-0.300000X0*%
%ADD24RoundRect,0.150000X0.512500X0.150000X-0.512500X0.150000X-0.512500X-0.150000X0.512500X-0.150000X0*%
%ADD25RoundRect,0.237500X-0.237500X0.250000X-0.237500X-0.250000X0.237500X-0.250000X0.237500X0.250000X0*%
%ADD26RoundRect,0.225000X-0.225000X-0.375000X0.225000X-0.375000X0.225000X0.375000X-0.225000X0.375000X0*%
%ADD27RoundRect,0.237500X-0.300000X-0.237500X0.300000X-0.237500X0.300000X0.237500X-0.300000X0.237500X0*%
G04 APERTURE END LIST*
D10*
X170251000Y-31229500D02*
X170277000Y-31231500D01*
X170303000Y-31235500D01*
X170329000Y-31239500D01*
X170354000Y-31246500D01*
X170380000Y-31253500D01*
X170404000Y-31262500D01*
X170428000Y-31272500D01*
X170452000Y-31283500D01*
X170475000Y-31295500D01*
X170497000Y-31309500D01*
X170519000Y-31324500D01*
X170540000Y-31340500D01*
X170560000Y-31357500D01*
X170579000Y-31375500D01*
X170597000Y-31394500D01*
X170614000Y-31414500D01*
X170630000Y-31435500D01*
X170644000Y-31456500D01*
X170658000Y-31478500D01*
X170671000Y-31502500D01*
X170682000Y-31525500D01*
X170692000Y-31549500D01*
X170701000Y-31574500D01*
X170708000Y-31599500D01*
X170714000Y-31625500D01*
X170719000Y-31650500D01*
X170722000Y-31676500D01*
X170724000Y-31702500D01*
X170725000Y-31728500D01*
X170725000Y-32629500D01*
X170724000Y-32655500D01*
X170722000Y-32681500D01*
X170719000Y-32707500D01*
X170714000Y-32732500D01*
X170708000Y-32758500D01*
X170701000Y-32783500D01*
X170692000Y-32808500D01*
X170682000Y-32832500D01*
X170671000Y-32855500D01*
X170658000Y-32878500D01*
X170644000Y-32901500D01*
X170630000Y-32922500D01*
X170614000Y-32943500D01*
X170597000Y-32963500D01*
X170579000Y-32982500D01*
X170560000Y-33000500D01*
X170540000Y-33017500D01*
X170519000Y-33033500D01*
X170497000Y-33048500D01*
X170475000Y-33062500D01*
X170452000Y-33074500D01*
X170428000Y-33085500D01*
X170404000Y-33095500D01*
X170380000Y-33104500D01*
X170354000Y-33111500D01*
X170329000Y-33118500D01*
X170303000Y-33122500D01*
X170277000Y-33126500D01*
X170251000Y-33128500D01*
X170225000Y-33128500D01*
X168650000Y-33129000D01*
X168650000Y-33128500D01*
X168650000Y-31228500D01*
X170225000Y-31228500D01*
X170251000Y-31229500D01*
G36*
X170251000Y-31229500D02*
G01*
X170277000Y-31231500D01*
X170303000Y-31235500D01*
X170329000Y-31239500D01*
X170354000Y-31246500D01*
X170380000Y-31253500D01*
X170404000Y-31262500D01*
X170428000Y-31272500D01*
X170452000Y-31283500D01*
X170475000Y-31295500D01*
X170497000Y-31309500D01*
X170519000Y-31324500D01*
X170540000Y-31340500D01*
X170560000Y-31357500D01*
X170579000Y-31375500D01*
X170597000Y-31394500D01*
X170614000Y-31414500D01*
X170630000Y-31435500D01*
X170644000Y-31456500D01*
X170658000Y-31478500D01*
X170671000Y-31502500D01*
X170682000Y-31525500D01*
X170692000Y-31549500D01*
X170701000Y-31574500D01*
X170708000Y-31599500D01*
X170714000Y-31625500D01*
X170719000Y-31650500D01*
X170722000Y-31676500D01*
X170724000Y-31702500D01*
X170725000Y-31728500D01*
X170725000Y-32629500D01*
X170724000Y-32655500D01*
X170722000Y-32681500D01*
X170719000Y-32707500D01*
X170714000Y-32732500D01*
X170708000Y-32758500D01*
X170701000Y-32783500D01*
X170692000Y-32808500D01*
X170682000Y-32832500D01*
X170671000Y-32855500D01*
X170658000Y-32878500D01*
X170644000Y-32901500D01*
X170630000Y-32922500D01*
X170614000Y-32943500D01*
X170597000Y-32963500D01*
X170579000Y-32982500D01*
X170560000Y-33000500D01*
X170540000Y-33017500D01*
X170519000Y-33033500D01*
X170497000Y-33048500D01*
X170475000Y-33062500D01*
X170452000Y-33074500D01*
X170428000Y-33085500D01*
X170404000Y-33095500D01*
X170380000Y-33104500D01*
X170354000Y-33111500D01*
X170329000Y-33118500D01*
X170303000Y-33122500D01*
X170277000Y-33126500D01*
X170251000Y-33128500D01*
X170225000Y-33128500D01*
X168650000Y-33129000D01*
X168650000Y-33128500D01*
X168650000Y-31228500D01*
X170225000Y-31228500D01*
X170251000Y-31229500D01*
G37*
X163450000Y-31229000D02*
X163450000Y-33128500D01*
X161875000Y-33128500D01*
X161849000Y-33128500D01*
X161823000Y-33126500D01*
X161797000Y-33122500D01*
X161771000Y-33118500D01*
X161746000Y-33111500D01*
X161720000Y-33104500D01*
X161696000Y-33095500D01*
X161672000Y-33085500D01*
X161648000Y-33074500D01*
X161625000Y-33062500D01*
X161603000Y-33048500D01*
X161581000Y-33033500D01*
X161560000Y-33017500D01*
X161540000Y-33000500D01*
X161521000Y-32982500D01*
X161503000Y-32963500D01*
X161486000Y-32943500D01*
X161470000Y-32922500D01*
X161456000Y-32901500D01*
X161442000Y-32878500D01*
X161429000Y-32855500D01*
X161418000Y-32832500D01*
X161408000Y-32808500D01*
X161399000Y-32783500D01*
X161392000Y-32758500D01*
X161386000Y-32732500D01*
X161381000Y-32707500D01*
X161378000Y-32681500D01*
X161376000Y-32655500D01*
X161375000Y-32629500D01*
X161375000Y-31728500D01*
X161376000Y-31702500D01*
X161378000Y-31676500D01*
X161381000Y-31650500D01*
X161386000Y-31625500D01*
X161392000Y-31599500D01*
X161399000Y-31574500D01*
X161408000Y-31549500D01*
X161418000Y-31525500D01*
X161429000Y-31502500D01*
X161442000Y-31478500D01*
X161456000Y-31456500D01*
X161470000Y-31435500D01*
X161486000Y-31414500D01*
X161503000Y-31394500D01*
X161521000Y-31375500D01*
X161540000Y-31357500D01*
X161560000Y-31340500D01*
X161581000Y-31324500D01*
X161603000Y-31309500D01*
X161625000Y-31295500D01*
X161648000Y-31283500D01*
X161672000Y-31272500D01*
X161696000Y-31262500D01*
X161720000Y-31253500D01*
X161746000Y-31246500D01*
X161771000Y-31239500D01*
X161797000Y-31235500D01*
X161823000Y-31231500D01*
X161849000Y-31229500D01*
X161875000Y-31228500D01*
X163450000Y-31229000D01*
G36*
X163450000Y-31229000D02*
G01*
X163450000Y-33128500D01*
X161875000Y-33128500D01*
X161849000Y-33128500D01*
X161823000Y-33126500D01*
X161797000Y-33122500D01*
X161771000Y-33118500D01*
X161746000Y-33111500D01*
X161720000Y-33104500D01*
X161696000Y-33095500D01*
X161672000Y-33085500D01*
X161648000Y-33074500D01*
X161625000Y-33062500D01*
X161603000Y-33048500D01*
X161581000Y-33033500D01*
X161560000Y-33017500D01*
X161540000Y-33000500D01*
X161521000Y-32982500D01*
X161503000Y-32963500D01*
X161486000Y-32943500D01*
X161470000Y-32922500D01*
X161456000Y-32901500D01*
X161442000Y-32878500D01*
X161429000Y-32855500D01*
X161418000Y-32832500D01*
X161408000Y-32808500D01*
X161399000Y-32783500D01*
X161392000Y-32758500D01*
X161386000Y-32732500D01*
X161381000Y-32707500D01*
X161378000Y-32681500D01*
X161376000Y-32655500D01*
X161375000Y-32629500D01*
X161375000Y-31728500D01*
X161376000Y-31702500D01*
X161378000Y-31676500D01*
X161381000Y-31650500D01*
X161386000Y-31625500D01*
X161392000Y-31599500D01*
X161399000Y-31574500D01*
X161408000Y-31549500D01*
X161418000Y-31525500D01*
X161429000Y-31502500D01*
X161442000Y-31478500D01*
X161456000Y-31456500D01*
X161470000Y-31435500D01*
X161486000Y-31414500D01*
X161503000Y-31394500D01*
X161521000Y-31375500D01*
X161540000Y-31357500D01*
X161560000Y-31340500D01*
X161581000Y-31324500D01*
X161603000Y-31309500D01*
X161625000Y-31295500D01*
X161648000Y-31283500D01*
X161672000Y-31272500D01*
X161696000Y-31262500D01*
X161720000Y-31253500D01*
X161746000Y-31246500D01*
X161771000Y-31239500D01*
X161797000Y-31235500D01*
X161823000Y-31231500D01*
X161849000Y-31229500D01*
X161875000Y-31228500D01*
X163450000Y-31229000D01*
G37*
D11*
X167350000Y-34854000D03*
X166700000Y-34854000D03*
X166050000Y-34854000D03*
X165400000Y-34854000D03*
X164750000Y-34854000D03*
D12*
X164900000Y-32179000D03*
X167200000Y-32179000D03*
D13*
X148717000Y-58824500D03*
X148717000Y-56999500D03*
D14*
X162155500Y-43915500D03*
X163980500Y-43915500D03*
D15*
X148336000Y-38853000D03*
X148336000Y-40903000D03*
D16*
X160374500Y-43915500D03*
X158649500Y-43915500D03*
D17*
X150640500Y-39010000D03*
X150640500Y-39960000D03*
X150640500Y-40910000D03*
X152915500Y-40910000D03*
X152915500Y-39010000D03*
D16*
X154659500Y-52578000D03*
X152934500Y-52578000D03*
D18*
X166842500Y-56996500D03*
X166842500Y-58266500D03*
X166842500Y-59536500D03*
X166842500Y-60806500D03*
X171792500Y-60806500D03*
X171792500Y-59536500D03*
X171792500Y-58266500D03*
X171792500Y-56996500D03*
D19*
X156614500Y-64770000D03*
X154789500Y-64770000D03*
D20*
X168621000Y-44688000D03*
X168621000Y-42688000D03*
D21*
X174371000Y-47038000D03*
X174371000Y-40338000D03*
D13*
X164465000Y-61592000D03*
X164465000Y-59767000D03*
D14*
X172696500Y-55218500D03*
X174521500Y-55218500D03*
D22*
X151384000Y-64257000D03*
X151384000Y-62357000D03*
X149509000Y-63307000D03*
D18*
X151260000Y-54456500D03*
X151260000Y-55726500D03*
X151260000Y-56996500D03*
X151260000Y-58266500D03*
X156210000Y-58266500D03*
X156210000Y-56996500D03*
X156210000Y-55726500D03*
X156210000Y-54456500D03*
D23*
X164465000Y-57986000D03*
X164465000Y-56261000D03*
D14*
X156313500Y-52578000D03*
X158138500Y-52578000D03*
D24*
X155851000Y-37077500D03*
X155851000Y-36127500D03*
X155851000Y-35177500D03*
X153576000Y-35177500D03*
X153576000Y-37077500D03*
D25*
X167513000Y-65127500D03*
X167513000Y-66952500D03*
D18*
X156555500Y-45667000D03*
X156555500Y-46937000D03*
X156555500Y-48207000D03*
X156555500Y-49477000D03*
X161505500Y-49477000D03*
X161505500Y-48207000D03*
X161505500Y-46937000D03*
X161505500Y-45667000D03*
D13*
X154797000Y-42584500D03*
X154797000Y-40759500D03*
D25*
X163957000Y-46813000D03*
X163957000Y-48638000D03*
D14*
X160962500Y-51308000D03*
X162787500Y-51308000D03*
D13*
X154051000Y-49781000D03*
X154051000Y-47956000D03*
D26*
X167006000Y-37846000D03*
X170306000Y-37846000D03*
D27*
X172619500Y-62584500D03*
X174344500Y-62584500D03*
D16*
X151511000Y-36957000D03*
X149786000Y-36957000D03*
D27*
X157480000Y-60071000D03*
X159205000Y-60071000D03*
D16*
X170788500Y-55218500D03*
X169063500Y-55218500D03*
D25*
X159004000Y-55475500D03*
X159004000Y-57300500D03*
D23*
X148717000Y-55192000D03*
X148717000Y-53467000D03*
D14*
X153877000Y-60071000D03*
X155702000Y-60071000D03*
D16*
X159772500Y-36696500D03*
X158047500Y-36696500D03*
D27*
X164592000Y-51308000D03*
X166317000Y-51308000D03*
D14*
X147915500Y-42942000D03*
X149740500Y-42942000D03*
D27*
X153475500Y-31362500D03*
X155200500Y-31362500D03*
D23*
X154051000Y-46175000D03*
X154051000Y-44450000D03*
D19*
X159822500Y-34664500D03*
X157997500Y-34664500D03*
D27*
X153475500Y-33140500D03*
X155200500Y-33140500D03*
D14*
X169013500Y-62584500D03*
X170838500Y-62584500D03*
D25*
X174625000Y-57100000D03*
X174625000Y-58925000D03*
M02*
