G04 #@! TF.GenerationSoftware,KiCad,Pcbnew,8.0.1*
G04 #@! TF.CreationDate,2024-12-01T21:33:56-08:00*
G04 #@! TF.ProjectId,ledFlicker,6c656446-6c69-4636-9b65-722e6b696361,rev?*
G04 #@! TF.SameCoordinates,Original*
G04 #@! TF.FileFunction,Soldermask,Bot*
G04 #@! TF.FilePolarity,Negative*
%FSLAX46Y46*%
G04 Gerber Fmt 4.6, Leading zero omitted, Abs format (unit mm)*
G04 Created by KiCad (PCBNEW 8.0.1) date 2024-12-01 21:33:56*
%MOMM*%
%LPD*%
G01*
G04 APERTURE LIST*
%ADD10C,0.010000*%
%ADD11C,1.252400*%
%ADD12C,2.200000*%
%ADD13R,1.700000X1.700000*%
%ADD14O,1.700000X1.700000*%
G04 APERTURE END LIST*
D10*
X170254000Y-31129500D02*
X170285000Y-31132500D01*
X170317000Y-31136500D01*
X170348000Y-31142500D01*
X170378000Y-31149500D01*
X170409000Y-31158500D01*
X170438000Y-31169500D01*
X170468000Y-31181500D01*
X170496000Y-31194500D01*
X170524000Y-31209500D01*
X170551000Y-31226500D01*
X170577000Y-31244500D01*
X170602000Y-31263500D01*
X170626000Y-31283500D01*
X170649000Y-31305500D01*
X170670000Y-31328500D01*
X170691000Y-31352500D01*
X170710000Y-31377500D01*
X170728000Y-31403500D01*
X170744000Y-31430500D01*
X170759000Y-31457500D01*
X170773000Y-31486500D01*
X170785000Y-31515500D01*
X170796000Y-31545500D01*
X170804000Y-31575500D01*
X170812000Y-31606500D01*
X170818000Y-31637500D01*
X170822000Y-31668500D01*
X170824000Y-31699500D01*
X170825000Y-31733500D01*
X170825000Y-31734000D01*
X170825000Y-32624500D01*
X170824000Y-32658500D01*
X170822000Y-32689500D01*
X170818000Y-32720500D01*
X170812000Y-32751500D01*
X170804000Y-32782500D01*
X170796000Y-32812500D01*
X170785000Y-32842500D01*
X170773000Y-32871500D01*
X170759000Y-32900500D01*
X170744000Y-32927500D01*
X170728000Y-32954500D01*
X170710000Y-32980500D01*
X170691000Y-33005500D01*
X170670000Y-33029500D01*
X170649000Y-33052500D01*
X170626000Y-33074500D01*
X170602000Y-33094500D01*
X170577000Y-33113500D01*
X170551000Y-33131500D01*
X170524000Y-33148500D01*
X170496000Y-33163500D01*
X170468000Y-33176500D01*
X170438000Y-33188500D01*
X170409000Y-33199500D01*
X170378000Y-33208500D01*
X170348000Y-33215500D01*
X170317000Y-33221500D01*
X170285000Y-33225500D01*
X170254000Y-33228500D01*
X170225000Y-33229500D01*
X170191000Y-33228500D01*
X170159000Y-33225500D01*
X170127000Y-33221500D01*
X170096000Y-33215500D01*
X170065000Y-33208500D01*
X170035000Y-33199500D01*
X170005000Y-33188500D01*
X169975000Y-33176500D01*
X169947000Y-33162500D01*
X169919000Y-33147500D01*
X169892000Y-33130500D01*
X169865000Y-33112500D01*
X169840000Y-33093500D01*
X169816000Y-33072500D01*
X169793000Y-33051500D01*
X169771000Y-33028500D01*
X169750000Y-33003500D01*
X169731000Y-32978500D01*
X169713000Y-32952500D01*
X169696000Y-32925500D01*
X169681000Y-32897500D01*
X169668000Y-32868500D01*
X169655000Y-32839500D01*
X169645000Y-32809500D01*
X169636000Y-32778500D01*
X169628000Y-32747500D01*
X169622000Y-32716500D01*
X169618000Y-32685500D01*
X169616000Y-32653500D01*
X169615000Y-32624500D01*
X169615000Y-31733500D01*
X169616000Y-31704500D01*
X169618000Y-31672500D01*
X169622000Y-31641500D01*
X169628000Y-31610500D01*
X169636000Y-31579500D01*
X169645000Y-31548500D01*
X169655000Y-31518500D01*
X169668000Y-31489500D01*
X169681000Y-31460500D01*
X169696000Y-31432500D01*
X169713000Y-31405500D01*
X169731000Y-31379500D01*
X169750000Y-31354500D01*
X169771000Y-31329500D01*
X169793000Y-31306500D01*
X169816000Y-31285500D01*
X169840000Y-31264500D01*
X169865000Y-31245500D01*
X169892000Y-31227500D01*
X169919000Y-31210500D01*
X169947000Y-31195500D01*
X169975000Y-31181500D01*
X170005000Y-31169500D01*
X170035000Y-31158500D01*
X170065000Y-31149500D01*
X170096000Y-31142500D01*
X170127000Y-31136500D01*
X170159000Y-31132500D01*
X170191000Y-31129500D01*
X170225000Y-31128500D01*
X170254000Y-31129500D01*
G36*
X170254000Y-31129500D02*
G01*
X170285000Y-31132500D01*
X170317000Y-31136500D01*
X170348000Y-31142500D01*
X170378000Y-31149500D01*
X170409000Y-31158500D01*
X170438000Y-31169500D01*
X170468000Y-31181500D01*
X170496000Y-31194500D01*
X170524000Y-31209500D01*
X170551000Y-31226500D01*
X170577000Y-31244500D01*
X170602000Y-31263500D01*
X170626000Y-31283500D01*
X170649000Y-31305500D01*
X170670000Y-31328500D01*
X170691000Y-31352500D01*
X170710000Y-31377500D01*
X170728000Y-31403500D01*
X170744000Y-31430500D01*
X170759000Y-31457500D01*
X170773000Y-31486500D01*
X170785000Y-31515500D01*
X170796000Y-31545500D01*
X170804000Y-31575500D01*
X170812000Y-31606500D01*
X170818000Y-31637500D01*
X170822000Y-31668500D01*
X170824000Y-31699500D01*
X170825000Y-31733500D01*
X170825000Y-31734000D01*
X170825000Y-32624500D01*
X170824000Y-32658500D01*
X170822000Y-32689500D01*
X170818000Y-32720500D01*
X170812000Y-32751500D01*
X170804000Y-32782500D01*
X170796000Y-32812500D01*
X170785000Y-32842500D01*
X170773000Y-32871500D01*
X170759000Y-32900500D01*
X170744000Y-32927500D01*
X170728000Y-32954500D01*
X170710000Y-32980500D01*
X170691000Y-33005500D01*
X170670000Y-33029500D01*
X170649000Y-33052500D01*
X170626000Y-33074500D01*
X170602000Y-33094500D01*
X170577000Y-33113500D01*
X170551000Y-33131500D01*
X170524000Y-33148500D01*
X170496000Y-33163500D01*
X170468000Y-33176500D01*
X170438000Y-33188500D01*
X170409000Y-33199500D01*
X170378000Y-33208500D01*
X170348000Y-33215500D01*
X170317000Y-33221500D01*
X170285000Y-33225500D01*
X170254000Y-33228500D01*
X170225000Y-33229500D01*
X170191000Y-33228500D01*
X170159000Y-33225500D01*
X170127000Y-33221500D01*
X170096000Y-33215500D01*
X170065000Y-33208500D01*
X170035000Y-33199500D01*
X170005000Y-33188500D01*
X169975000Y-33176500D01*
X169947000Y-33162500D01*
X169919000Y-33147500D01*
X169892000Y-33130500D01*
X169865000Y-33112500D01*
X169840000Y-33093500D01*
X169816000Y-33072500D01*
X169793000Y-33051500D01*
X169771000Y-33028500D01*
X169750000Y-33003500D01*
X169731000Y-32978500D01*
X169713000Y-32952500D01*
X169696000Y-32925500D01*
X169681000Y-32897500D01*
X169668000Y-32868500D01*
X169655000Y-32839500D01*
X169645000Y-32809500D01*
X169636000Y-32778500D01*
X169628000Y-32747500D01*
X169622000Y-32716500D01*
X169618000Y-32685500D01*
X169616000Y-32653500D01*
X169615000Y-32624500D01*
X169615000Y-31733500D01*
X169616000Y-31704500D01*
X169618000Y-31672500D01*
X169622000Y-31641500D01*
X169628000Y-31610500D01*
X169636000Y-31579500D01*
X169645000Y-31548500D01*
X169655000Y-31518500D01*
X169668000Y-31489500D01*
X169681000Y-31460500D01*
X169696000Y-31432500D01*
X169713000Y-31405500D01*
X169731000Y-31379500D01*
X169750000Y-31354500D01*
X169771000Y-31329500D01*
X169793000Y-31306500D01*
X169816000Y-31285500D01*
X169840000Y-31264500D01*
X169865000Y-31245500D01*
X169892000Y-31227500D01*
X169919000Y-31210500D01*
X169947000Y-31195500D01*
X169975000Y-31181500D01*
X170005000Y-31169500D01*
X170035000Y-31158500D01*
X170065000Y-31149500D01*
X170096000Y-31142500D01*
X170127000Y-31136500D01*
X170159000Y-31132500D01*
X170191000Y-31129500D01*
X170225000Y-31128500D01*
X170254000Y-31129500D01*
G37*
X161909000Y-31129500D02*
X161941000Y-31132500D01*
X161973000Y-31136500D01*
X162004000Y-31142500D01*
X162035000Y-31149500D01*
X162065000Y-31158500D01*
X162095000Y-31169500D01*
X162125000Y-31181500D01*
X162153000Y-31195500D01*
X162181000Y-31210500D01*
X162208000Y-31227500D01*
X162235000Y-31245500D01*
X162260000Y-31264500D01*
X162284000Y-31285500D01*
X162307000Y-31306500D01*
X162329000Y-31329500D01*
X162350000Y-31354500D01*
X162369000Y-31379500D01*
X162387000Y-31405500D01*
X162404000Y-31432500D01*
X162419000Y-31460500D01*
X162432000Y-31489500D01*
X162445000Y-31518500D01*
X162455000Y-31548500D01*
X162464000Y-31579500D01*
X162472000Y-31610500D01*
X162478000Y-31641500D01*
X162482000Y-31672500D01*
X162484000Y-31704500D01*
X162485000Y-31733500D01*
X162485000Y-31734000D01*
X162485000Y-32624500D01*
X162484000Y-32653500D01*
X162482000Y-32685500D01*
X162478000Y-32716500D01*
X162472000Y-32747500D01*
X162464000Y-32778500D01*
X162455000Y-32809500D01*
X162445000Y-32839500D01*
X162432000Y-32868500D01*
X162419000Y-32897500D01*
X162404000Y-32925500D01*
X162387000Y-32952500D01*
X162369000Y-32978500D01*
X162350000Y-33003500D01*
X162329000Y-33028500D01*
X162307000Y-33051500D01*
X162284000Y-33072500D01*
X162260000Y-33093500D01*
X162235000Y-33112500D01*
X162208000Y-33130500D01*
X162181000Y-33147500D01*
X162153000Y-33162500D01*
X162125000Y-33176500D01*
X162095000Y-33188500D01*
X162065000Y-33199500D01*
X162035000Y-33208500D01*
X162004000Y-33215500D01*
X161973000Y-33221500D01*
X161941000Y-33225500D01*
X161909000Y-33228500D01*
X161875000Y-33229500D01*
X161846000Y-33228500D01*
X161815000Y-33225500D01*
X161783000Y-33221500D01*
X161752000Y-33215500D01*
X161722000Y-33208500D01*
X161691000Y-33199500D01*
X161662000Y-33188500D01*
X161632000Y-33176500D01*
X161604000Y-33163500D01*
X161576000Y-33148500D01*
X161549000Y-33131500D01*
X161523000Y-33113500D01*
X161498000Y-33094500D01*
X161474000Y-33074500D01*
X161451000Y-33052500D01*
X161430000Y-33029500D01*
X161409000Y-33005500D01*
X161390000Y-32980500D01*
X161372000Y-32954500D01*
X161356000Y-32927500D01*
X161341000Y-32900500D01*
X161327000Y-32871500D01*
X161315000Y-32842500D01*
X161304000Y-32812500D01*
X161296000Y-32782500D01*
X161288000Y-32751500D01*
X161282000Y-32720500D01*
X161278000Y-32689500D01*
X161276000Y-32658500D01*
X161275000Y-32624500D01*
X161275000Y-31733500D01*
X161276000Y-31699500D01*
X161278000Y-31668500D01*
X161282000Y-31637500D01*
X161288000Y-31606500D01*
X161296000Y-31575500D01*
X161304000Y-31545500D01*
X161315000Y-31515500D01*
X161327000Y-31486500D01*
X161341000Y-31457500D01*
X161356000Y-31430500D01*
X161372000Y-31403500D01*
X161390000Y-31377500D01*
X161409000Y-31352500D01*
X161430000Y-31328500D01*
X161451000Y-31305500D01*
X161474000Y-31283500D01*
X161498000Y-31263500D01*
X161523000Y-31244500D01*
X161549000Y-31226500D01*
X161576000Y-31209500D01*
X161604000Y-31194500D01*
X161632000Y-31181500D01*
X161662000Y-31169500D01*
X161691000Y-31158500D01*
X161722000Y-31149500D01*
X161752000Y-31142500D01*
X161783000Y-31136500D01*
X161815000Y-31132500D01*
X161846000Y-31129500D01*
X161875000Y-31128500D01*
X161909000Y-31129500D01*
G36*
X161909000Y-31129500D02*
G01*
X161941000Y-31132500D01*
X161973000Y-31136500D01*
X162004000Y-31142500D01*
X162035000Y-31149500D01*
X162065000Y-31158500D01*
X162095000Y-31169500D01*
X162125000Y-31181500D01*
X162153000Y-31195500D01*
X162181000Y-31210500D01*
X162208000Y-31227500D01*
X162235000Y-31245500D01*
X162260000Y-31264500D01*
X162284000Y-31285500D01*
X162307000Y-31306500D01*
X162329000Y-31329500D01*
X162350000Y-31354500D01*
X162369000Y-31379500D01*
X162387000Y-31405500D01*
X162404000Y-31432500D01*
X162419000Y-31460500D01*
X162432000Y-31489500D01*
X162445000Y-31518500D01*
X162455000Y-31548500D01*
X162464000Y-31579500D01*
X162472000Y-31610500D01*
X162478000Y-31641500D01*
X162482000Y-31672500D01*
X162484000Y-31704500D01*
X162485000Y-31733500D01*
X162485000Y-31734000D01*
X162485000Y-32624500D01*
X162484000Y-32653500D01*
X162482000Y-32685500D01*
X162478000Y-32716500D01*
X162472000Y-32747500D01*
X162464000Y-32778500D01*
X162455000Y-32809500D01*
X162445000Y-32839500D01*
X162432000Y-32868500D01*
X162419000Y-32897500D01*
X162404000Y-32925500D01*
X162387000Y-32952500D01*
X162369000Y-32978500D01*
X162350000Y-33003500D01*
X162329000Y-33028500D01*
X162307000Y-33051500D01*
X162284000Y-33072500D01*
X162260000Y-33093500D01*
X162235000Y-33112500D01*
X162208000Y-33130500D01*
X162181000Y-33147500D01*
X162153000Y-33162500D01*
X162125000Y-33176500D01*
X162095000Y-33188500D01*
X162065000Y-33199500D01*
X162035000Y-33208500D01*
X162004000Y-33215500D01*
X161973000Y-33221500D01*
X161941000Y-33225500D01*
X161909000Y-33228500D01*
X161875000Y-33229500D01*
X161846000Y-33228500D01*
X161815000Y-33225500D01*
X161783000Y-33221500D01*
X161752000Y-33215500D01*
X161722000Y-33208500D01*
X161691000Y-33199500D01*
X161662000Y-33188500D01*
X161632000Y-33176500D01*
X161604000Y-33163500D01*
X161576000Y-33148500D01*
X161549000Y-33131500D01*
X161523000Y-33113500D01*
X161498000Y-33094500D01*
X161474000Y-33074500D01*
X161451000Y-33052500D01*
X161430000Y-33029500D01*
X161409000Y-33005500D01*
X161390000Y-32980500D01*
X161372000Y-32954500D01*
X161356000Y-32927500D01*
X161341000Y-32900500D01*
X161327000Y-32871500D01*
X161315000Y-32842500D01*
X161304000Y-32812500D01*
X161296000Y-32782500D01*
X161288000Y-32751500D01*
X161282000Y-32720500D01*
X161278000Y-32689500D01*
X161276000Y-32658500D01*
X161275000Y-32624500D01*
X161275000Y-31733500D01*
X161276000Y-31699500D01*
X161278000Y-31668500D01*
X161282000Y-31637500D01*
X161288000Y-31606500D01*
X161296000Y-31575500D01*
X161304000Y-31545500D01*
X161315000Y-31515500D01*
X161327000Y-31486500D01*
X161341000Y-31457500D01*
X161356000Y-31430500D01*
X161372000Y-31403500D01*
X161390000Y-31377500D01*
X161409000Y-31352500D01*
X161430000Y-31328500D01*
X161451000Y-31305500D01*
X161474000Y-31283500D01*
X161498000Y-31263500D01*
X161523000Y-31244500D01*
X161549000Y-31226500D01*
X161576000Y-31209500D01*
X161604000Y-31194500D01*
X161632000Y-31181500D01*
X161662000Y-31169500D01*
X161691000Y-31158500D01*
X161722000Y-31149500D01*
X161752000Y-31142500D01*
X161783000Y-31136500D01*
X161815000Y-31132500D01*
X161846000Y-31129500D01*
X161875000Y-31128500D01*
X161909000Y-31129500D01*
G37*
D11*
X168275000Y-35179000D03*
X163825000Y-35179000D03*
D12*
X149390000Y-32385000D03*
X149390000Y-70985000D03*
D13*
X172725000Y-50673000D03*
D14*
X170185000Y-50673000D03*
D12*
X173990000Y-32385000D03*
D13*
X157744000Y-69977000D03*
D14*
X160284000Y-69977000D03*
X162824000Y-69977000D03*
X165364000Y-69977000D03*
D13*
X160650000Y-64897000D03*
D14*
X163190000Y-64897000D03*
D12*
X173990000Y-70985000D03*
M02*
