M48
INCH,TZ
T1C0.0118
T2C0.0236
T3C0.0276
T4C0.0394
%
G90
G05
T1
X60000Y-17050
X61050Y-20100
X62450Y-12350
X63450Y-15100
X63600Y-23650
X67650Y-25550
T3
X64498Y-13850
X66250Y-13850
T4
X62104Y-27550
X63104Y-27550
X63248Y-25550
X64104Y-27550
X64248Y-25550
X65104Y-27550
X67002Y-19950
X68002Y-19950
T2
G00X63730Y-12807
M15
G01X63730Y-12531
M16
G05
G00X67018Y-12807
M15
G01X67018Y-12531
M16
G05
M30
